<svg id="eP0xeSE4hZI1" xmlns="http://www.w3.org/2000/svg" xmlns:xlink="http://www.w3.org/1999/xlink" viewBox="0 0 24 24" shape-rendering="geometricPrecision" text-rendering="geometricPrecision" project-id="7156c7eddf6146698f61f620590d960f" export-id="e3938f88a9b64045bfda361c2416201f" cached="false" width="24" height="24"><path d="M176.069322,294.097832c44.191255,0,80.015343-37.716993,80.015343-84.243264s-35.824088-84.243265-80.015343-84.243265-80.015342,37.716993-80.015342,84.243265s35.824088,84.243264,80.015342,84.243264ZM77.35361,209.854568c0-57.399911,44.196527-103.931738,98.715709-103.931738s98.715708,46.531822,98.715708,103.931738-44.196526,103.931738-98.715708,103.931738-98.715709-46.531823-98.715709-103.931738Zm50.683019,1.70676v-43.598659l66.327096,84.610952h-33.339018l-32.988078-41.012293Zm83.040192,11.691326h-30.300213l41.662795-52.927062v39.528976l-11.362582,13.398086Z" transform="matrix(.101301 0 0 0.096217-5.835998-8.191577)" stroke-width="0"/></svg>
