
<svg xmlns="http://www.w3.org/2000/svg" xml:space="preserve" width="24px" height="24px" version="1.1" style="fill-rule:evenodd; clip-rule:evenodd"
viewBox="0 0 6.35 6.35"
>
  <path fill="#fff" d="M6.35 3.05l0 0.24c0,0.21 -0.18,0.38 -0.38,0.38l-2.3 0 0 2.3c0,0.2 -0.17,0.38 -0.38,0.38l-0.24 0c-0.21,0 -0.38,-0.18 -0.38,-0.38l0 -2.3 -2.29 0c-0.21,0 -0.38,-0.17 -0.38,-0.38l0 -0.24c0,-0.21 0.17,-0.38 0.38,-0.38l2.29 0 0 -2.29c0,-0.21 0.17,-0.38 0.38,-0.38l0.24 0c0.21,0 0.38,0.17 0.38,0.38l0 2.29 2.3 0c0.2,0 0.38,0.17 0.38,0.38z"/>
</svg>
