<svg xmlns="http://www.w3.org/2000/svg" xml:space="preserve" width="22px" height="24px" version="1.1" style="fill-rule:evenodd; clip-rule:evenodd"
viewBox="0 0 4.13 4.51"
>

  <path fill="#fff" d="M0.62 3.77c-0.67,0 -0.71,-0.51 -0.53,-0.83 0.1,-0.16 0.21,-0.33 0.31,-0.49 0.04,-0.08 0.04,-0.07 0.04,-0.16l0 -0.4c0,-0.6 0.4,-1.12 0.95,-1.3 0.06,-0.02 0.04,-0.01 0.05,-0.08 0.06,-0.29 0.32,-0.51 0.62,-0.51 0.31,0 0.57,0.22 0.62,0.52 0.02,0.06 0,0.05 0.06,0.07 0.55,0.18 0.95,0.7 0.95,1.3 0,0.14 0,0.27 0,0.4 0,0.09 -0.01,0.08 0.04,0.15l0.31 0.5c0.18,0.32 0.13,0.83 -0.53,0.83l-0.58 0c-0.06,0.42 -0.43,0.74 -0.87,0.74 -0.43,0 -0.8,-0.32 -0.87,-0.74l-0.57 0zm1.98 0l-1.07 0c0.06,0.24 0.28,0.41 0.53,0.41 0.26,0 0.48,-0.17 0.54,-0.41zm1.15 -0.66l-0.3 -0.49c-0.07,-0.13 -0.09,-0.18 -0.09,-0.33 0,-0.13 0,-0.26 0,-0.4 0,-0.45 -0.29,-0.85 -0.72,-0.99 -0.09,-0.03 -0.16,-0.06 -0.22,-0.15 -0.04,-0.07 -0.04,-0.1 -0.06,-0.18 -0.02,-0.14 -0.15,-0.24 -0.3,-0.24 -0.14,0 -0.27,0.1 -0.3,0.24 -0.01,0.08 -0.01,0.11 -0.05,0.18 -0.06,0.09 -0.13,0.12 -0.22,0.15 -0.43,0.14 -0.73,0.54 -0.73,0.99l0 0.4c0,0.15 -0.01,0.2 -0.08,0.33 -0.11,0.16 -0.21,0.32 -0.31,0.49 -0.03,0.06 -0.06,0.17 -0.03,0.24 0.04,0.08 0.21,0.09 0.28,0.09l2.89 0c0.07,0 0.24,-0.01 0.28,-0.09 0.03,-0.07 0,-0.18 -0.04,-0.24z"/>

</svg>
