<svg width="1664" height="4335" viewBox="0 0 1664 4335" fill="none" xmlns="http://www.w3.org/2000/svg">
<mask id="mask0_4_186" style="mask-type:alpha" maskUnits="userSpaceOnUse" x="0" y="0" width="1665" height="4335">
<rect width="1665" height="4335" fill="#D9D9D9"/>
</mask>
<g mask="url(#mask0_4_186)">
<g filter="url(#filter0_f_4_186)">
<ellipse cx="290.238" cy="681.57" rx="144" ry="591.128" transform="rotate(-29.0908 290.238 681.57)" fill="#4ECEE7" fill-opacity="0.501961"/>
<path d="M415.635 611.801C494.986 754.42 552.734 891.358 581.959 997.458C596.573 1050.51 604.046 1095.83 603.536 1130.27C603.025 1164.77 594.517 1188.17 577.398 1197.69C560.279 1207.22 535.909 1202.11 506.332 1184.36C476.793 1166.63 442.227 1136.39 404.851 1096C330.104 1015.23 244.191 893.958 164.84 751.339C85.4895 608.719 27.7414 471.781 -1.4834 365.681C-16.0969 312.628 -23.5707 267.312 -23.0604 232.865C-22.5496 198.374 -14.0411 174.973 3.07759 165.449C20.1963 155.924 44.5665 161.032 74.1432 178.782C103.683 196.511 138.248 226.753 175.624 267.142C250.372 347.914 336.285 469.181 415.635 611.801Z" stroke="url(#paint0_linear_4_186)" stroke-opacity="0.5"/>
</g>
<g filter="url(#filter1_f_4_186)">
<ellipse cx="475.3" cy="173.418" rx="7.9884" ry="31.5091" transform="rotate(-29.0908 475.3 173.418)" fill="#4ECEE7" fill-opacity="0.8"/>
<path d="M481.844 169.777C486.06 177.355 489.09 184.635 490.586 190.27C491.334 193.091 491.691 195.472 491.633 197.261C491.574 199.086 491.094 200.116 490.377 200.515C489.66 200.914 488.53 200.779 486.948 199.867C485.398 198.973 483.563 197.415 481.56 195.291C477.561 191.049 472.973 184.637 468.756 177.059C464.54 169.481 461.51 162.201 460.015 156.566C459.266 153.745 458.909 151.364 458.967 149.575C459.026 147.75 459.507 146.72 460.224 146.321C460.941 145.922 462.07 146.057 463.652 146.969C465.202 147.863 467.037 149.421 469.04 151.545C473.04 155.787 477.628 162.199 481.844 169.777Z" stroke="url(#paint1_linear_4_186)" stroke-opacity="0.5"/>
</g>
<g filter="url(#filter2_f_4_186)">
<ellipse cx="807.546" cy="55.8904" rx="145.058" ry="194.958" transform="rotate(-29.0908 807.546 55.8904)" fill="#4ECEE7" fill-opacity="0.501961"/>
<path d="M933.868 -14.3926C959.996 32.5676 969.477 82.945 963.707 126.421C957.937 169.897 936.924 206.437 902.091 225.818C867.257 245.199 825.129 243.789 785.145 225.77C745.16 207.751 707.352 173.134 681.224 126.174C655.097 79.2133 645.615 28.8359 651.385 -14.64C657.155 -58.1158 678.168 -94.6562 713.002 -114.037C747.835 -133.418 789.963 -132.008 829.948 -113.989C869.932 -95.9702 907.74 -61.3528 933.868 -14.3926Z" stroke="url(#paint2_linear_4_186)" stroke-opacity="0.5"/>
</g>
<g filter="url(#filter3_f_4_186)">
<ellipse cx="1010.55" cy="72.8904" rx="145.058" ry="194.958" transform="rotate(-29.0908 1010.55 72.8904)" fill="#4ECEE7" fill-opacity="0.501961"/>
<path d="M1136.87 2.60737C1163 49.5676 1172.48 99.945 1166.71 143.421C1160.94 186.897 1139.92 223.437 1105.09 242.818C1070.26 262.199 1028.13 260.789 988.145 242.77C948.16 224.751 910.352 190.134 884.224 143.174C858.097 96.2133 848.615 45.8359 854.385 2.36003C860.155 -41.1158 881.168 -77.6562 916.002 -97.0369C950.835 -116.418 992.963 -115.008 1032.95 -96.989C1072.93 -78.9702 1110.74 -44.3528 1136.87 2.60737Z" stroke="url(#paint3_linear_4_186)" stroke-opacity="0.5"/>
</g>
<g filter="url(#filter4_f_4_186)">
<ellipse cx="1005.55" cy="803.89" rx="145.058" ry="194.958" transform="rotate(-29.0908 1005.55 803.89)" fill="#4ECEE7" fill-opacity="0.501961"/>
<path d="M1131.87 733.607C1158 780.568 1167.48 830.945 1161.71 874.421C1155.94 917.897 1134.92 954.437 1100.09 973.818C1065.26 993.199 1023.13 991.789 983.145 973.77C943.16 955.751 905.352 921.134 879.224 874.174C853.097 827.213 843.615 776.836 849.385 733.36C855.155 689.884 876.168 653.344 911.002 633.963C945.835 614.582 987.963 615.992 1027.95 634.011C1067.93 652.03 1105.74 686.647 1131.87 733.607Z" stroke="url(#paint4_linear_4_186)" stroke-opacity="0.5"/>
</g>
<g filter="url(#filter5_f_4_186)">
<ellipse cx="1098.55" cy="829.89" rx="145.058" ry="194.958" transform="rotate(-29.0908 1098.55 829.89)" fill="#4ECEE7" fill-opacity="0.501961"/>
<path d="M1224.87 759.607C1251 806.568 1260.48 856.945 1254.71 900.421C1248.94 943.897 1227.92 980.437 1193.09 999.818C1158.26 1019.2 1116.13 1017.79 1076.14 999.77C1036.16 981.751 998.352 947.134 972.224 900.174C946.097 853.213 936.615 802.836 942.385 759.36C948.155 715.884 969.168 679.344 1004 659.963C1038.84 640.582 1080.96 641.992 1120.95 660.011C1160.93 678.03 1198.74 712.647 1224.87 759.607Z" stroke="url(#paint5_linear_4_186)" stroke-opacity="0.5"/>
</g>
<g filter="url(#filter6_f_4_186)">
<ellipse cx="1263.55" cy="55.8904" rx="145.058" ry="194.958" transform="rotate(-29.0908 1263.55 55.8904)" fill="#3F84D9" fill-opacity="0.45098"/>
<path d="M1389.87 -14.3926C1416 32.5676 1425.48 82.945 1419.71 126.421C1413.94 169.897 1392.92 206.437 1358.09 225.818C1323.26 245.199 1281.13 243.789 1241.14 225.77C1201.16 207.751 1163.35 173.134 1137.22 126.174C1111.1 79.2133 1101.61 28.8359 1107.39 -14.64C1113.16 -58.1158 1134.17 -94.6562 1169 -114.037C1203.84 -133.418 1245.96 -132.008 1285.95 -113.989C1325.93 -95.9702 1363.74 -61.3528 1389.87 -14.3926Z" stroke="url(#paint6_linear_4_186)" stroke-opacity="0.5"/>
</g>
<g filter="url(#filter7_f_4_186)">
<ellipse cx="1713.53" cy="944.602" rx="145.196" ry="285.17" transform="rotate(-29.0908 1713.53 944.602)" fill="#3F84D9" fill-opacity="0.45098"/>
<path d="M1839.97 874.252C1878.23 943.011 1898.66 1013.14 1900.79 1070.91C1902.91 1128.72 1886.72 1174.01 1851.93 1193.36C1817.15 1212.72 1770.13 1202.6 1722.13 1170.31C1674.16 1138.04 1625.34 1083.71 1587.08 1014.95C1548.83 946.194 1528.4 876.07 1526.27 818.293C1524.14 760.486 1540.34 715.198 1575.12 695.843C1609.91 676.489 1656.93 686.607 1704.93 718.892C1752.9 751.16 1801.71 805.492 1839.97 874.252Z" stroke="url(#paint7_linear_4_186)" stroke-opacity="0.5"/>
</g>
<g filter="url(#filter8_f_4_186)">
<ellipse cx="528.77" cy="686.653" rx="119.091" ry="240.032" transform="rotate(-29.0908 528.77 686.653)" fill="#3F84D9" fill-opacity="0.45098"/>
<path d="M632.4 628.995C664.597 686.864 682.096 745.708 684.378 794.052C686.662 842.43 673.71 880.122 645.229 895.968C616.748 911.815 577.891 902.948 537.987 875.501C498.112 848.074 457.336 802.18 425.139 744.312C392.942 686.443 375.443 627.599 373.161 579.255C370.878 530.877 383.83 493.185 412.311 477.338C440.792 461.492 479.648 470.359 519.552 497.806C559.428 525.233 600.203 571.126 632.4 628.995Z" stroke="url(#paint8_linear_4_186)" stroke-opacity="0.5"/>
</g>
<g filter="url(#filter9_f_4_186)">
<ellipse cx="181.918" cy="72.7868" rx="84.9112" ry="181.755" transform="rotate(40.0285 181.918 72.7868)" fill="#3F84D9" fill-opacity="0.45098"/>
<path d="M246.554 127.077C214.309 165.466 177.863 194.096 145.022 209.361C112.141 224.646 83.0577 226.46 65.3402 211.578C47.6227 196.697 44.3882 167.737 53.7654 132.711C63.1312 97.7275 85.0374 56.8851 117.282 18.4962C149.527 -19.8927 185.973 -48.5221 218.814 -63.7877C251.695 -79.072 280.778 -80.8866 298.495 -66.0049C316.213 -51.1231 319.447 -22.1634 310.07 12.8629C300.704 47.8461 278.798 88.6885 246.554 127.077Z" stroke="url(#paint9_linear_4_186)" stroke-opacity="0.5"/>
</g>
<g filter="url(#filter10_f_4_186)">
<ellipse cx="182.919" cy="93.7888" rx="18.0315" ry="53.8102" transform="rotate(-29.0908 182.919 93.7888)" fill="#4ECEE7" fill-opacity="0.8"/>
<path d="M198.239 85.2651C205.445 98.2158 210.198 110.901 212.069 120.931C213.005 125.949 213.214 130.273 212.665 133.622C212.116 136.979 210.824 139.269 208.838 140.374C206.853 141.479 204.225 141.369 201.084 140.066C197.948 138.766 194.384 136.309 190.614 132.868C183.078 125.991 174.805 115.263 167.599 102.313C160.394 89.3618 155.64 76.6763 153.769 66.6466C152.834 61.629 152.625 57.3046 153.173 53.9552C153.722 50.599 155.015 48.3082 157 47.2036C158.985 46.099 161.613 46.2087 164.755 47.5114C167.89 48.8113 171.454 51.2688 175.224 54.7094C182.761 61.5869 191.034 72.3144 198.239 85.2651Z" stroke="url(#paint10_linear_4_186)" stroke-opacity="0.5"/>
</g>
<g filter="url(#filter11_f_4_186)">
<ellipse cx="1221.92" cy="131.789" rx="18.0315" ry="53.8102" transform="rotate(-29.0908 1221.92 131.789)" fill="#4ECEE7" fill-opacity="0.8"/>
<path d="M1237.24 123.265C1244.44 136.216 1249.2 148.901 1251.07 158.931C1252 163.949 1252.21 168.273 1251.67 171.622C1251.12 174.979 1249.82 177.269 1247.84 178.374C1245.85 179.479 1243.23 179.369 1240.08 178.066C1236.95 176.766 1233.38 174.309 1229.61 170.868C1222.08 163.991 1213.8 153.263 1206.6 140.313C1199.39 127.362 1194.64 114.676 1192.77 104.647C1191.83 99.629 1191.62 95.3046 1192.17 91.9552C1192.72 88.599 1194.01 86.3082 1196 85.2036C1197.99 84.099 1200.61 84.2087 1203.75 85.5114C1206.89 86.8113 1210.45 89.2688 1214.22 92.7094C1221.76 99.5869 1230.03 110.314 1237.24 123.265Z" stroke="url(#paint11_linear_4_186)" stroke-opacity="0.5"/>
</g>
<g filter="url(#filter12_f_4_186)">
<ellipse cx="1350.92" cy="847.789" rx="18.0315" ry="53.8102" transform="rotate(-29.0908 1350.92 847.789)" fill="#4ECEE7" fill-opacity="0.8"/>
<path d="M1366.24 839.265C1373.44 852.216 1378.2 864.901 1380.07 874.931C1381 879.949 1381.21 884.273 1380.67 887.623C1380.12 890.979 1378.82 893.27 1376.84 894.374C1374.85 895.479 1372.23 895.369 1369.08 894.066C1365.95 892.766 1362.38 890.309 1358.61 886.868C1351.08 879.991 1342.8 869.263 1335.6 856.313C1328.39 843.362 1323.64 830.676 1321.77 820.647C1320.83 815.629 1320.62 811.305 1321.17 807.955C1321.72 804.599 1323.01 802.308 1325 801.204C1326.99 800.099 1329.61 800.209 1332.75 801.512C1335.89 802.812 1339.45 805.269 1343.22 808.71C1350.76 815.587 1359.03 826.315 1366.24 839.265Z" stroke="url(#paint12_linear_4_186)" stroke-opacity="0.5"/>
</g>
<g filter="url(#filter13_f_4_186)">
<ellipse cx="1595.92" cy="103.789" rx="18.0315" ry="53.8102" transform="rotate(-29.0908 1595.92 103.789)" fill="#4ECEE7" fill-opacity="0.8"/>
<path d="M1611.24 95.2651C1618.44 108.216 1623.2 120.901 1625.07 130.931C1626 135.949 1626.21 140.273 1625.67 143.622C1625.12 146.979 1623.82 149.269 1621.84 150.374C1619.85 151.479 1617.23 151.369 1614.08 150.066C1610.95 148.766 1607.38 146.309 1603.61 142.868C1596.08 135.991 1587.8 125.263 1580.6 112.313C1573.39 99.3618 1568.64 86.6763 1566.77 76.6466C1565.83 71.629 1565.62 67.3046 1566.17 63.9552C1566.72 60.599 1568.01 58.3082 1570 57.2036C1571.99 56.099 1574.61 56.2087 1577.75 57.5114C1580.89 58.8113 1584.45 61.2688 1588.22 64.7094C1595.76 71.5869 1604.03 82.3144 1611.24 95.2651Z" stroke="url(#paint13_linear_4_186)" stroke-opacity="0.5"/>
</g>
<g filter="url(#filter14_f_4_186)">
<ellipse cx="1518.26" cy="245.5" rx="8.2532" ry="24.5893" transform="rotate(-29.0908 1518.26 245.5)" fill="#4ECEE7" fill-opacity="0.8"/>
<path d="M1525.03 241.73C1528.31 247.63 1530.47 253.399 1531.32 257.948C1531.74 260.225 1531.83 262.167 1531.59 263.655C1531.34 265.151 1530.77 266.102 1529.97 266.55C1529.16 266.999 1528.06 266.978 1526.66 266.398C1525.26 265.822 1523.66 264.722 1521.95 263.162C1518.53 260.045 1514.76 255.169 1511.48 249.269C1508.2 243.37 1506.04 237.6 1505.2 233.052C1504.77 230.775 1504.68 228.833 1504.93 227.344C1505.17 225.849 1505.74 224.898 1506.54 224.449C1507.35 224.001 1508.46 224.022 1509.86 224.601C1511.25 225.178 1512.85 226.278 1514.57 227.838C1517.99 230.955 1521.75 235.831 1525.03 241.73Z" stroke="url(#paint14_linear_4_186)" stroke-opacity="0.5"/>
</g>
<g filter="url(#filter15_f_4_186)">
<ellipse cx="1542.17" cy="244.5" rx="8.2532" ry="24.5893" transform="rotate(-29.0908 1542.17 244.5)" fill="#4ECEE7" fill-opacity="0.8"/>
<path d="M1548.94 240.73C1552.22 246.63 1554.38 252.399 1555.23 256.948C1555.65 259.225 1555.74 261.167 1555.5 262.656C1555.25 264.151 1554.69 265.102 1553.88 265.55C1553.07 265.999 1551.97 265.978 1550.57 265.399C1549.17 264.822 1547.57 263.722 1545.86 262.162C1542.44 259.045 1538.67 254.169 1535.39 248.269C1532.11 242.37 1529.95 236.6 1529.11 232.052C1528.68 229.775 1528.59 227.833 1528.84 226.344C1529.08 224.849 1529.65 223.898 1530.46 223.45C1531.26 223.001 1532.37 223.022 1533.77 223.601C1535.16 224.178 1536.77 225.278 1538.48 226.838C1541.9 229.955 1545.66 234.831 1548.94 240.73Z" stroke="url(#paint15_linear_4_186)" stroke-opacity="0.5"/>
</g>
<g filter="url(#filter16_f_4_186)">
<ellipse cx="625.159" cy="484.591" rx="13.9045" ry="42.5356" transform="rotate(6.79738 625.159 484.591)" fill="#4ECEE7" fill-opacity="0.8"/>
<path d="M638.469 486.178C637.083 497.803 634.29 508.124 630.908 515.41C629.216 519.056 627.389 521.915 625.537 523.799C623.68 525.689 621.868 526.532 620.183 526.331C618.499 526.13 616.936 524.885 615.575 522.611C614.218 520.345 613.114 517.136 612.326 513.195C610.752 505.319 610.463 494.63 611.849 483.005C613.234 471.379 616.027 461.058 619.409 453.772C621.101 450.127 622.929 447.267 624.78 445.383C626.637 443.493 628.449 442.65 630.134 442.851C631.819 443.052 633.382 444.297 634.743 446.571C636.099 448.837 637.203 452.046 637.991 455.987C639.566 463.864 639.855 474.552 638.469 486.178Z" stroke="url(#paint16_linear_4_186)" stroke-opacity="0.5"/>
</g>
<g filter="url(#filter17_f_4_186)">
<ellipse cx="290.238" cy="2125.57" rx="144" ry="591.128" transform="rotate(-29.0908 290.238 2125.57)" fill="#4ECEE7" fill-opacity="0.501961"/>
<path d="M415.635 2055.8C494.986 2198.42 552.734 2335.36 581.959 2441.46C596.573 2494.51 604.046 2539.83 603.536 2574.27C603.025 2608.77 594.517 2632.17 577.398 2641.69C560.279 2651.22 535.909 2646.11 506.332 2628.36C476.793 2610.63 442.227 2580.39 404.851 2540C330.104 2459.23 244.191 2337.96 164.84 2195.34C85.4895 2052.72 27.7414 1915.78 -1.4834 1809.68C-16.0969 1756.63 -23.5707 1711.31 -23.0604 1676.86C-22.5496 1642.37 -14.0411 1618.97 3.07759 1609.45C20.1963 1599.92 44.5665 1605.03 74.1432 1622.78C103.683 1640.51 138.248 1670.75 175.624 1711.14C250.372 1791.91 336.285 1913.18 415.635 2055.8Z" stroke="url(#paint17_linear_4_186)" stroke-opacity="0.5"/>
</g>
<g filter="url(#filter18_f_4_186)">
<ellipse cx="475.3" cy="1617.42" rx="7.9884" ry="31.5091" transform="rotate(-29.0908 475.3 1617.42)" fill="#4ECEE7" fill-opacity="0.8"/>
<path d="M481.844 1613.78C486.06 1621.36 489.09 1628.63 490.586 1634.27C491.334 1637.09 491.691 1639.47 491.633 1641.26C491.574 1643.09 491.094 1644.12 490.377 1644.52C489.66 1644.91 488.53 1644.78 486.948 1643.87C485.398 1642.97 483.563 1641.41 481.56 1639.29C477.561 1635.05 472.973 1628.64 468.756 1621.06C464.54 1613.48 461.51 1606.2 460.015 1600.57C459.266 1597.75 458.909 1595.36 458.967 1593.58C459.026 1591.75 459.507 1590.72 460.224 1590.32C460.941 1589.92 462.07 1590.06 463.652 1590.97C465.202 1591.86 467.037 1593.42 469.04 1595.55C473.04 1599.79 477.628 1606.2 481.844 1613.78Z" stroke="url(#paint18_linear_4_186)" stroke-opacity="0.5"/>
</g>
<g filter="url(#filter19_f_4_186)">
<ellipse cx="807.546" cy="1499.89" rx="145.058" ry="194.958" transform="rotate(-29.0908 807.546 1499.89)" fill="#4ECEE7" fill-opacity="0.501961"/>
<path d="M933.868 1429.61C959.996 1476.57 969.477 1526.95 963.707 1570.42C957.937 1613.9 936.924 1650.44 902.091 1669.82C867.257 1689.2 825.129 1687.79 785.145 1669.77C745.16 1651.75 707.352 1617.13 681.224 1570.17C655.097 1523.21 645.615 1472.84 651.385 1429.36C657.155 1385.88 678.168 1349.34 713.002 1329.96C747.835 1310.58 789.963 1311.99 829.948 1330.01C869.932 1348.03 907.74 1382.65 933.868 1429.61Z" stroke="url(#paint19_linear_4_186)" stroke-opacity="0.5"/>
</g>
<g filter="url(#filter20_f_4_186)">
<ellipse cx="1010.55" cy="1516.89" rx="145.058" ry="194.958" transform="rotate(-29.0908 1010.55 1516.89)" fill="#4ECEE7" fill-opacity="0.501961"/>
<path d="M1136.87 1446.61C1163 1493.57 1172.48 1543.95 1166.71 1587.42C1160.94 1630.9 1139.92 1667.44 1105.09 1686.82C1070.26 1706.2 1028.13 1704.79 988.145 1686.77C948.16 1668.75 910.352 1634.13 884.224 1587.17C858.097 1540.21 848.615 1489.84 854.385 1446.36C860.155 1402.88 881.168 1366.34 916.002 1346.96C950.835 1327.58 992.963 1328.99 1032.95 1347.01C1072.93 1365.03 1110.74 1399.65 1136.87 1446.61Z" stroke="url(#paint20_linear_4_186)" stroke-opacity="0.5"/>
</g>
<g filter="url(#filter21_f_4_186)">
<ellipse cx="1005.55" cy="2247.89" rx="145.058" ry="194.958" transform="rotate(-29.0908 1005.55 2247.89)" fill="#4ECEE7" fill-opacity="0.501961"/>
<path d="M1131.87 2177.61C1158 2224.57 1167.48 2274.95 1161.71 2318.42C1155.94 2361.9 1134.92 2398.44 1100.09 2417.82C1065.26 2437.2 1023.13 2435.79 983.145 2417.77C943.16 2399.75 905.352 2365.13 879.224 2318.17C853.097 2271.21 843.615 2220.84 849.385 2177.36C855.155 2133.88 876.168 2097.34 911.002 2077.96C945.835 2058.58 987.963 2059.99 1027.95 2078.01C1067.93 2096.03 1105.74 2130.65 1131.87 2177.61Z" stroke="url(#paint21_linear_4_186)" stroke-opacity="0.5"/>
</g>
<g filter="url(#filter22_f_4_186)">
<ellipse cx="1098.55" cy="2273.89" rx="145.058" ry="194.958" transform="rotate(-29.0908 1098.55 2273.89)" fill="#4ECEE7" fill-opacity="0.501961"/>
<path d="M1224.87 2203.61C1251 2250.57 1260.48 2300.95 1254.71 2344.42C1248.94 2387.9 1227.92 2424.44 1193.09 2443.82C1158.26 2463.2 1116.13 2461.79 1076.14 2443.77C1036.16 2425.75 998.352 2391.13 972.224 2344.17C946.097 2297.21 936.615 2246.84 942.385 2203.36C948.155 2159.88 969.168 2123.34 1004 2103.96C1038.84 2084.58 1080.96 2085.99 1120.95 2104.01C1160.93 2122.03 1198.74 2156.65 1224.87 2203.61Z" stroke="url(#paint22_linear_4_186)" stroke-opacity="0.5"/>
</g>
<g filter="url(#filter23_f_4_186)">
<ellipse cx="1263.55" cy="1499.89" rx="145.058" ry="194.958" transform="rotate(-29.0908 1263.55 1499.89)" fill="#3F84D9" fill-opacity="0.45098"/>
<path d="M1389.87 1429.61C1416 1476.57 1425.48 1526.95 1419.71 1570.42C1413.94 1613.9 1392.92 1650.44 1358.09 1669.82C1323.26 1689.2 1281.13 1687.79 1241.14 1669.77C1201.16 1651.75 1163.35 1617.13 1137.22 1570.17C1111.1 1523.21 1101.61 1472.84 1107.39 1429.36C1113.16 1385.88 1134.17 1349.34 1169 1329.96C1203.84 1310.58 1245.96 1311.99 1285.95 1330.01C1325.93 1348.03 1363.74 1382.65 1389.87 1429.61Z" stroke="url(#paint23_linear_4_186)" stroke-opacity="0.5"/>
</g>
<g filter="url(#filter24_f_4_186)">
<ellipse cx="1713.53" cy="2388.6" rx="145.196" ry="285.17" transform="rotate(-29.0908 1713.53 2388.6)" fill="#3F84D9" fill-opacity="0.45098"/>
<path d="M1839.97 2318.25C1878.23 2387.01 1898.66 2457.14 1900.79 2514.91C1902.91 2572.72 1886.72 2618.01 1851.93 2637.36C1817.15 2656.72 1770.13 2646.6 1722.13 2614.31C1674.16 2582.04 1625.34 2527.71 1587.08 2458.95C1548.83 2390.19 1528.4 2320.07 1526.27 2262.29C1524.14 2204.49 1540.34 2159.2 1575.12 2139.84C1609.91 2120.49 1656.93 2130.61 1704.93 2162.89C1752.9 2195.16 1801.71 2249.49 1839.97 2318.25Z" stroke="url(#paint24_linear_4_186)" stroke-opacity="0.5"/>
</g>
<g filter="url(#filter25_f_4_186)">
<ellipse cx="528.77" cy="2130.65" rx="119.091" ry="240.032" transform="rotate(-29.0908 528.77 2130.65)" fill="#3F84D9" fill-opacity="0.45098"/>
<path d="M632.4 2073C664.597 2130.86 682.096 2189.71 684.378 2238.05C686.662 2286.43 673.71 2324.12 645.229 2339.97C616.748 2355.81 577.891 2346.95 537.987 2319.5C498.112 2292.07 457.336 2246.18 425.139 2188.31C392.942 2130.44 375.443 2071.6 373.161 2023.26C370.878 1974.88 383.83 1937.18 412.311 1921.34C440.792 1905.49 479.648 1914.36 519.552 1941.81C559.428 1969.23 600.203 2015.13 632.4 2073Z" stroke="url(#paint25_linear_4_186)" stroke-opacity="0.5"/>
</g>
<g filter="url(#filter26_f_4_186)">
<ellipse cx="181.918" cy="1516.79" rx="84.9112" ry="181.755" transform="rotate(40.0285 181.918 1516.79)" fill="#3F84D9" fill-opacity="0.45098"/>
<path d="M246.554 1571.08C214.309 1609.47 177.863 1638.1 145.022 1653.36C112.141 1668.65 83.0577 1670.46 65.3402 1655.58C47.6227 1640.7 44.3882 1611.74 53.7654 1576.71C63.1312 1541.73 85.0374 1500.89 117.282 1462.5C149.527 1424.11 185.973 1395.48 218.814 1380.21C251.695 1364.93 280.778 1363.11 298.495 1378C316.213 1392.88 319.447 1421.84 310.07 1456.86C300.704 1491.85 278.798 1532.69 246.554 1571.08Z" stroke="url(#paint26_linear_4_186)" stroke-opacity="0.5"/>
</g>
<g filter="url(#filter27_f_4_186)">
<ellipse cx="182.919" cy="1537.79" rx="18.0315" ry="53.8102" transform="rotate(-29.0908 182.919 1537.79)" fill="#4ECEE7" fill-opacity="0.8"/>
<path d="M198.239 1529.27C205.445 1542.22 210.198 1554.9 212.069 1564.93C213.005 1569.95 213.214 1574.27 212.665 1577.62C212.116 1580.98 210.824 1583.27 208.838 1584.37C206.853 1585.48 204.225 1585.37 201.084 1584.07C197.948 1582.77 194.384 1580.31 190.614 1576.87C183.078 1569.99 174.805 1559.26 167.599 1546.31C160.394 1533.36 155.64 1520.68 153.769 1510.65C152.834 1505.63 152.625 1501.3 153.173 1497.96C153.722 1494.6 155.015 1492.31 157 1491.2C158.985 1490.1 161.613 1490.21 164.755 1491.51C167.89 1492.81 171.454 1495.27 175.224 1498.71C182.761 1505.59 191.034 1516.31 198.239 1529.27Z" stroke="url(#paint27_linear_4_186)" stroke-opacity="0.5"/>
</g>
<g filter="url(#filter28_f_4_186)">
<ellipse cx="1221.92" cy="1575.79" rx="18.0315" ry="53.8102" transform="rotate(-29.0908 1221.92 1575.79)" fill="#4ECEE7" fill-opacity="0.8"/>
<path d="M1237.24 1567.27C1244.44 1580.22 1249.2 1592.9 1251.07 1602.93C1252 1607.95 1252.21 1612.27 1251.67 1615.62C1251.12 1618.98 1249.82 1621.27 1247.84 1622.37C1245.85 1623.48 1243.23 1623.37 1240.08 1622.07C1236.95 1620.77 1233.38 1618.31 1229.61 1614.87C1222.08 1607.99 1213.8 1597.26 1206.6 1584.31C1199.39 1571.36 1194.64 1558.68 1192.77 1548.65C1191.83 1543.63 1191.62 1539.3 1192.17 1535.96C1192.72 1532.6 1194.01 1530.31 1196 1529.2C1197.99 1528.1 1200.61 1528.21 1203.75 1529.51C1206.89 1530.81 1210.45 1533.27 1214.22 1536.71C1221.76 1543.59 1230.03 1554.31 1237.24 1567.27Z" stroke="url(#paint28_linear_4_186)" stroke-opacity="0.5"/>
</g>
<g filter="url(#filter29_f_4_186)">
<ellipse cx="1350.92" cy="2291.79" rx="18.0315" ry="53.8102" transform="rotate(-29.0908 1350.92 2291.79)" fill="#4ECEE7" fill-opacity="0.8"/>
<path d="M1366.24 2283.27C1373.44 2296.22 1378.2 2308.9 1380.07 2318.93C1381 2323.95 1381.21 2328.27 1380.67 2331.62C1380.12 2334.98 1378.82 2337.27 1376.84 2338.37C1374.85 2339.48 1372.23 2339.37 1369.08 2338.07C1365.95 2336.77 1362.38 2334.31 1358.61 2330.87C1351.08 2323.99 1342.8 2313.26 1335.6 2300.31C1328.39 2287.36 1323.64 2274.68 1321.77 2264.65C1320.83 2259.63 1320.62 2255.3 1321.17 2251.96C1321.72 2248.6 1323.01 2246.31 1325 2245.2C1326.99 2244.1 1329.61 2244.21 1332.75 2245.51C1335.89 2246.81 1339.45 2249.27 1343.22 2252.71C1350.76 2259.59 1359.03 2270.31 1366.24 2283.27Z" stroke="url(#paint29_linear_4_186)" stroke-opacity="0.5"/>
</g>
<g filter="url(#filter30_f_4_186)">
<ellipse cx="1595.92" cy="1547.79" rx="18.0315" ry="53.8102" transform="rotate(-29.0908 1595.92 1547.79)" fill="#4ECEE7" fill-opacity="0.8"/>
<path d="M1611.24 1539.27C1618.44 1552.22 1623.2 1564.9 1625.07 1574.93C1626 1579.95 1626.21 1584.27 1625.67 1587.62C1625.12 1590.98 1623.82 1593.27 1621.84 1594.37C1619.85 1595.48 1617.23 1595.37 1614.08 1594.07C1610.95 1592.77 1607.38 1590.31 1603.61 1586.87C1596.08 1579.99 1587.8 1569.26 1580.6 1556.31C1573.39 1543.36 1568.64 1530.68 1566.77 1520.65C1565.83 1515.63 1565.62 1511.3 1566.17 1507.96C1566.72 1504.6 1568.01 1502.31 1570 1501.2C1571.99 1500.1 1574.61 1500.21 1577.75 1501.51C1580.89 1502.81 1584.45 1505.27 1588.22 1508.71C1595.76 1515.59 1604.03 1526.31 1611.24 1539.27Z" stroke="url(#paint30_linear_4_186)" stroke-opacity="0.5"/>
</g>
<g filter="url(#filter31_f_4_186)">
<ellipse cx="1518.26" cy="1689.5" rx="8.2532" ry="24.5893" transform="rotate(-29.0908 1518.26 1689.5)" fill="#4ECEE7" fill-opacity="0.8"/>
<path d="M1525.03 1685.73C1528.31 1691.63 1530.47 1697.4 1531.32 1701.95C1531.74 1704.22 1531.83 1706.17 1531.59 1707.66C1531.34 1709.15 1530.77 1710.1 1529.97 1710.55C1529.16 1711 1528.06 1710.98 1526.66 1710.4C1525.26 1709.82 1523.66 1708.72 1521.95 1707.16C1518.53 1704.04 1514.76 1699.17 1511.48 1693.27C1508.2 1687.37 1506.04 1681.6 1505.2 1677.05C1504.77 1674.78 1504.68 1672.83 1504.93 1671.34C1505.17 1669.85 1505.74 1668.9 1506.54 1668.45C1507.35 1668 1508.46 1668.02 1509.86 1668.6C1511.25 1669.18 1512.85 1670.28 1514.57 1671.84C1517.99 1674.96 1521.75 1679.83 1525.03 1685.73Z" stroke="url(#paint31_linear_4_186)" stroke-opacity="0.5"/>
</g>
<g filter="url(#filter32_f_4_186)">
<ellipse cx="1542.17" cy="1688.5" rx="8.2532" ry="24.5893" transform="rotate(-29.0908 1542.17 1688.5)" fill="#4ECEE7" fill-opacity="0.8"/>
<path d="M1548.94 1684.73C1552.22 1690.63 1554.38 1696.4 1555.23 1700.95C1555.65 1703.22 1555.74 1705.17 1555.5 1706.66C1555.25 1708.15 1554.69 1709.1 1553.88 1709.55C1553.07 1710 1551.97 1709.98 1550.57 1709.4C1549.17 1708.82 1547.57 1707.72 1545.86 1706.16C1542.44 1703.04 1538.67 1698.17 1535.39 1692.27C1532.11 1686.37 1529.95 1680.6 1529.11 1676.05C1528.68 1673.78 1528.59 1671.83 1528.84 1670.34C1529.08 1668.85 1529.65 1667.9 1530.46 1667.45C1531.26 1667 1532.37 1667.02 1533.77 1667.6C1535.16 1668.18 1536.77 1669.28 1538.48 1670.84C1541.9 1673.96 1545.66 1678.83 1548.94 1684.73Z" stroke="url(#paint32_linear_4_186)" stroke-opacity="0.5"/>
</g>
<g filter="url(#filter33_f_4_186)">
<ellipse cx="625.159" cy="1928.59" rx="13.9045" ry="42.5356" transform="rotate(6.79738 625.159 1928.59)" fill="#4ECEE7" fill-opacity="0.8"/>
<path d="M638.469 1930.18C637.083 1941.8 634.29 1952.12 630.908 1959.41C629.216 1963.06 627.389 1965.91 625.537 1967.8C623.68 1969.69 621.868 1970.53 620.183 1970.33C618.499 1970.13 616.936 1968.88 615.575 1966.61C614.218 1964.34 613.114 1961.14 612.326 1957.2C610.752 1949.32 610.463 1938.63 611.849 1927C613.234 1915.38 616.027 1905.06 619.409 1897.77C621.101 1894.13 622.929 1891.27 624.78 1889.38C626.637 1887.49 628.449 1886.65 630.134 1886.85C631.819 1887.05 633.382 1888.3 634.743 1890.57C636.099 1892.84 637.203 1896.05 637.991 1899.99C639.566 1907.86 639.855 1918.55 638.469 1930.18Z" stroke="url(#paint33_linear_4_186)" stroke-opacity="0.5"/>
</g>
<g filter="url(#filter34_f_4_186)">
<ellipse cx="290.238" cy="3561.57" rx="144" ry="591.128" transform="rotate(-29.0908 290.238 3561.57)" fill="#4ECEE7" fill-opacity="0.501961"/>
<path d="M415.635 3491.8C494.986 3634.42 552.734 3771.36 581.959 3877.46C596.573 3930.51 604.046 3975.83 603.536 4010.27C603.025 4044.76 594.517 4068.17 577.398 4077.69C560.279 4087.21 535.909 4082.11 506.332 4064.36C476.793 4046.63 442.227 4016.39 404.851 3976C330.104 3895.23 244.191 3773.96 164.84 3631.34C85.4895 3488.72 27.7414 3351.78 -1.4834 3245.68C-16.0969 3192.63 -23.5707 3147.31 -23.0604 3112.86C-22.5496 3078.37 -14.0411 3054.97 3.07759 3045.45C20.1963 3035.92 44.5665 3041.03 74.1432 3058.78C103.683 3076.51 138.248 3106.75 175.624 3147.14C250.372 3227.91 336.285 3349.18 415.635 3491.8Z" stroke="url(#paint34_linear_4_186)" stroke-opacity="0.5"/>
</g>
<g filter="url(#filter35_f_4_186)">
<ellipse cx="475.3" cy="3053.42" rx="7.9884" ry="31.5091" transform="rotate(-29.0908 475.3 3053.42)" fill="#4ECEE7" fill-opacity="0.8"/>
<path d="M481.844 3049.78C486.06 3057.36 489.09 3064.63 490.586 3070.27C491.334 3073.09 491.691 3075.47 491.633 3077.26C491.574 3079.09 491.094 3080.12 490.377 3080.52C489.66 3080.91 488.53 3080.78 486.948 3079.87C485.398 3078.97 483.563 3077.41 481.56 3075.29C477.561 3071.05 472.973 3064.64 468.756 3057.06C464.54 3049.48 461.51 3042.2 460.015 3036.57C459.266 3033.75 458.909 3031.36 458.967 3029.58C459.026 3027.75 459.507 3026.72 460.224 3026.32C460.941 3025.92 462.07 3026.06 463.652 3026.97C465.202 3027.86 467.037 3029.42 469.04 3031.54C473.04 3035.79 477.628 3042.2 481.844 3049.78Z" stroke="url(#paint35_linear_4_186)" stroke-opacity="0.5"/>
</g>
<g filter="url(#filter36_f_4_186)">
<ellipse cx="807.546" cy="2935.89" rx="145.058" ry="194.958" transform="rotate(-29.0908 807.546 2935.89)" fill="#4ECEE7" fill-opacity="0.501961"/>
<path d="M933.868 2865.61C959.996 2912.57 969.477 2962.94 963.707 3006.42C957.937 3049.9 936.924 3086.44 902.091 3105.82C867.257 3125.2 825.129 3123.79 785.145 3105.77C745.16 3087.75 707.352 3053.13 681.224 3006.17C655.097 2959.21 645.615 2908.84 651.385 2865.36C657.155 2821.88 678.168 2785.34 713.002 2765.96C747.835 2746.58 789.963 2747.99 829.948 2766.01C869.932 2784.03 907.74 2818.65 933.868 2865.61Z" stroke="url(#paint36_linear_4_186)" stroke-opacity="0.5"/>
</g>
<g filter="url(#filter37_f_4_186)">
<ellipse cx="1010.55" cy="2952.89" rx="145.058" ry="194.958" transform="rotate(-29.0908 1010.55 2952.89)" fill="#4ECEE7" fill-opacity="0.501961"/>
<path d="M1136.87 2882.61C1163 2929.57 1172.48 2979.94 1166.71 3023.42C1160.94 3066.9 1139.92 3103.44 1105.09 3122.82C1070.26 3142.2 1028.13 3140.79 988.145 3122.77C948.16 3104.75 910.352 3070.13 884.224 3023.17C858.097 2976.21 848.615 2925.84 854.385 2882.36C860.155 2838.88 881.168 2802.34 916.002 2782.96C950.835 2763.58 992.963 2764.99 1032.95 2783.01C1072.93 2801.03 1110.74 2835.65 1136.87 2882.61Z" stroke="url(#paint37_linear_4_186)" stroke-opacity="0.5"/>
</g>
<g filter="url(#filter38_f_4_186)">
<ellipse cx="1005.55" cy="3683.89" rx="145.058" ry="194.958" transform="rotate(-29.0908 1005.55 3683.89)" fill="#4ECEE7" fill-opacity="0.501961"/>
<path d="M1131.87 3613.61C1158 3660.57 1167.48 3710.94 1161.71 3754.42C1155.94 3797.9 1134.92 3834.44 1100.09 3853.82C1065.26 3873.2 1023.13 3871.79 983.145 3853.77C943.16 3835.75 905.352 3801.13 879.224 3754.17C853.097 3707.21 843.615 3656.84 849.385 3613.36C855.155 3569.88 876.168 3533.34 911.002 3513.96C945.835 3494.58 987.963 3495.99 1027.95 3514.01C1067.93 3532.03 1105.74 3566.65 1131.87 3613.61Z" stroke="url(#paint38_linear_4_186)" stroke-opacity="0.5"/>
</g>
<g filter="url(#filter39_f_4_186)">
<ellipse cx="1098.55" cy="3709.89" rx="145.058" ry="194.958" transform="rotate(-29.0908 1098.55 3709.89)" fill="#4ECEE7" fill-opacity="0.501961"/>
<path d="M1224.87 3639.61C1251 3686.57 1260.48 3736.94 1254.71 3780.42C1248.94 3823.9 1227.92 3860.44 1193.09 3879.82C1158.26 3899.2 1116.13 3897.79 1076.14 3879.77C1036.16 3861.75 998.352 3827.13 972.224 3780.17C946.097 3733.21 936.615 3682.84 942.385 3639.36C948.155 3595.88 969.168 3559.34 1004 3539.96C1038.84 3520.58 1080.96 3521.99 1120.95 3540.01C1160.93 3558.03 1198.74 3592.65 1224.87 3639.61Z" stroke="url(#paint39_linear_4_186)" stroke-opacity="0.5"/>
</g>
<g filter="url(#filter40_f_4_186)">
<ellipse cx="1263.55" cy="2935.89" rx="145.058" ry="194.958" transform="rotate(-29.0908 1263.55 2935.89)" fill="#3F84D9" fill-opacity="0.45098"/>
<path d="M1389.87 2865.61C1416 2912.57 1425.48 2962.94 1419.71 3006.42C1413.94 3049.9 1392.92 3086.44 1358.09 3105.82C1323.26 3125.2 1281.13 3123.79 1241.14 3105.77C1201.16 3087.75 1163.35 3053.13 1137.22 3006.17C1111.1 2959.21 1101.61 2908.84 1107.39 2865.36C1113.16 2821.88 1134.17 2785.34 1169 2765.96C1203.84 2746.58 1245.96 2747.99 1285.95 2766.01C1325.93 2784.03 1363.74 2818.65 1389.87 2865.61Z" stroke="url(#paint40_linear_4_186)" stroke-opacity="0.5"/>
</g>
<g filter="url(#filter41_f_4_186)">
<ellipse cx="1713.53" cy="3824.6" rx="145.196" ry="285.17" transform="rotate(-29.0908 1713.53 3824.6)" fill="#3F84D9" fill-opacity="0.45098"/>
<path d="M1839.97 3754.25C1878.23 3823.01 1898.66 3893.13 1900.79 3950.91C1902.91 4008.72 1886.72 4054.01 1851.93 4073.36C1817.15 4092.72 1770.13 4082.6 1722.13 4050.31C1674.16 4018.04 1625.34 3963.71 1587.08 3894.95C1548.83 3826.19 1528.4 3756.07 1526.27 3698.29C1524.14 3640.49 1540.34 3595.2 1575.12 3575.84C1609.91 3556.49 1656.93 3566.61 1704.93 3598.89C1752.9 3631.16 1801.71 3685.49 1839.97 3754.25Z" stroke="url(#paint41_linear_4_186)" stroke-opacity="0.5"/>
</g>
<g filter="url(#filter42_f_4_186)">
<ellipse cx="528.77" cy="3566.65" rx="119.091" ry="240.032" transform="rotate(-29.0908 528.77 3566.65)" fill="#3F84D9" fill-opacity="0.45098"/>
<path d="M632.4 3509C664.597 3566.86 682.096 3625.71 684.378 3674.05C686.662 3722.43 673.71 3760.12 645.229 3775.97C616.748 3791.81 577.891 3782.95 537.987 3755.5C498.112 3728.07 457.336 3682.18 425.139 3624.31C392.942 3566.44 375.443 3507.6 373.161 3459.26C370.878 3410.88 383.83 3373.18 412.311 3357.34C440.792 3341.49 479.648 3350.36 519.552 3377.81C559.428 3405.23 600.203 3451.13 632.4 3509Z" stroke="url(#paint42_linear_4_186)" stroke-opacity="0.5"/>
</g>
<g filter="url(#filter43_f_4_186)">
<ellipse cx="181.918" cy="2952.79" rx="84.9112" ry="181.755" transform="rotate(40.0285 181.918 2952.79)" fill="#3F84D9" fill-opacity="0.45098"/>
<path d="M246.554 3007.08C214.309 3045.47 177.863 3074.1 145.022 3089.36C112.141 3104.65 83.0577 3106.46 65.3402 3091.58C47.6227 3076.7 44.3882 3047.74 53.7654 3012.71C63.1312 2977.73 85.0374 2936.89 117.282 2898.5C149.527 2860.11 185.973 2831.48 218.814 2816.21C251.695 2800.93 280.778 2799.11 298.495 2814C316.213 2828.88 319.447 2857.84 310.07 2892.86C300.704 2927.85 278.798 2968.69 246.554 3007.08Z" stroke="url(#paint43_linear_4_186)" stroke-opacity="0.5"/>
</g>
<g filter="url(#filter44_f_4_186)">
<ellipse cx="182.919" cy="2973.79" rx="18.0315" ry="53.8102" transform="rotate(-29.0908 182.919 2973.79)" fill="#4ECEE7" fill-opacity="0.8"/>
<path d="M198.239 2965.26C205.445 2978.22 210.198 2990.9 212.069 3000.93C213.005 3005.95 213.214 3010.27 212.665 3013.62C212.116 3016.98 210.824 3019.27 208.838 3020.37C206.853 3021.48 204.225 3021.37 201.084 3020.07C197.948 3018.77 194.384 3016.31 190.614 3012.87C183.078 3005.99 174.805 2995.26 167.599 2982.31C160.394 2969.36 155.64 2956.68 153.769 2946.65C152.834 2941.63 152.625 2937.3 153.173 2933.96C153.722 2930.6 155.015 2928.31 157 2927.2C158.985 2926.1 161.613 2926.21 164.755 2927.51C167.89 2928.81 171.454 2931.27 175.224 2934.71C182.761 2941.59 191.034 2952.31 198.239 2965.26Z" stroke="url(#paint44_linear_4_186)" stroke-opacity="0.5"/>
</g>
<g filter="url(#filter45_f_4_186)">
<ellipse cx="1221.92" cy="3011.79" rx="18.0315" ry="53.8102" transform="rotate(-29.0908 1221.92 3011.79)" fill="#4ECEE7" fill-opacity="0.8"/>
<path d="M1237.24 3003.26C1244.44 3016.22 1249.2 3028.9 1251.07 3038.93C1252 3043.95 1252.21 3048.27 1251.67 3051.62C1251.12 3054.98 1249.82 3057.27 1247.84 3058.37C1245.85 3059.48 1243.23 3059.37 1240.08 3058.07C1236.95 3056.77 1233.38 3054.31 1229.61 3050.87C1222.08 3043.99 1213.8 3033.26 1206.6 3020.31C1199.39 3007.36 1194.64 2994.68 1192.77 2984.65C1191.83 2979.63 1191.62 2975.3 1192.17 2971.96C1192.72 2968.6 1194.01 2966.31 1196 2965.2C1197.99 2964.1 1200.61 2964.21 1203.75 2965.51C1206.89 2966.81 1210.45 2969.27 1214.22 2972.71C1221.76 2979.59 1230.03 2990.31 1237.24 3003.26Z" stroke="url(#paint45_linear_4_186)" stroke-opacity="0.5"/>
</g>
<g filter="url(#filter46_f_4_186)">
<ellipse cx="1350.92" cy="3727.79" rx="18.0315" ry="53.8102" transform="rotate(-29.0908 1350.92 3727.79)" fill="#4ECEE7" fill-opacity="0.8"/>
<path d="M1366.24 3719.27C1373.44 3732.22 1378.2 3744.9 1380.07 3754.93C1381 3759.95 1381.21 3764.27 1380.67 3767.62C1380.12 3770.98 1378.82 3773.27 1376.84 3774.37C1374.85 3775.48 1372.23 3775.37 1369.08 3774.07C1365.95 3772.77 1362.38 3770.31 1358.61 3766.87C1351.08 3759.99 1342.8 3749.26 1335.6 3736.31C1328.39 3723.36 1323.64 3710.68 1321.77 3700.65C1320.83 3695.63 1320.62 3691.3 1321.17 3687.96C1321.72 3684.6 1323.01 3682.31 1325 3681.2C1326.99 3680.1 1329.61 3680.21 1332.75 3681.51C1335.89 3682.81 1339.45 3685.27 1343.22 3688.71C1350.76 3695.59 1359.03 3706.31 1366.24 3719.27Z" stroke="url(#paint46_linear_4_186)" stroke-opacity="0.5"/>
</g>
<g filter="url(#filter47_f_4_186)">
<ellipse cx="1595.92" cy="2983.79" rx="18.0315" ry="53.8102" transform="rotate(-29.0908 1595.92 2983.79)" fill="#4ECEE7" fill-opacity="0.8"/>
<path d="M1611.24 2975.26C1618.44 2988.22 1623.2 3000.9 1625.07 3010.93C1626 3015.95 1626.21 3020.27 1625.67 3023.62C1625.12 3026.98 1623.82 3029.27 1621.84 3030.37C1619.85 3031.48 1617.23 3031.37 1614.08 3030.07C1610.95 3028.77 1607.38 3026.31 1603.61 3022.87C1596.08 3015.99 1587.8 3005.26 1580.6 2992.31C1573.39 2979.36 1568.64 2966.68 1566.77 2956.65C1565.83 2951.63 1565.62 2947.3 1566.17 2943.96C1566.72 2940.6 1568.01 2938.31 1570 2937.2C1571.99 2936.1 1574.61 2936.21 1577.75 2937.51C1580.89 2938.81 1584.45 2941.27 1588.22 2944.71C1595.76 2951.59 1604.03 2962.31 1611.24 2975.26Z" stroke="url(#paint47_linear_4_186)" stroke-opacity="0.5"/>
</g>
<g filter="url(#filter48_f_4_186)">
<ellipse cx="1518.26" cy="3125.5" rx="8.2532" ry="24.5893" transform="rotate(-29.0908 1518.26 3125.5)" fill="#4ECEE7" fill-opacity="0.8"/>
<path d="M1525.03 3121.73C1528.31 3127.63 1530.47 3133.4 1531.32 3137.95C1531.74 3140.22 1531.83 3142.17 1531.59 3143.66C1531.34 3145.15 1530.77 3146.1 1529.97 3146.55C1529.16 3147 1528.06 3146.98 1526.66 3146.4C1525.26 3145.82 1523.66 3144.72 1521.95 3143.16C1518.53 3140.04 1514.76 3135.17 1511.48 3129.27C1508.2 3123.37 1506.04 3117.6 1505.2 3113.05C1504.77 3110.78 1504.68 3108.83 1504.93 3107.34C1505.17 3105.85 1505.74 3104.9 1506.54 3104.45C1507.35 3104 1508.46 3104.02 1509.86 3104.6C1511.25 3105.18 1512.85 3106.28 1514.57 3107.84C1517.99 3110.96 1521.75 3115.83 1525.03 3121.73Z" stroke="url(#paint48_linear_4_186)" stroke-opacity="0.5"/>
</g>
<g filter="url(#filter49_f_4_186)">
<ellipse cx="1542.17" cy="3124.5" rx="8.2532" ry="24.5893" transform="rotate(-29.0908 1542.17 3124.5)" fill="#4ECEE7" fill-opacity="0.8"/>
<path d="M1548.94 3120.73C1552.22 3126.63 1554.38 3132.4 1555.23 3136.95C1555.65 3139.22 1555.74 3141.17 1555.5 3142.66C1555.25 3144.15 1554.69 3145.1 1553.88 3145.55C1553.07 3146 1551.97 3145.98 1550.57 3145.4C1549.17 3144.82 1547.57 3143.72 1545.86 3142.16C1542.44 3139.04 1538.67 3134.17 1535.39 3128.27C1532.11 3122.37 1529.95 3116.6 1529.11 3112.05C1528.68 3109.78 1528.59 3107.83 1528.84 3106.34C1529.08 3104.85 1529.65 3103.9 1530.46 3103.45C1531.26 3103 1532.37 3103.02 1533.77 3103.6C1535.16 3104.18 1536.77 3105.28 1538.48 3106.84C1541.9 3109.96 1545.66 3114.83 1548.94 3120.73Z" stroke="url(#paint49_linear_4_186)" stroke-opacity="0.5"/>
</g>
<g filter="url(#filter50_f_4_186)">
<ellipse cx="625.159" cy="3364.59" rx="13.9045" ry="42.5356" transform="rotate(6.79738 625.159 3364.59)" fill="#4ECEE7" fill-opacity="0.8"/>
<path d="M638.469 3366.18C637.083 3377.8 634.29 3388.12 630.908 3395.41C629.216 3399.06 627.389 3401.91 625.537 3403.8C623.68 3405.69 621.868 3406.53 620.183 3406.33C618.499 3406.13 616.936 3404.88 615.575 3402.61C614.218 3400.34 613.114 3397.14 612.326 3393.2C610.752 3385.32 610.463 3374.63 611.849 3363C613.234 3351.38 616.027 3341.06 619.409 3333.77C621.101 3330.13 622.929 3327.27 624.78 3325.38C626.637 3323.49 628.449 3322.65 630.134 3322.85C631.819 3323.05 633.382 3324.3 634.743 3326.57C636.099 3328.84 637.203 3332.05 637.991 3335.99C639.566 3343.86 639.855 3354.55 638.469 3366.18Z" stroke="url(#paint50_linear_4_186)" stroke-opacity="0.5"/>
</g>
<g filter="url(#filter51_f_4_186)">
<ellipse cx="290.238" cy="5009.57" rx="144" ry="591.128" transform="rotate(-29.0908 290.238 5009.57)" fill="#4ECEE7" fill-opacity="0.501961"/>
<path d="M415.635 4939.8C494.986 5082.42 552.734 5219.36 581.959 5325.46C596.573 5378.51 604.046 5423.83 603.536 5458.27C603.025 5492.77 594.517 5516.17 577.398 5525.69C560.279 5535.22 535.909 5530.11 506.332 5512.36C476.793 5494.63 442.227 5464.39 404.851 5424C330.104 5343.23 244.191 5221.96 164.84 5079.34C85.4895 4936.72 27.7414 4799.78 -1.4834 4693.68C-16.0969 4640.63 -23.5707 4595.31 -23.0604 4560.86C-22.5496 4526.37 -14.0411 4502.97 3.07759 4493.45C20.1963 4483.92 44.5665 4489.03 74.1432 4506.78C103.683 4524.51 138.248 4554.75 175.624 4595.14C250.372 4675.91 336.285 4797.18 415.635 4939.8Z" stroke="url(#paint51_linear_4_186)" stroke-opacity="0.5"/>
</g>
<g filter="url(#filter52_f_4_186)">
<ellipse cx="807.546" cy="4383.89" rx="145.058" ry="194.958" transform="rotate(-29.0908 807.546 4383.89)" fill="#4ECEE7" fill-opacity="0.501961"/>
<path d="M933.868 4313.61C959.996 4360.57 969.477 4410.94 963.707 4454.42C957.937 4497.9 936.924 4534.44 902.091 4553.82C867.257 4573.2 825.129 4571.79 785.145 4553.77C745.16 4535.75 707.352 4501.13 681.224 4454.17C655.097 4407.21 645.615 4356.84 651.385 4313.36C657.155 4269.88 678.168 4233.34 713.002 4213.96C747.835 4194.58 789.963 4195.99 829.948 4214.01C869.932 4232.03 907.74 4266.65 933.868 4313.61Z" stroke="url(#paint52_linear_4_186)" stroke-opacity="0.5"/>
</g>
<g filter="url(#filter53_f_4_186)">
<ellipse cx="1010.55" cy="4400.89" rx="145.058" ry="194.958" transform="rotate(-29.0908 1010.55 4400.89)" fill="#4ECEE7" fill-opacity="0.501961"/>
<path d="M1136.87 4330.61C1163 4377.57 1172.48 4427.94 1166.71 4471.42C1160.94 4514.9 1139.92 4551.44 1105.09 4570.82C1070.26 4590.2 1028.13 4588.79 988.145 4570.77C948.16 4552.75 910.352 4518.13 884.224 4471.17C858.097 4424.21 848.615 4373.84 854.385 4330.36C860.155 4286.88 881.168 4250.34 916.002 4230.96C950.835 4211.58 992.963 4212.99 1032.95 4231.01C1072.93 4249.03 1110.74 4283.65 1136.87 4330.61Z" stroke="url(#paint53_linear_4_186)" stroke-opacity="0.5"/>
</g>
<g filter="url(#filter54_f_4_186)">
<ellipse cx="1263.55" cy="4383.89" rx="145.058" ry="194.958" transform="rotate(-29.0908 1263.55 4383.89)" fill="#3F84D9" fill-opacity="0.45098"/>
<path d="M1389.87 4313.61C1416 4360.57 1425.48 4410.94 1419.71 4454.42C1413.94 4497.9 1392.92 4534.44 1358.09 4553.82C1323.26 4573.2 1281.13 4571.79 1241.14 4553.77C1201.16 4535.75 1163.35 4501.13 1137.22 4454.17C1111.1 4407.21 1101.61 4356.84 1107.39 4313.36C1113.16 4269.88 1134.17 4233.34 1169 4213.96C1203.84 4194.58 1245.96 4195.99 1285.95 4214.01C1325.93 4232.03 1363.74 4266.65 1389.87 4313.61Z" stroke="url(#paint54_linear_4_186)" stroke-opacity="0.5"/>
</g>
<g filter="url(#filter55_f_4_186)">
<ellipse cx="181.918" cy="4400.79" rx="84.9112" ry="181.755" transform="rotate(40.0285 181.918 4400.79)" fill="#3F84D9" fill-opacity="0.45098"/>
<path d="M246.554 4455.08C214.309 4493.47 177.863 4522.1 145.022 4537.36C112.141 4552.65 83.0577 4554.46 65.3402 4539.58C47.6227 4524.7 44.3882 4495.74 53.7654 4460.71C63.1312 4425.73 85.0374 4384.89 117.282 4346.5C149.527 4308.11 185.973 4279.48 218.814 4264.21C251.695 4248.93 280.778 4247.11 298.495 4262C316.213 4276.88 319.447 4305.84 310.07 4340.86C300.704 4375.85 278.798 4416.69 246.554 4455.08Z" stroke="url(#paint55_linear_4_186)" stroke-opacity="0.5"/>
</g>
</g>
<defs>
<filter id="filter0_f_4_186" x="-223.585" y="-39.7729" width="1027.65" height="1442.69" filterUnits="userSpaceOnUse" color-interpolation-filters="sRGB">
<feFlood flood-opacity="0" result="BackgroundImageFix"/>
<feBlend mode="normal" in="SourceGraphic" in2="BackgroundImageFix" result="shape"/>
<feGaussianBlur stdDeviation="100" result="effect1_foregroundBlur_4_186"/>
</filter>
<filter id="filter1_f_4_186" x="438.461" y="125.608" width="73.6783" height="95.6206" filterUnits="userSpaceOnUse" color-interpolation-filters="sRGB">
<feFlood flood-opacity="0" result="BackgroundImageFix"/>
<feBlend mode="normal" in="SourceGraphic" in2="BackgroundImageFix" result="shape"/>
<feGaussianBlur stdDeviation="10" result="effect1_foregroundBlur_4_186"/>
</filter>
<filter id="filter2_f_4_186" x="449.257" y="-328.543" width="716.578" height="768.867" filterUnits="userSpaceOnUse" color-interpolation-filters="sRGB">
<feFlood flood-opacity="0" result="BackgroundImageFix"/>
<feBlend mode="normal" in="SourceGraphic" in2="BackgroundImageFix" result="shape"/>
<feGaussianBlur stdDeviation="100" result="effect1_foregroundBlur_4_186"/>
</filter>
<filter id="filter3_f_4_186" x="652.257" y="-311.543" width="716.578" height="768.867" filterUnits="userSpaceOnUse" color-interpolation-filters="sRGB">
<feFlood flood-opacity="0" result="BackgroundImageFix"/>
<feBlend mode="normal" in="SourceGraphic" in2="BackgroundImageFix" result="shape"/>
<feGaussianBlur stdDeviation="100" result="effect1_foregroundBlur_4_186"/>
</filter>
<filter id="filter4_f_4_186" x="647.257" y="419.457" width="716.578" height="768.867" filterUnits="userSpaceOnUse" color-interpolation-filters="sRGB">
<feFlood flood-opacity="0" result="BackgroundImageFix"/>
<feBlend mode="normal" in="SourceGraphic" in2="BackgroundImageFix" result="shape"/>
<feGaussianBlur stdDeviation="100" result="effect1_foregroundBlur_4_186"/>
</filter>
<filter id="filter5_f_4_186" x="740.257" y="445.457" width="716.578" height="768.867" filterUnits="userSpaceOnUse" color-interpolation-filters="sRGB">
<feFlood flood-opacity="0" result="BackgroundImageFix"/>
<feBlend mode="normal" in="SourceGraphic" in2="BackgroundImageFix" result="shape"/>
<feGaussianBlur stdDeviation="100" result="effect1_foregroundBlur_4_186"/>
</filter>
<filter id="filter6_f_4_186" x="905.257" y="-328.543" width="716.578" height="768.867" filterUnits="userSpaceOnUse" color-interpolation-filters="sRGB">
<feFlood flood-opacity="0" result="BackgroundImageFix"/>
<feBlend mode="normal" in="SourceGraphic" in2="BackgroundImageFix" result="shape"/>
<feGaussianBlur stdDeviation="100" result="effect1_foregroundBlur_4_186"/>
</filter>
<filter id="filter7_f_4_186" x="1325.59" y="485.534" width="775.884" height="918.137" filterUnits="userSpaceOnUse" color-interpolation-filters="sRGB">
<feFlood flood-opacity="0" result="BackgroundImageFix"/>
<feBlend mode="normal" in="SourceGraphic" in2="BackgroundImageFix" result="shape"/>
<feGaussianBlur stdDeviation="100" result="effect1_foregroundBlur_4_186"/>
</filter>
<filter id="filter8_f_4_186" x="172.405" y="269.001" width="712.729" height="835.304" filterUnits="userSpaceOnUse" color-interpolation-filters="sRGB">
<feFlood flood-opacity="0" result="BackgroundImageFix"/>
<feBlend mode="normal" in="SourceGraphic" in2="BackgroundImageFix" result="shape"/>
<feGaussianBlur stdDeviation="100" result="effect1_foregroundBlur_4_186"/>
</filter>
<filter id="filter9_f_4_186" x="-151.871" y="-276.759" width="667.577" height="699.092" filterUnits="userSpaceOnUse" color-interpolation-filters="sRGB">
<feFlood flood-opacity="0" result="BackgroundImageFix"/>
<feBlend mode="normal" in="SourceGraphic" in2="BackgroundImageFix" result="shape"/>
<feGaussianBlur stdDeviation="100" result="effect1_foregroundBlur_4_186"/>
</filter>
<filter id="filter10_f_4_186" x="132.374" y="25.9479" width="101.091" height="135.682" filterUnits="userSpaceOnUse" color-interpolation-filters="sRGB">
<feFlood flood-opacity="0" result="BackgroundImageFix"/>
<feBlend mode="normal" in="SourceGraphic" in2="BackgroundImageFix" result="shape"/>
<feGaussianBlur stdDeviation="10" result="effect1_foregroundBlur_4_186"/>
</filter>
<filter id="filter11_f_4_186" x="1171.37" y="63.9479" width="101.091" height="135.682" filterUnits="userSpaceOnUse" color-interpolation-filters="sRGB">
<feFlood flood-opacity="0" result="BackgroundImageFix"/>
<feBlend mode="normal" in="SourceGraphic" in2="BackgroundImageFix" result="shape"/>
<feGaussianBlur stdDeviation="10" result="effect1_foregroundBlur_4_186"/>
</filter>
<filter id="filter12_f_4_186" x="1300.37" y="779.948" width="101.091" height="135.682" filterUnits="userSpaceOnUse" color-interpolation-filters="sRGB">
<feFlood flood-opacity="0" result="BackgroundImageFix"/>
<feBlend mode="normal" in="SourceGraphic" in2="BackgroundImageFix" result="shape"/>
<feGaussianBlur stdDeviation="10" result="effect1_foregroundBlur_4_186"/>
</filter>
<filter id="filter13_f_4_186" x="1545.37" y="35.9479" width="101.091" height="135.682" filterUnits="userSpaceOnUse" color-interpolation-filters="sRGB">
<feFlood flood-opacity="0" result="BackgroundImageFix"/>
<feBlend mode="normal" in="SourceGraphic" in2="BackgroundImageFix" result="shape"/>
<feGaussianBlur stdDeviation="10" result="effect1_foregroundBlur_4_186"/>
</filter>
<filter id="filter14_f_4_186" x="1484.29" y="203.637" width="67.9283" height="83.7254" filterUnits="userSpaceOnUse" color-interpolation-filters="sRGB">
<feFlood flood-opacity="0" result="BackgroundImageFix"/>
<feBlend mode="normal" in="SourceGraphic" in2="BackgroundImageFix" result="shape"/>
<feGaussianBlur stdDeviation="10" result="effect1_foregroundBlur_4_186"/>
</filter>
<filter id="filter15_f_4_186" x="1508.2" y="202.637" width="67.9283" height="83.7254" filterUnits="userSpaceOnUse" color-interpolation-filters="sRGB">
<feFlood flood-opacity="0" result="BackgroundImageFix"/>
<feBlend mode="normal" in="SourceGraphic" in2="BackgroundImageFix" result="shape"/>
<feGaussianBlur stdDeviation="10" result="effect1_foregroundBlur_4_186"/>
</filter>
<filter id="filter16_f_4_186" x="590.459" y="422.322" width="69.4" height="124.539" filterUnits="userSpaceOnUse" color-interpolation-filters="sRGB">
<feFlood flood-opacity="0" result="BackgroundImageFix"/>
<feBlend mode="normal" in="SourceGraphic" in2="BackgroundImageFix" result="shape"/>
<feGaussianBlur stdDeviation="10" result="effect1_foregroundBlur_4_186"/>
</filter>
<filter id="filter17_f_4_186" x="-223.585" y="1404.23" width="1027.65" height="1442.68" filterUnits="userSpaceOnUse" color-interpolation-filters="sRGB">
<feFlood flood-opacity="0" result="BackgroundImageFix"/>
<feBlend mode="normal" in="SourceGraphic" in2="BackgroundImageFix" result="shape"/>
<feGaussianBlur stdDeviation="100" result="effect1_foregroundBlur_4_186"/>
</filter>
<filter id="filter18_f_4_186" x="438.461" y="1569.61" width="73.6783" height="95.6207" filterUnits="userSpaceOnUse" color-interpolation-filters="sRGB">
<feFlood flood-opacity="0" result="BackgroundImageFix"/>
<feBlend mode="normal" in="SourceGraphic" in2="BackgroundImageFix" result="shape"/>
<feGaussianBlur stdDeviation="10" result="effect1_foregroundBlur_4_186"/>
</filter>
<filter id="filter19_f_4_186" x="449.257" y="1115.46" width="716.578" height="768.867" filterUnits="userSpaceOnUse" color-interpolation-filters="sRGB">
<feFlood flood-opacity="0" result="BackgroundImageFix"/>
<feBlend mode="normal" in="SourceGraphic" in2="BackgroundImageFix" result="shape"/>
<feGaussianBlur stdDeviation="100" result="effect1_foregroundBlur_4_186"/>
</filter>
<filter id="filter20_f_4_186" x="652.257" y="1132.46" width="716.578" height="768.867" filterUnits="userSpaceOnUse" color-interpolation-filters="sRGB">
<feFlood flood-opacity="0" result="BackgroundImageFix"/>
<feBlend mode="normal" in="SourceGraphic" in2="BackgroundImageFix" result="shape"/>
<feGaussianBlur stdDeviation="100" result="effect1_foregroundBlur_4_186"/>
</filter>
<filter id="filter21_f_4_186" x="647.257" y="1863.46" width="716.578" height="768.867" filterUnits="userSpaceOnUse" color-interpolation-filters="sRGB">
<feFlood flood-opacity="0" result="BackgroundImageFix"/>
<feBlend mode="normal" in="SourceGraphic" in2="BackgroundImageFix" result="shape"/>
<feGaussianBlur stdDeviation="100" result="effect1_foregroundBlur_4_186"/>
</filter>
<filter id="filter22_f_4_186" x="740.257" y="1889.46" width="716.578" height="768.867" filterUnits="userSpaceOnUse" color-interpolation-filters="sRGB">
<feFlood flood-opacity="0" result="BackgroundImageFix"/>
<feBlend mode="normal" in="SourceGraphic" in2="BackgroundImageFix" result="shape"/>
<feGaussianBlur stdDeviation="100" result="effect1_foregroundBlur_4_186"/>
</filter>
<filter id="filter23_f_4_186" x="905.257" y="1115.46" width="716.578" height="768.867" filterUnits="userSpaceOnUse" color-interpolation-filters="sRGB">
<feFlood flood-opacity="0" result="BackgroundImageFix"/>
<feBlend mode="normal" in="SourceGraphic" in2="BackgroundImageFix" result="shape"/>
<feGaussianBlur stdDeviation="100" result="effect1_foregroundBlur_4_186"/>
</filter>
<filter id="filter24_f_4_186" x="1325.59" y="1929.53" width="775.884" height="918.137" filterUnits="userSpaceOnUse" color-interpolation-filters="sRGB">
<feFlood flood-opacity="0" result="BackgroundImageFix"/>
<feBlend mode="normal" in="SourceGraphic" in2="BackgroundImageFix" result="shape"/>
<feGaussianBlur stdDeviation="100" result="effect1_foregroundBlur_4_186"/>
</filter>
<filter id="filter25_f_4_186" x="172.405" y="1713" width="712.729" height="835.304" filterUnits="userSpaceOnUse" color-interpolation-filters="sRGB">
<feFlood flood-opacity="0" result="BackgroundImageFix"/>
<feBlend mode="normal" in="SourceGraphic" in2="BackgroundImageFix" result="shape"/>
<feGaussianBlur stdDeviation="100" result="effect1_foregroundBlur_4_186"/>
</filter>
<filter id="filter26_f_4_186" x="-151.871" y="1167.24" width="667.577" height="699.092" filterUnits="userSpaceOnUse" color-interpolation-filters="sRGB">
<feFlood flood-opacity="0" result="BackgroundImageFix"/>
<feBlend mode="normal" in="SourceGraphic" in2="BackgroundImageFix" result="shape"/>
<feGaussianBlur stdDeviation="100" result="effect1_foregroundBlur_4_186"/>
</filter>
<filter id="filter27_f_4_186" x="132.374" y="1469.95" width="101.091" height="135.682" filterUnits="userSpaceOnUse" color-interpolation-filters="sRGB">
<feFlood flood-opacity="0" result="BackgroundImageFix"/>
<feBlend mode="normal" in="SourceGraphic" in2="BackgroundImageFix" result="shape"/>
<feGaussianBlur stdDeviation="10" result="effect1_foregroundBlur_4_186"/>
</filter>
<filter id="filter28_f_4_186" x="1171.37" y="1507.95" width="101.091" height="135.682" filterUnits="userSpaceOnUse" color-interpolation-filters="sRGB">
<feFlood flood-opacity="0" result="BackgroundImageFix"/>
<feBlend mode="normal" in="SourceGraphic" in2="BackgroundImageFix" result="shape"/>
<feGaussianBlur stdDeviation="10" result="effect1_foregroundBlur_4_186"/>
</filter>
<filter id="filter29_f_4_186" x="1300.37" y="2223.95" width="101.091" height="135.682" filterUnits="userSpaceOnUse" color-interpolation-filters="sRGB">
<feFlood flood-opacity="0" result="BackgroundImageFix"/>
<feBlend mode="normal" in="SourceGraphic" in2="BackgroundImageFix" result="shape"/>
<feGaussianBlur stdDeviation="10" result="effect1_foregroundBlur_4_186"/>
</filter>
<filter id="filter30_f_4_186" x="1545.37" y="1479.95" width="101.091" height="135.682" filterUnits="userSpaceOnUse" color-interpolation-filters="sRGB">
<feFlood flood-opacity="0" result="BackgroundImageFix"/>
<feBlend mode="normal" in="SourceGraphic" in2="BackgroundImageFix" result="shape"/>
<feGaussianBlur stdDeviation="10" result="effect1_foregroundBlur_4_186"/>
</filter>
<filter id="filter31_f_4_186" x="1484.29" y="1647.64" width="67.9283" height="83.7255" filterUnits="userSpaceOnUse" color-interpolation-filters="sRGB">
<feFlood flood-opacity="0" result="BackgroundImageFix"/>
<feBlend mode="normal" in="SourceGraphic" in2="BackgroundImageFix" result="shape"/>
<feGaussianBlur stdDeviation="10" result="effect1_foregroundBlur_4_186"/>
</filter>
<filter id="filter32_f_4_186" x="1508.2" y="1646.64" width="67.9283" height="83.7255" filterUnits="userSpaceOnUse" color-interpolation-filters="sRGB">
<feFlood flood-opacity="0" result="BackgroundImageFix"/>
<feBlend mode="normal" in="SourceGraphic" in2="BackgroundImageFix" result="shape"/>
<feGaussianBlur stdDeviation="10" result="effect1_foregroundBlur_4_186"/>
</filter>
<filter id="filter33_f_4_186" x="590.459" y="1866.32" width="69.4" height="124.539" filterUnits="userSpaceOnUse" color-interpolation-filters="sRGB">
<feFlood flood-opacity="0" result="BackgroundImageFix"/>
<feBlend mode="normal" in="SourceGraphic" in2="BackgroundImageFix" result="shape"/>
<feGaussianBlur stdDeviation="10" result="effect1_foregroundBlur_4_186"/>
</filter>
<filter id="filter34_f_4_186" x="-223.585" y="2840.23" width="1027.65" height="1442.69" filterUnits="userSpaceOnUse" color-interpolation-filters="sRGB">
<feFlood flood-opacity="0" result="BackgroundImageFix"/>
<feBlend mode="normal" in="SourceGraphic" in2="BackgroundImageFix" result="shape"/>
<feGaussianBlur stdDeviation="100" result="effect1_foregroundBlur_4_186"/>
</filter>
<filter id="filter35_f_4_186" x="438.461" y="3005.61" width="73.6783" height="95.6206" filterUnits="userSpaceOnUse" color-interpolation-filters="sRGB">
<feFlood flood-opacity="0" result="BackgroundImageFix"/>
<feBlend mode="normal" in="SourceGraphic" in2="BackgroundImageFix" result="shape"/>
<feGaussianBlur stdDeviation="10" result="effect1_foregroundBlur_4_186"/>
</filter>
<filter id="filter36_f_4_186" x="449.257" y="2551.46" width="716.578" height="768.867" filterUnits="userSpaceOnUse" color-interpolation-filters="sRGB">
<feFlood flood-opacity="0" result="BackgroundImageFix"/>
<feBlend mode="normal" in="SourceGraphic" in2="BackgroundImageFix" result="shape"/>
<feGaussianBlur stdDeviation="100" result="effect1_foregroundBlur_4_186"/>
</filter>
<filter id="filter37_f_4_186" x="652.257" y="2568.46" width="716.578" height="768.867" filterUnits="userSpaceOnUse" color-interpolation-filters="sRGB">
<feFlood flood-opacity="0" result="BackgroundImageFix"/>
<feBlend mode="normal" in="SourceGraphic" in2="BackgroundImageFix" result="shape"/>
<feGaussianBlur stdDeviation="100" result="effect1_foregroundBlur_4_186"/>
</filter>
<filter id="filter38_f_4_186" x="647.257" y="3299.46" width="716.578" height="768.867" filterUnits="userSpaceOnUse" color-interpolation-filters="sRGB">
<feFlood flood-opacity="0" result="BackgroundImageFix"/>
<feBlend mode="normal" in="SourceGraphic" in2="BackgroundImageFix" result="shape"/>
<feGaussianBlur stdDeviation="100" result="effect1_foregroundBlur_4_186"/>
</filter>
<filter id="filter39_f_4_186" x="740.257" y="3325.46" width="716.578" height="768.867" filterUnits="userSpaceOnUse" color-interpolation-filters="sRGB">
<feFlood flood-opacity="0" result="BackgroundImageFix"/>
<feBlend mode="normal" in="SourceGraphic" in2="BackgroundImageFix" result="shape"/>
<feGaussianBlur stdDeviation="100" result="effect1_foregroundBlur_4_186"/>
</filter>
<filter id="filter40_f_4_186" x="905.257" y="2551.46" width="716.578" height="768.867" filterUnits="userSpaceOnUse" color-interpolation-filters="sRGB">
<feFlood flood-opacity="0" result="BackgroundImageFix"/>
<feBlend mode="normal" in="SourceGraphic" in2="BackgroundImageFix" result="shape"/>
<feGaussianBlur stdDeviation="100" result="effect1_foregroundBlur_4_186"/>
</filter>
<filter id="filter41_f_4_186" x="1325.59" y="3365.53" width="775.884" height="918.137" filterUnits="userSpaceOnUse" color-interpolation-filters="sRGB">
<feFlood flood-opacity="0" result="BackgroundImageFix"/>
<feBlend mode="normal" in="SourceGraphic" in2="BackgroundImageFix" result="shape"/>
<feGaussianBlur stdDeviation="100" result="effect1_foregroundBlur_4_186"/>
</filter>
<filter id="filter42_f_4_186" x="172.405" y="3149" width="712.729" height="835.304" filterUnits="userSpaceOnUse" color-interpolation-filters="sRGB">
<feFlood flood-opacity="0" result="BackgroundImageFix"/>
<feBlend mode="normal" in="SourceGraphic" in2="BackgroundImageFix" result="shape"/>
<feGaussianBlur stdDeviation="100" result="effect1_foregroundBlur_4_186"/>
</filter>
<filter id="filter43_f_4_186" x="-151.871" y="2603.24" width="667.577" height="699.092" filterUnits="userSpaceOnUse" color-interpolation-filters="sRGB">
<feFlood flood-opacity="0" result="BackgroundImageFix"/>
<feBlend mode="normal" in="SourceGraphic" in2="BackgroundImageFix" result="shape"/>
<feGaussianBlur stdDeviation="100" result="effect1_foregroundBlur_4_186"/>
</filter>
<filter id="filter44_f_4_186" x="132.374" y="2905.95" width="101.091" height="135.682" filterUnits="userSpaceOnUse" color-interpolation-filters="sRGB">
<feFlood flood-opacity="0" result="BackgroundImageFix"/>
<feBlend mode="normal" in="SourceGraphic" in2="BackgroundImageFix" result="shape"/>
<feGaussianBlur stdDeviation="10" result="effect1_foregroundBlur_4_186"/>
</filter>
<filter id="filter45_f_4_186" x="1171.37" y="2943.95" width="101.091" height="135.682" filterUnits="userSpaceOnUse" color-interpolation-filters="sRGB">
<feFlood flood-opacity="0" result="BackgroundImageFix"/>
<feBlend mode="normal" in="SourceGraphic" in2="BackgroundImageFix" result="shape"/>
<feGaussianBlur stdDeviation="10" result="effect1_foregroundBlur_4_186"/>
</filter>
<filter id="filter46_f_4_186" x="1300.37" y="3659.95" width="101.091" height="135.682" filterUnits="userSpaceOnUse" color-interpolation-filters="sRGB">
<feFlood flood-opacity="0" result="BackgroundImageFix"/>
<feBlend mode="normal" in="SourceGraphic" in2="BackgroundImageFix" result="shape"/>
<feGaussianBlur stdDeviation="10" result="effect1_foregroundBlur_4_186"/>
</filter>
<filter id="filter47_f_4_186" x="1545.37" y="2915.95" width="101.091" height="135.682" filterUnits="userSpaceOnUse" color-interpolation-filters="sRGB">
<feFlood flood-opacity="0" result="BackgroundImageFix"/>
<feBlend mode="normal" in="SourceGraphic" in2="BackgroundImageFix" result="shape"/>
<feGaussianBlur stdDeviation="10" result="effect1_foregroundBlur_4_186"/>
</filter>
<filter id="filter48_f_4_186" x="1484.29" y="3083.64" width="67.9283" height="83.7253" filterUnits="userSpaceOnUse" color-interpolation-filters="sRGB">
<feFlood flood-opacity="0" result="BackgroundImageFix"/>
<feBlend mode="normal" in="SourceGraphic" in2="BackgroundImageFix" result="shape"/>
<feGaussianBlur stdDeviation="10" result="effect1_foregroundBlur_4_186"/>
</filter>
<filter id="filter49_f_4_186" x="1508.2" y="3082.64" width="67.9283" height="83.7253" filterUnits="userSpaceOnUse" color-interpolation-filters="sRGB">
<feFlood flood-opacity="0" result="BackgroundImageFix"/>
<feBlend mode="normal" in="SourceGraphic" in2="BackgroundImageFix" result="shape"/>
<feGaussianBlur stdDeviation="10" result="effect1_foregroundBlur_4_186"/>
</filter>
<filter id="filter50_f_4_186" x="590.459" y="3302.32" width="69.4" height="124.539" filterUnits="userSpaceOnUse" color-interpolation-filters="sRGB">
<feFlood flood-opacity="0" result="BackgroundImageFix"/>
<feBlend mode="normal" in="SourceGraphic" in2="BackgroundImageFix" result="shape"/>
<feGaussianBlur stdDeviation="10" result="effect1_foregroundBlur_4_186"/>
</filter>
<filter id="filter51_f_4_186" x="-223.585" y="4288.23" width="1027.65" height="1442.69" filterUnits="userSpaceOnUse" color-interpolation-filters="sRGB">
<feFlood flood-opacity="0" result="BackgroundImageFix"/>
<feBlend mode="normal" in="SourceGraphic" in2="BackgroundImageFix" result="shape"/>
<feGaussianBlur stdDeviation="100" result="effect1_foregroundBlur_4_186"/>
</filter>
<filter id="filter52_f_4_186" x="449.257" y="3999.46" width="716.578" height="768.867" filterUnits="userSpaceOnUse" color-interpolation-filters="sRGB">
<feFlood flood-opacity="0" result="BackgroundImageFix"/>
<feBlend mode="normal" in="SourceGraphic" in2="BackgroundImageFix" result="shape"/>
<feGaussianBlur stdDeviation="100" result="effect1_foregroundBlur_4_186"/>
</filter>
<filter id="filter53_f_4_186" x="652.257" y="4016.46" width="716.578" height="768.867" filterUnits="userSpaceOnUse" color-interpolation-filters="sRGB">
<feFlood flood-opacity="0" result="BackgroundImageFix"/>
<feBlend mode="normal" in="SourceGraphic" in2="BackgroundImageFix" result="shape"/>
<feGaussianBlur stdDeviation="100" result="effect1_foregroundBlur_4_186"/>
</filter>
<filter id="filter54_f_4_186" x="905.257" y="3999.46" width="716.578" height="768.867" filterUnits="userSpaceOnUse" color-interpolation-filters="sRGB">
<feFlood flood-opacity="0" result="BackgroundImageFix"/>
<feBlend mode="normal" in="SourceGraphic" in2="BackgroundImageFix" result="shape"/>
<feGaussianBlur stdDeviation="100" result="effect1_foregroundBlur_4_186"/>
</filter>
<filter id="filter55_f_4_186" x="-151.871" y="4051.24" width="667.577" height="699.092" filterUnits="userSpaceOnUse" color-interpolation-filters="sRGB">
<feFlood flood-opacity="0" result="BackgroundImageFix"/>
<feBlend mode="normal" in="SourceGraphic" in2="BackgroundImageFix" result="shape"/>
<feGaussianBlur stdDeviation="100" result="effect1_foregroundBlur_4_186"/>
</filter>
<linearGradient id="paint0_linear_4_186" x1="2.83449" y1="165.012" x2="577.641" y2="1198.13" gradientUnits="userSpaceOnUse">
<stop stop-color="#4ECEE7" stop-opacity="0"/>
<stop offset="1" stop-color="#4ECEE7"/>
</linearGradient>
<linearGradient id="paint1_linear_4_186" x1="459.981" y1="145.884" x2="490.62" y2="200.952" gradientUnits="userSpaceOnUse">
<stop stop-color="#4ECEE7" stop-opacity="0"/>
<stop offset="1" stop-color="#4ECEE7"/>
</linearGradient>
<linearGradient id="paint2_linear_4_186" x1="712.759" y1="-114.474" x2="902.334" y2="226.255" gradientUnits="userSpaceOnUse">
<stop stop-color="#4ECEE7" stop-opacity="0"/>
<stop offset="1" stop-color="#4ECEE7"/>
</linearGradient>
<linearGradient id="paint3_linear_4_186" x1="915.759" y1="-97.4738" x2="1105.33" y2="243.255" gradientUnits="userSpaceOnUse">
<stop stop-color="#4ECEE7" stop-opacity="0"/>
<stop offset="1" stop-color="#4ECEE7"/>
</linearGradient>
<linearGradient id="paint4_linear_4_186" x1="910.759" y1="633.526" x2="1100.33" y2="974.255" gradientUnits="userSpaceOnUse">
<stop stop-color="#4ECEE7" stop-opacity="0"/>
<stop offset="1" stop-color="#4ECEE7"/>
</linearGradient>
<linearGradient id="paint5_linear_4_186" x1="1003.76" y1="659.526" x2="1193.33" y2="1000.25" gradientUnits="userSpaceOnUse">
<stop stop-color="#4ECEE7" stop-opacity="0"/>
<stop offset="1" stop-color="#4ECEE7"/>
</linearGradient>
<linearGradient id="paint6_linear_4_186" x1="1168.76" y1="-114.474" x2="1358.33" y2="226.255" gradientUnits="userSpaceOnUse">
<stop stop-color="#4ECEE7" stop-opacity="0"/>
<stop offset="1" stop-color="#4ECEE7"/>
</linearGradient>
<linearGradient id="paint7_linear_4_186" x1="1574.88" y1="695.406" x2="1852.18" y2="1193.8" gradientUnits="userSpaceOnUse">
<stop stop-color="#4ECEE7" stop-opacity="0"/>
<stop offset="1" stop-color="#4ECEE7"/>
</linearGradient>
<linearGradient id="paint8_linear_4_186" x1="412.068" y1="476.901" x2="645.472" y2="896.405" gradientUnits="userSpaceOnUse">
<stop stop-color="#4ECEE7" stop-opacity="0"/>
<stop offset="1" stop-color="#4ECEE7"/>
</linearGradient>
<linearGradient id="paint9_linear_4_186" x1="298.817" y1="-66.3877" x2="65.0186" y2="211.961" gradientUnits="userSpaceOnUse">
<stop stop-color="#4ECEE7" stop-opacity="0"/>
<stop offset="1" stop-color="#4ECEE7"/>
</linearGradient>
<linearGradient id="paint10_linear_4_186" x1="156.757" y1="46.7667" x2="209.081" y2="140.811" gradientUnits="userSpaceOnUse">
<stop stop-color="#4ECEE7" stop-opacity="0"/>
<stop offset="1" stop-color="#4ECEE7"/>
</linearGradient>
<linearGradient id="paint11_linear_4_186" x1="1195.76" y1="84.7667" x2="1248.08" y2="178.811" gradientUnits="userSpaceOnUse">
<stop stop-color="#4ECEE7" stop-opacity="0"/>
<stop offset="1" stop-color="#4ECEE7"/>
</linearGradient>
<linearGradient id="paint12_linear_4_186" x1="1324.76" y1="800.767" x2="1377.08" y2="894.811" gradientUnits="userSpaceOnUse">
<stop stop-color="#4ECEE7" stop-opacity="0"/>
<stop offset="1" stop-color="#4ECEE7"/>
</linearGradient>
<linearGradient id="paint13_linear_4_186" x1="1569.76" y1="56.7667" x2="1622.08" y2="150.811" gradientUnits="userSpaceOnUse">
<stop stop-color="#4ECEE7" stop-opacity="0"/>
<stop offset="1" stop-color="#4ECEE7"/>
</linearGradient>
<linearGradient id="paint14_linear_4_186" x1="1506.3" y1="224.012" x2="1530.21" y2="266.987" gradientUnits="userSpaceOnUse">
<stop stop-color="#4ECEE7" stop-opacity="0"/>
<stop offset="1" stop-color="#4ECEE7"/>
</linearGradient>
<linearGradient id="paint15_linear_4_186" x1="1530.21" y1="223.013" x2="1554.12" y2="265.987" gradientUnits="userSpaceOnUse">
<stop stop-color="#4ECEE7" stop-opacity="0"/>
<stop offset="1" stop-color="#4ECEE7"/>
</linearGradient>
<linearGradient id="paint16_linear_4_186" x1="630.193" y1="442.354" x2="620.124" y2="526.828" gradientUnits="userSpaceOnUse">
<stop stop-color="#4ECEE7" stop-opacity="0"/>
<stop offset="1" stop-color="#4ECEE7"/>
</linearGradient>
<linearGradient id="paint17_linear_4_186" x1="2.83449" y1="1609.01" x2="577.641" y2="2642.13" gradientUnits="userSpaceOnUse">
<stop stop-color="#4ECEE7" stop-opacity="0"/>
<stop offset="1" stop-color="#4ECEE7"/>
</linearGradient>
<linearGradient id="paint18_linear_4_186" x1="459.981" y1="1589.88" x2="490.62" y2="1644.95" gradientUnits="userSpaceOnUse">
<stop stop-color="#4ECEE7" stop-opacity="0"/>
<stop offset="1" stop-color="#4ECEE7"/>
</linearGradient>
<linearGradient id="paint19_linear_4_186" x1="712.759" y1="1329.53" x2="902.334" y2="1670.25" gradientUnits="userSpaceOnUse">
<stop stop-color="#4ECEE7" stop-opacity="0"/>
<stop offset="1" stop-color="#4ECEE7"/>
</linearGradient>
<linearGradient id="paint20_linear_4_186" x1="915.759" y1="1346.53" x2="1105.33" y2="1687.25" gradientUnits="userSpaceOnUse">
<stop stop-color="#4ECEE7" stop-opacity="0"/>
<stop offset="1" stop-color="#4ECEE7"/>
</linearGradient>
<linearGradient id="paint21_linear_4_186" x1="910.759" y1="2077.53" x2="1100.33" y2="2418.25" gradientUnits="userSpaceOnUse">
<stop stop-color="#4ECEE7" stop-opacity="0"/>
<stop offset="1" stop-color="#4ECEE7"/>
</linearGradient>
<linearGradient id="paint22_linear_4_186" x1="1003.76" y1="2103.53" x2="1193.33" y2="2444.25" gradientUnits="userSpaceOnUse">
<stop stop-color="#4ECEE7" stop-opacity="0"/>
<stop offset="1" stop-color="#4ECEE7"/>
</linearGradient>
<linearGradient id="paint23_linear_4_186" x1="1168.76" y1="1329.53" x2="1358.33" y2="1670.25" gradientUnits="userSpaceOnUse">
<stop stop-color="#4ECEE7" stop-opacity="0"/>
<stop offset="1" stop-color="#4ECEE7"/>
</linearGradient>
<linearGradient id="paint24_linear_4_186" x1="1574.88" y1="2139.41" x2="1852.18" y2="2637.8" gradientUnits="userSpaceOnUse">
<stop stop-color="#4ECEE7" stop-opacity="0"/>
<stop offset="1" stop-color="#4ECEE7"/>
</linearGradient>
<linearGradient id="paint25_linear_4_186" x1="412.068" y1="1920.9" x2="645.472" y2="2340.41" gradientUnits="userSpaceOnUse">
<stop stop-color="#4ECEE7" stop-opacity="0"/>
<stop offset="1" stop-color="#4ECEE7"/>
</linearGradient>
<linearGradient id="paint26_linear_4_186" x1="298.817" y1="1377.61" x2="65.0186" y2="1655.96" gradientUnits="userSpaceOnUse">
<stop stop-color="#4ECEE7" stop-opacity="0"/>
<stop offset="1" stop-color="#4ECEE7"/>
</linearGradient>
<linearGradient id="paint27_linear_4_186" x1="156.757" y1="1490.77" x2="209.081" y2="1584.81" gradientUnits="userSpaceOnUse">
<stop stop-color="#4ECEE7" stop-opacity="0"/>
<stop offset="1" stop-color="#4ECEE7"/>
</linearGradient>
<linearGradient id="paint28_linear_4_186" x1="1195.76" y1="1528.77" x2="1248.08" y2="1622.81" gradientUnits="userSpaceOnUse">
<stop stop-color="#4ECEE7" stop-opacity="0"/>
<stop offset="1" stop-color="#4ECEE7"/>
</linearGradient>
<linearGradient id="paint29_linear_4_186" x1="1324.76" y1="2244.77" x2="1377.08" y2="2338.81" gradientUnits="userSpaceOnUse">
<stop stop-color="#4ECEE7" stop-opacity="0"/>
<stop offset="1" stop-color="#4ECEE7"/>
</linearGradient>
<linearGradient id="paint30_linear_4_186" x1="1569.76" y1="1500.77" x2="1622.08" y2="1594.81" gradientUnits="userSpaceOnUse">
<stop stop-color="#4ECEE7" stop-opacity="0"/>
<stop offset="1" stop-color="#4ECEE7"/>
</linearGradient>
<linearGradient id="paint31_linear_4_186" x1="1506.3" y1="1668.01" x2="1530.21" y2="1710.99" gradientUnits="userSpaceOnUse">
<stop stop-color="#4ECEE7" stop-opacity="0"/>
<stop offset="1" stop-color="#4ECEE7"/>
</linearGradient>
<linearGradient id="paint32_linear_4_186" x1="1530.21" y1="1667.01" x2="1554.12" y2="1709.99" gradientUnits="userSpaceOnUse">
<stop stop-color="#4ECEE7" stop-opacity="0"/>
<stop offset="1" stop-color="#4ECEE7"/>
</linearGradient>
<linearGradient id="paint33_linear_4_186" x1="630.193" y1="1886.35" x2="620.124" y2="1970.83" gradientUnits="userSpaceOnUse">
<stop stop-color="#4ECEE7" stop-opacity="0"/>
<stop offset="1" stop-color="#4ECEE7"/>
</linearGradient>
<linearGradient id="paint34_linear_4_186" x1="2.83449" y1="3045.01" x2="577.641" y2="4078.13" gradientUnits="userSpaceOnUse">
<stop stop-color="#4ECEE7" stop-opacity="0"/>
<stop offset="1" stop-color="#4ECEE7"/>
</linearGradient>
<linearGradient id="paint35_linear_4_186" x1="459.981" y1="3025.88" x2="490.62" y2="3080.95" gradientUnits="userSpaceOnUse">
<stop stop-color="#4ECEE7" stop-opacity="0"/>
<stop offset="1" stop-color="#4ECEE7"/>
</linearGradient>
<linearGradient id="paint36_linear_4_186" x1="712.759" y1="2765.53" x2="902.334" y2="3106.25" gradientUnits="userSpaceOnUse">
<stop stop-color="#4ECEE7" stop-opacity="0"/>
<stop offset="1" stop-color="#4ECEE7"/>
</linearGradient>
<linearGradient id="paint37_linear_4_186" x1="915.759" y1="2782.53" x2="1105.33" y2="3123.25" gradientUnits="userSpaceOnUse">
<stop stop-color="#4ECEE7" stop-opacity="0"/>
<stop offset="1" stop-color="#4ECEE7"/>
</linearGradient>
<linearGradient id="paint38_linear_4_186" x1="910.759" y1="3513.53" x2="1100.33" y2="3854.25" gradientUnits="userSpaceOnUse">
<stop stop-color="#4ECEE7" stop-opacity="0"/>
<stop offset="1" stop-color="#4ECEE7"/>
</linearGradient>
<linearGradient id="paint39_linear_4_186" x1="1003.76" y1="3539.53" x2="1193.33" y2="3880.25" gradientUnits="userSpaceOnUse">
<stop stop-color="#4ECEE7" stop-opacity="0"/>
<stop offset="1" stop-color="#4ECEE7"/>
</linearGradient>
<linearGradient id="paint40_linear_4_186" x1="1168.76" y1="2765.53" x2="1358.33" y2="3106.25" gradientUnits="userSpaceOnUse">
<stop stop-color="#4ECEE7" stop-opacity="0"/>
<stop offset="1" stop-color="#4ECEE7"/>
</linearGradient>
<linearGradient id="paint41_linear_4_186" x1="1574.88" y1="3575.41" x2="1852.18" y2="4073.8" gradientUnits="userSpaceOnUse">
<stop stop-color="#4ECEE7" stop-opacity="0"/>
<stop offset="1" stop-color="#4ECEE7"/>
</linearGradient>
<linearGradient id="paint42_linear_4_186" x1="412.068" y1="3356.9" x2="645.472" y2="3776.41" gradientUnits="userSpaceOnUse">
<stop stop-color="#4ECEE7" stop-opacity="0"/>
<stop offset="1" stop-color="#4ECEE7"/>
</linearGradient>
<linearGradient id="paint43_linear_4_186" x1="298.817" y1="2813.61" x2="65.0186" y2="3091.96" gradientUnits="userSpaceOnUse">
<stop stop-color="#4ECEE7" stop-opacity="0"/>
<stop offset="1" stop-color="#4ECEE7"/>
</linearGradient>
<linearGradient id="paint44_linear_4_186" x1="156.757" y1="2926.77" x2="209.081" y2="3020.81" gradientUnits="userSpaceOnUse">
<stop stop-color="#4ECEE7" stop-opacity="0"/>
<stop offset="1" stop-color="#4ECEE7"/>
</linearGradient>
<linearGradient id="paint45_linear_4_186" x1="1195.76" y1="2964.77" x2="1248.08" y2="3058.81" gradientUnits="userSpaceOnUse">
<stop stop-color="#4ECEE7" stop-opacity="0"/>
<stop offset="1" stop-color="#4ECEE7"/>
</linearGradient>
<linearGradient id="paint46_linear_4_186" x1="1324.76" y1="3680.77" x2="1377.08" y2="3774.81" gradientUnits="userSpaceOnUse">
<stop stop-color="#4ECEE7" stop-opacity="0"/>
<stop offset="1" stop-color="#4ECEE7"/>
</linearGradient>
<linearGradient id="paint47_linear_4_186" x1="1569.76" y1="2936.77" x2="1622.08" y2="3030.81" gradientUnits="userSpaceOnUse">
<stop stop-color="#4ECEE7" stop-opacity="0"/>
<stop offset="1" stop-color="#4ECEE7"/>
</linearGradient>
<linearGradient id="paint48_linear_4_186" x1="1506.3" y1="3104.01" x2="1530.21" y2="3146.99" gradientUnits="userSpaceOnUse">
<stop stop-color="#4ECEE7" stop-opacity="0"/>
<stop offset="1" stop-color="#4ECEE7"/>
</linearGradient>
<linearGradient id="paint49_linear_4_186" x1="1530.21" y1="3103.01" x2="1554.12" y2="3145.99" gradientUnits="userSpaceOnUse">
<stop stop-color="#4ECEE7" stop-opacity="0"/>
<stop offset="1" stop-color="#4ECEE7"/>
</linearGradient>
<linearGradient id="paint50_linear_4_186" x1="630.193" y1="3322.35" x2="620.124" y2="3406.83" gradientUnits="userSpaceOnUse">
<stop stop-color="#4ECEE7" stop-opacity="0"/>
<stop offset="1" stop-color="#4ECEE7"/>
</linearGradient>
<linearGradient id="paint51_linear_4_186" x1="2.83449" y1="4493.01" x2="577.641" y2="5526.13" gradientUnits="userSpaceOnUse">
<stop stop-color="#4ECEE7" stop-opacity="0"/>
<stop offset="1" stop-color="#4ECEE7"/>
</linearGradient>
<linearGradient id="paint52_linear_4_186" x1="712.759" y1="4213.53" x2="902.334" y2="4554.25" gradientUnits="userSpaceOnUse">
<stop stop-color="#4ECEE7" stop-opacity="0"/>
<stop offset="1" stop-color="#4ECEE7"/>
</linearGradient>
<linearGradient id="paint53_linear_4_186" x1="915.759" y1="4230.53" x2="1105.33" y2="4571.25" gradientUnits="userSpaceOnUse">
<stop stop-color="#4ECEE7" stop-opacity="0"/>
<stop offset="1" stop-color="#4ECEE7"/>
</linearGradient>
<linearGradient id="paint54_linear_4_186" x1="1168.76" y1="4213.53" x2="1358.33" y2="4554.25" gradientUnits="userSpaceOnUse">
<stop stop-color="#4ECEE7" stop-opacity="0"/>
<stop offset="1" stop-color="#4ECEE7"/>
</linearGradient>
<linearGradient id="paint55_linear_4_186" x1="298.817" y1="4261.61" x2="65.0186" y2="4539.96" gradientUnits="userSpaceOnUse">
<stop stop-color="#4ECEE7" stop-opacity="0"/>
<stop offset="1" stop-color="#4ECEE7"/>
</linearGradient>
</defs>
</svg>
