<svg xmlns="http://www.w3.org/2000/svg" xml:space="preserve" width="24px" height="23px" version="1.1" style="fill-rule:evenodd; clip-rule:evenodd"
viewBox="0 0 2.72 2.55"
>
 
  <path fill="#fff" d="M2.08 1.65c0.07,0 0.14,-0.07 0.16,-0.13l0.29 -0.97c0,0 0,-0.01 0,-0.02 0,0 -0.01,0 -0.01,0l-1.83 0c0,0 0,0 -0.01,0 0.01,0.01 0.01,0.02 0.01,0.02l0.29 0.97c0.01,0.06 0.09,0.13 0.15,0.13l0.95 0zm-0.01 0.35c0.15,0 0.28,0.13 0.28,0.28 0,0.14 -0.13,0.27 -0.28,0.27 -0.14,0 -0.27,-0.13 -0.27,-0.27 0,-0.15 0.13,-0.28 0.27,-0.28zm0 0.18c0.06,0 0.1,0.04 0.1,0.1 0,0.05 -0.04,0.09 -0.1,0.09 -0.05,0 -0.09,-0.04 -0.09,-0.09 0,-0.06 0.04,-0.1 0.09,-0.1zm-0.91 -0.18c0.14,0 0.27,0.13 0.27,0.28 0,0.14 -0.13,0.27 -0.27,0.27 -0.15,0 -0.28,-0.13 -0.28,-0.27 0,-0.15 0.13,-0.28 0.28,-0.28zm0 0.18c0.05,0 0.09,0.04 0.09,0.1 0,0.05 -0.04,0.09 -0.09,0.09 -0.06,0 -0.1,-0.04 -0.1,-0.09 0,-0.06 0.04,-0.1 0.1,-0.1zm-1.09 -1.99l0.2 0c0.06,0 0.14,0.06 0.15,0.12l0.09 0.3 0.29 0.97c0.04,0.14 0.19,0.26 0.33,0.26l0.95 0c0.15,0 0.3,-0.12 0.34,-0.26l0.29 -0.97c0.04,-0.15 -0.04,-0.26 -0.19,-0.26l-1.83 0c-0.06,0 -0.06,0 -0.09,-0.09 -0.04,-0.14 -0.19,-0.26 -0.33,-0.26 -0.07,0 -0.13,0 -0.2,0 -0.1,0.01 -0.09,0.19 0,0.19z"/>

</svg>
