<svg xmlns="http://www.w3.org/2000/svg" xml:space="preserve" width="24px" height="24px" version="1.1" style="fill-rule:evenodd; clip-rule:evenodd"
viewBox="0 0 25.65 25.75"
>
  <path fill="#fff" d="M11.45 20.95l2.65 0c1,0 1.81,0.81 1.81,1.81l0 0c0,1 -0.81,1.81 -1.81,1.81l-2.65 0c-1,0 -1.81,-0.81 -1.81,-1.81l0 0c0,-1 0.81,-1.81 1.81,-1.81zm-6.56 -10.33l-2.23 0c-0.81,0 -1.48,0.67 -1.48,1.48l0 3.47c0,0.81 0.67,1.48 1.48,1.48l2.17 0c0.03,0 0.06,-0.03 0.06,-0.06l0 -6.37zm-2.23 -1.18l2.23 0 0 -2.08c0,-4.05 3.31,-7.36 7.36,-7.36l1.15 0c4.05,0 7.36,3.31 7.36,7.36l0 2.08 2.23 0c1.46,0 2.66,1.2 2.66,2.66l0 3.47c0,1.46 -1.2,2.66 -2.66,2.66l-2.17 0c-0.02,0 -0.04,-0 -0.06,-0l0 1.2c0,2.09 -1.66,3.81 -3.73,3.92 -0.27,1.37 -1.49,2.4 -2.93,2.4l-2.65 0c-1.64,0 -2.99,-1.35 -2.99,-2.99l0 0c0,-1.64 1.35,-2.99 2.99,-2.99l2.65 0c1.44,0 2.65,1.03 2.93,2.39 1.42,-0.1 2.55,-1.29 2.55,-2.73l0 -9.99 0 -2.08c0,-3.39 -2.78,-6.18 -6.18,-6.18l-1.15 0c-3.39,0 -6.18,2.78 -6.18,6.18l0 2.08 0 0.27 0 7.28c0,0.68 -0.56,1.24 -1.24,1.24l-2.17 0c-1.46,0 -2.66,-1.2 -2.66,-2.66l0 -3.47c0,-1.46 1.2,-2.66 2.66,-2.66zm18.1 1.18l0 6.4 0.01 -0.01c0.01,0.02 0.03,0.04 0.06,0.04l2.17 0c0.81,0 1.48,-0.67 1.48,-1.48l0 -3.47c0,-0.81 -0.67,-1.48 -1.48,-1.48l-2.23 0z"/>

</svg>
