
<svg xmlns="http://www.w3.org/2000/svg" xml:space="preserve" width="24px" height="24px" version="1.1" style="fill-rule:evenodd; clip-rule:evenodd"
viewBox="0 0 37.77 29.9"
 xmlns:xlink="http://www.w3.org/1999/xlink"
 xmlns:xodm="http://www.corel.com/coreldraw/odm/2003">

   <path fill="#fff" d="M17.31 15.74c0,2.17 -1.41,3.93 -3.15,3.93 -1.74,0 -3.15,-1.76 -3.15,-3.93 0,-2.17 1.41,-3.93 3.15,-3.93 1.74,0 3.15,1.76 3.15,3.93zm-4.37 0c0,0.84 0.55,1.53 1.22,1.53 0.68,0 1.22,-0.68 1.22,-1.53 0,-0.84 -0.55,-1.53 -1.22,-1.53 -0.68,0 -1.22,0.68 -1.22,1.53z"/>
   <path fill="#fff" d="M23.61 19.67c1.74,0 3.15,-1.76 3.15,-3.93 0,-2.17 -1.41,-3.93 -3.15,-3.93 -1.74,0 -3.15,1.76 -3.15,3.93 0,2.17 1.41,3.93 3.15,3.93zm0 -2.41c-0.68,0 -1.22,-0.68 -1.22,-1.53 0,-0.84 0.55,-1.53 1.22,-1.53 0.68,0 1.22,0.68 1.22,1.53 0,0.84 -0.55,1.53 -1.22,1.53z"/>
   <path fill="#fff" d="M15.72 1.32c-0.07,-0.43 -0.32,-0.81 -0.68,-1.05 -0.36,-0.24 -0.81,-0.32 -1.24,-0.22 -3.39,0.81 -5.3,1.49 -8.33,3.34 -0.23,0.14 -0.42,0.34 -0.55,0.57 -1.87,3.35 -3.12,6.23 -3.89,9.33 -0.77,3.09 -1.03,6.32 -1.03,10.32 0,0.42 0.17,0.82 0.46,1.11 1.67,1.67 3.4,2.98 5.39,3.87 2,0.89 4.19,1.32 6.74,1.32 0.68,0 1.28,-0.43 1.49,-1.08l1.06 -3.19c1.18,0.2 2.44,0.33 3.74,0.33 1.3,0 2.56,-0.13 3.74,-0.33l1.06 3.19c0.21,0.64 0.82,1.08 1.49,1.08 2.54,0 4.73,-0.43 6.74,-1.32 2,-0.89 3.72,-2.2 5.39,-3.87 0.3,-0.3 0.46,-0.7 0.46,-1.11 0,-4 -0.27,-7.23 -1.03,-10.32 -0.77,-3.1 -2.01,-5.98 -3.89,-9.33 -0.13,-0.24 -0.32,-0.43 -0.55,-0.57 -3.02,-1.85 -4.94,-2.53 -8.33,-3.34 -0.42,-0.1 -0.87,-0.02 -1.24,0.22 -0.36,0.24 -0.61,0.62 -0.68,1.05l-0.59 3.57c-0.8,-0.1 -1.66,-0.16 -2.57,-0.16 -0.92,0 -1.78,0.06 -2.57,0.16l-0.59 -3.57zm10.59 25.4l-0.59 -1.78c1.39,-0.4 2.78,-0.87 4.09,-1.49 0.78,-0.38 1.11,-1.32 0.74,-2.1 -0.38,-0.78 -1.32,-1.11 -2.1,-0.74 -0.94,0.44 -1.92,0.79 -2.91,1.1 -1.81,0.56 -4.2,1.11 -6.64,1.11 -2.44,0 -4.83,-0.55 -6.64,-1.11 -0.99,-0.31 -1.97,-0.66 -2.9,-1.09 -0.78,-0.37 -1.73,-0.05 -2.11,0.73 -0.37,0.78 -0.03,1.73 0.75,2.1 1.31,0.62 2.69,1.09 4.08,1.48l-0.59 1.78c-1.67,-0.1 -3.07,-0.45 -4.34,-1.01 -1.38,-0.61 -2.66,-1.52 -3.98,-2.76 0.03,-3.55 0.3,-6.31 0.94,-8.9 0.65,-2.64 1.71,-5.17 3.38,-8.19 1.98,-1.19 3.39,-1.78 5.42,-2.33l0.34 2.03c-1.38,0.42 -2.78,0.98 -3.94,1.85 -0.68,0.51 -0.83,1.53 -0.32,2.21 0.52,0.69 1.5,0.84 2.2,0.32 0.58,-0.41 1.25,-0.72 1.91,-0.98 1.32,-0.53 3.28,-1.07 5.81,-1.07 2.53,0 4.49,0.54 5.81,1.07 0.66,0.26 1.33,0.57 1.91,0.98 0.69,0.52 1.68,0.37 2.2,-0.32 0.51,-0.68 0.36,-1.71 -0.33,-2.21 -1.17,-0.85 -2.56,-1.42 -3.93,-1.84l0.34 -2.03c2.03,0.56 3.44,1.15 5.42,2.33 1.67,3.02 2.72,5.55 3.38,8.19 0.64,2.59 0.91,5.36 0.94,8.9 -1.32,1.24 -2.6,2.15 -3.98,2.76 -1.26,0.56 -2.67,0.91 -4.34,1.01zm-12.14 -7.05c1.74,0 3.15,-1.76 3.15,-3.93 0,-2.17 -1.41,-3.93 -3.15,-3.93 -1.74,0 -3.15,1.76 -3.15,3.93 0,2.17 1.41,3.93 3.15,3.93zm12.59 -3.93c0,2.17 -1.41,3.93 -3.15,3.93 -1.74,0 -3.15,-1.76 -3.15,-3.93 0,-2.17 1.41,-3.93 3.15,-3.93 1.74,0 3.15,1.76 3.15,3.93zm-12.59 1.53c-0.68,0 -1.22,-0.68 -1.22,-1.53 0,-0.84 0.55,-1.53 1.22,-1.53 0.68,0 1.22,0.68 1.22,1.53 0,0.84 -0.55,1.53 -1.22,1.53zm9.44 0c-0.68,0 -1.22,-0.68 -1.22,-1.53 0,-0.84 0.55,-1.53 1.22,-1.53 0.68,0 1.22,0.68 1.22,1.53 0,0.84 -0.55,1.53 -1.22,1.53z"/>

</svg>
