<svg xmlns="http://www.w3.org/2000/svg" fill="#dee0ee" xml:space="preserve" width="291px" height="60px" version="1.1" style="shape-rendering:geometricPrecision; text-rendering:geometricPrecision; image-rendering:optimizeQuality; fill-rule:evenodd; clip-rule:evenodd"
viewBox="0 0 885.81 182.48">
 <g id="Layer_x0020_1">
  <g>
   <path class="fil0" d="M13.49 58.24l0 -0 0 0 -13.49 -8.89 1.64 17.53 13.49 8.89 13.49 8.89 0 0 13.49 8.89 13.49 8.89 0 0 1.64 17.53 1.64 17.54 1.64 17.54 -13.49 -8.89 -13.49 -8.89 -13.49 -8.89 -1.64 -17.54 13.49 8.89 13.49 8.89 -1.64 -17.54 -13.49 -8.89 -13.49 -8.89 -13.49 -8.89 1.64 17.54 1.64 17.54 1.64 17.54 13.49 8.89 13.49 8.89 13.49 8.89 13.49 8.89 13.49 8.89 -1.64 -17.54 0 0 -1.64 -17.54 -1.64 -17.54 -1.64 -17.54 -1.64 -17.54 -13.49 -8.89 -13.49 -8.89 -13.49 -8.89 -13.49 -8.89zm19.68 -13.82l-13.56 -8.94 -16.81 8.87 13.56 8.94 13.56 8.94 13.56 8.94 13.56 8.94 13.56 8.94 16.8 -8.87 16.81 -8.87 16.81 -8.87 15.44 -8.15 14.51 0 -10.32 5.45 -16.6 8.77 -16.6 8.76 -16.61 8.77 -16.6 8.77 1.64 17.54 16.6 -8.77 16.61 -8.77 16.6 -8.76 3.4 -1.8 0 7.15 0 0.19 0 0.29 0 0.29 0 0.28 0 0.28 0 0.28 0 0.27 0 0.27 0 0.26 0 0.26 0 0.25 0 0.25 0 0.24 0 0.24 0 0.23 0 0.23 0 0.22 0 0.21 0 0.2 0 21.75c0,6.87 1.65,13.38 4.57,19.14l-3.05 1.61 -16.6 8.76 -16.6 8.77 -1.64 -17.54 16.6 -8.77 16.6 -8.76 -1.64 -17.54 -16.6 8.76 -16.6 8.77 -16.6 8.77 1.64 17.54 1.64 17.54 1.64 17.54 16.61 -8.77 16.6 -8.77 16.6 -8.76 11.59 -6.12c7.49,6.5 17.24,10.44 27.87,10.44l13.37 0 13.37 0c10.04,0 19.3,-3.52 26.6,-9.39 7.3,5.87 16.56,9.39 26.6,9.39l1.56 0 0 -32.03 -1.56 0c-5.82,0 -10.59,-4.76 -10.59,-10.59l0 -3.03 0 -23.48 0 -19.94c0,-27.06 -22.14,-49.19 -49.19,-49.19l-5.51 0 -4.04 0 -0.04 0 -46 0c-1.73,0 -3.15,1.42 -3.15,3.15l0 5.11 -5.6 -3.69 -13.56 -8.94 -13.56 -8.94 -13.56 -8.94 -16.81 8.87 -16.81 8.87 -16.8 8.87 13.56 8.94 13.56 8.94 13.56 8.94 16.81 -8.87 -13.56 -8.94 -13.56 -8.94 0 0 16.8 -8.87 13.56 8.94 13.56 8.94 13.56 8.94 -16.81 8.87 -16.8 8.87 -16.81 8.87 -13.56 -8.94 -13.56 -8.94 -13.56 -8.94zm439.75 -22.16l25.85 0c1.67,0 3.03,1.36 3.03,3.03l0 132.19c0,1.66 -1.36,3.03 -3.03,3.03l-25.97 0c-1.67,0 -3.03,-1.36 -3.03,-3.03l0 -39.95 0 -6.99c0,-1.73 -1.42,-3.15 -3.15,-3.15l-41.61 0c-1.73,0 -3.15,1.42 -3.15,3.15l0 6.99 0 39.95c0,1.66 -1.36,3.03 -3.03,3.03l-25.97 0c-1.66,0 -3.03,-1.36 -3.03,-3.03l0 -132.07c0,-1.73 1.42,-3.15 3.15,-3.15l25.85 0c1.66,0 3.03,1.36 3.03,3.03l0 39.95 0 6.99c0,1.73 1.42,3.15 3.15,3.15l41.61 0c1.73,0 3.15,-1.42 3.15,-3.15l0 -6.99 0 -39.83c0,-1.73 1.42,-3.15 3.15,-3.15zm-308.73 103.1l-0.39 -4.24 -1.24 -13.23c0.49,-0.31 1.07,-0.49 1.68,-0.49l41.61 0c1.73,0 3.15,1.42 3.15,3.15l0 7.35c0,5.82 -4.76,10.59 -10.59,10.59l-13.37 0 -13.37 0c-2.92,0 -5.57,-1.2 -7.49,-3.12zm-4.67 -49.99l-0.64 -6.86 -1.33 -14.22 23.26 0 5.52 0 5.51 0c9.44,0 17.16,7.72 17.16,17.16l0 3.92 -49.48 0zm726.28 82.11c0,1.66 -1.36,3.03 -3.03,3.03 -22.11,0 -44.21,0 -66.32,0 -23.44,0 -42.61,-19.18 -42.61,-42.61 0,-30.83 0,-61.66 0,-92.49 0,-1.73 1.42,-3.15 3.15,-3.15l25.85 0c1.66,0 3.03,1.36 3.03,3.03 0,30.87 0,61.74 0,92.61 0,5.82 4.76,10.59 10.59,10.59 12.44,0 24.88,0 37.32,0 0,-34.36 0,-68.72 0,-103.07 0,-1.73 1.42,-3.15 3.15,-3.15l25.85 0c1.66,0 3.03,1.36 3.03,3.03 0,44.07 0,88.13 0,132.19zm-159.77 -130.02l0 -2.06c0,-1.73 1.42,-3.15 3.15,-3.15l25.85 0c1.66,0 3.03,1.36 3.03,3.03l0 2.18c0,30.33 -17.13,56.86 -42.19,70.39 5.89,18.51 23.29,32.02 43.69,32.02l0 30.63c-34.09,0 -63.15,-22.61 -72.94,-53.57 -1.74,0.18 -3.49,0.32 -5.26,0.39l0 53.18 -32.03 0 0 -138.25 32.03 0 0 53c24.86,-1.68 44.67,-22.53 44.67,-47.79zm-460.7 -2.47c0,-1.67 1.36,-3.03 3.03,-3.03 35.3,0 70.6,0 105.9,0 1.66,0 3.03,1.36 3.03,3.03 0,21.02 0,42.05 0,63.07 0,1.66 -1.36,3.03 -3.03,3.03 -8.66,0 -17.32,0 -25.97,0 -1.66,0 -3.03,-1.37 -3.03,-3.03 0,-10.31 0,-20.62 0,-30.92 0,-1.73 -1.42,-3.15 -3.15,-3.15l-41.61 0c-1.73,0 -3.15,1.42 -3.15,3.15l0 21.01 0 12.94 0 26.8c0,5.82 4.77,10.59 10.59,10.59l10.56 0 10.8 0 44.95 0c1.66,0 3.03,1.36 3.03,3.03l0 25.97c0,1.66 -1.36,3.03 -3.03,3.03l-44.95 0 -10.68 0 -10.68 0c-23.44,0 -42.61,-19.18 -42.61,-42.61l0 -29.83 0 -0.98 0 -0.99 0 -0.99 0 -0.98 0 -0.99 0 -0.99 0 -0.98 0 -0.99 0 -0.99 0 -0.98 0 -0.06 0 -53.15zm253.05 0.41l0 25.85c0,1.67 1.36,3.03 3.03,3.03l44.69 0 5.52 0 5.51 0c9.44,0 17.16,7.72 17.16,17.16l0 3.92c-25.63,0 -51.27,0 -76.9,0 -1.67,0 -3.03,1.36 -3.03,3.03l0 12.99 0 0.19 0 0.29 0 0.29 0 0.28 0 0.28 0 0.28 0 0.27 0 0.27 0 0.26 0 0.26 0 0.25 0 0.25 0 0.24 0 0.24 0 0.23 0 0.23 0 0.22 0 0.21 0 0.2 0 21.75c0,23.44 19.18,42.61 42.61,42.61l13.37 0 13.37 0c10.04,0 19.3,-3.52 26.6,-9.39 7.3,5.87 16.56,9.39 26.6,9.39l1.56 0 0 -32.03 -1.56 0c-5.82,0 -10.59,-4.76 -10.59,-10.59l0 -3.03 0 -23.48 0 -19.94c0,-27.06 -22.13,-49.19 -49.19,-49.19l-5.51 0 -4.04 0 -0.04 0 -46 0c-1.73,0 -3.15,1.42 -3.15,3.15zm51.95 103.07l-13.37 0c-5.82,0 -10.58,-4.76 -10.58,-10.59l0 -7.35c0,-1.73 1.42,-3.15 3.15,-3.15l41.61 0c1.73,0 3.15,1.42 3.15,3.15l0 7.35c0,5.82 -4.76,10.59 -10.58,10.59l-13.37 0zm-541.72 -43.81l0 0 0 0z"/>
  </g>
 </g>
</svg>
