
<svg xmlns="http://www.w3.org/2000/svg" xml:space="preserve" width="24px" height="22px" version="1.1" style="shape-rendering:geometricPrecision; text-rendering:geometricPrecision; image-rendering:optimizeQuality; fill-rule:evenodd; clip-rule:evenodd"
viewBox="0 0 18.25 25.48"
>

  <path fill="#fff" d="M16.96 0c-0.1,0.49 -0.53,0.85 -1.04,0.85 -0.51,0 -0.94,-0.37 -1.04,-0.85l-1.31 0c-0.1,0.49 -0.53,0.85 -1.04,0.85 -0.51,0 -0.94,-0.37 -1.04,-0.85l-1.31 0c-0.1,0.49 -0.53,0.85 -1.04,0.85 -0.51,0 -0.94,-0.37 -1.04,-0.85l-1.31 0c-0.1,0.49 -0.53,0.85 -1.04,0.85 -0.51,0 -0.94,-0.37 -1.04,-0.85l-1.31 0c-0.1,0.49 -0.53,0.85 -1.04,0.85 -0.51,0 -0.94,-0.37 -1.04,-0.85l-1.29 0 0 25.48 1.29 0c0.1,-0.49 0.53,-0.85 1.04,-0.85 0.51,0 0.94,0.37 1.04,0.85l1.31 0c0.1,-0.49 0.53,-0.85 1.04,-0.85 0.51,0 0.94,0.37 1.04,0.85l1.31 0c0.1,-0.49 0.53,-0.85 1.04,-0.85 0.51,0 0.94,0.37 1.04,0.85l1.31 0c0.1,-0.49 0.53,-0.85 1.04,-0.85 0.51,0 0.94,0.37 1.04,0.85l1.31 0c0.1,-0.49 0.53,-0.85 1.04,-0.85 0.51,0 0.94,0.37 1.04,0.85l1.29 0 0 -25.48 -1.29 0zm-0.26 23.49c-0.25,-0.09 -0.52,-0.13 -0.78,-0.13 -0.58,0 -1.13,0.21 -1.56,0.6l-0.14 0.13 -0.14 -0.13c-0.43,-0.39 -0.98,-0.6 -1.56,-0.6 -0.58,0 -1.13,0.21 -1.56,0.6l-0.14 0.13 -0.14 -0.13c-0.43,-0.39 -0.98,-0.6 -1.56,-0.6 -0.58,0 -1.13,0.21 -1.56,0.6l-0.14 0.13 -0.14 -0.13c-0.43,-0.39 -0.98,-0.6 -1.56,-0.6 -0.58,0 -1.13,0.21 -1.56,0.6l-0.14 0.13 -0.14 -0.13c-0.43,-0.39 -0.98,-0.6 -1.56,-0.6 -0.27,0 -0.53,0.04 -0.78,0.14l-0.28 0.1 0 -21.7 0.28 0.1c0.25,0.09 0.52,0.14 0.78,0.14 0.58,0 1.13,-0.21 1.56,-0.6l0.14 -0.13 0.14 0.13c0.43,0.39 0.98,0.6 1.56,0.6 0.58,0 1.13,-0.21 1.56,-0.6l0.14 -0.13 0.14 0.13c0.43,0.39 0.98,0.6 1.56,0.6 0.58,0 1.13,-0.21 1.56,-0.6l0.14 -0.13 0.14 0.13c0.43,0.39 0.98,0.6 1.56,0.6 0.58,0 1.13,-0.21 1.56,-0.6l0.14 -0.13 0.14 0.13c0.43,0.39 0.98,0.6 1.56,0.6 0.27,0 0.53,-0.04 0.78,-0.13l0.28 -0.1 0 21.7 -0.28 -0.1zm-12.94 -16.83l6.79 0 0 -1.69 -6.79 0 0 1.69zm8.49 0l2.24 0 0 -1.69 -2.24 0 0 1.69zm-8.49 3.76l6.79 0 0 -1.69 -6.79 0 0 1.69zm8.49 0l2.24 0 0 -1.69 -2.24 0 0 1.69zm-8.49 3.76l6.79 0 0 -1.69 -6.79 0 0 1.69zm8.49 0l2.24 0 0 -1.69 -2.24 0 0 1.69zm-4.82 6.11l7.07 0 0 -1.69 -7.07 0 0 1.69z"/>

</svg>
