
<svg xmlns="http://www.w3.org/2000/svg" xml:space="preserve" width="24px" height="24px" version="1.1" 
viewBox="0 0 24.5 28.2"
>


  <path fill="#fff" d="M2.16 10.32c-0.31,0.54 -0.47,1.16 -0.47,1.81l0 10.79c0,1.82 1.29,3.31 2.85,3.31l3.27 0 0 -7.48c0,-2 1.41,-3.63 3.13,-3.63l2.61 0c1.72,0 3.13,1.63 3.13,3.63l0 7.48 3.27 0c1.57,0 2.85,-1.49 2.85,-3.31l0 -10.79c0,-0.65 -0.16,-1.27 -0.47,-1.81l-8.15 -7.65c-1.05,-0.99 -2.9,-0.92 -3.94,0.06l-8.09 7.59zm7.35 15.91l5.49 0 0 -7.48c0,-0.92 -0.65,-1.67 -1.44,-1.67l-2.61 0c-0.79,0 -1.44,0.75 -1.44,1.67l0 7.48zm5.74 -25.09l8.33 7.82 -0 0c0.57,0.88 0.92,1.98 0.92,3.17l0 10.79c0,2.9 -2.05,5.28 -4.55,5.28l-15.41 0c-2.5,0 -4.55,-2.37 -4.55,-5.28l0 -10.79c0,-1.19 0.34,-2.28 0.91,-3.17l8.27 -7.76c1.69,-1.58 4.42,-1.61 6.07,-0.06z"/>

</svg>
