
<svg xmlns="http://www.w3.org/2000/svg" xml:space="preserve" width="24px" height="24px" version="1.1" style="fill-rule:evenodd; clip-rule:evenodd"
viewBox="0 0 21.57 21.57">

   <path fill="#fff" d="M10.79 16.67c3.25,0 5.88,-2.63 5.88,-5.88 0,-3.25 -2.63,-5.88 -5.88,-5.88 -3.25,0 -5.88,2.63 -5.88,5.88 0,3.25 2.63,5.88 5.88,5.88zm0 -1.96c2.17,0 3.92,-1.76 3.92,-3.92 0,-2.17 -1.76,-3.92 -3.92,-3.92 -2.17,0 -3.92,1.76 -3.92,3.92 0,2.17 1.76,3.92 3.92,3.92z"/>
   <path fill="#fff" d="M16.67 3.92c-0.54,0 -0.98,0.44 -0.98,0.98 0,0.54 0.44,0.98 0.98,0.98 0.54,0 0.98,-0.44 0.98,-0.98 0,-0.54 -0.44,-0.98 -0.98,-0.98z"/>
   <path fill="#fff" d="M0.64 3.21c-0.64,1.26 -0.64,2.91 -0.64,6.2l0 2.75c0,3.3 0,4.94 0.64,6.2 0.56,1.11 1.46,2.01 2.57,2.57 1.26,0.64 2.91,0.64 6.2,0.64l2.75 0c3.3,0 4.94,0 6.2,-0.64 1.11,-0.56 2.01,-1.46 2.57,-2.57 0.64,-1.26 0.64,-2.91 0.64,-6.2l0 -2.75c0,-3.3 0,-4.94 -0.64,-6.2 -0.56,-1.11 -1.46,-2.01 -2.57,-2.57 -1.26,-0.64 -2.91,-0.64 -6.2,-0.64l-2.75 0c-3.3,0 -4.94,0 -6.2,0.64 -1.11,0.56 -2.01,1.46 -2.57,2.57zm11.52 -1.25l-2.75 0c-1.68,0 -2.82,0 -3.7,0.07 -0.86,0.07 -1.3,0.2 -1.61,0.35 -0.74,0.38 -1.34,0.98 -1.71,1.71 -0.16,0.31 -0.28,0.75 -0.35,1.61 -0.07,0.88 -0.07,2.02 -0.07,3.7l0 2.75c0,1.68 0,2.82 0.07,3.7 0.07,0.86 0.2,1.3 0.35,1.61 0.38,0.74 0.98,1.34 1.71,1.71 0.31,0.16 0.75,0.28 1.61,0.35 0.88,0.07 2.02,0.07 3.7,0.07l2.75 0c1.68,0 2.82,-0 3.7,-0.07 0.86,-0.07 1.3,-0.2 1.61,-0.35 0.74,-0.38 1.34,-0.98 1.71,-1.71 0.16,-0.31 0.28,-0.75 0.35,-1.61 0.07,-0.88 0.07,-2.02 0.07,-3.7l0 -2.75c0,-1.68 -0,-2.82 -0.07,-3.7 -0.07,-0.86 -0.2,-1.3 -0.35,-1.61 -0.38,-0.74 -0.98,-1.34 -1.71,-1.71 -0.31,-0.16 -0.75,-0.28 -1.61,-0.35 -0.88,-0.07 -2.02,-0.07 -3.7,-0.07z"/>

</svg>
