
<svg xmlns="http://www.w3.org/2000/svg" xml:space="preserve" width="24px" height="24px" version="1.1" style="fill-rule:evenodd; clip-rule:evenodd"
viewBox="0 0 2.7 2.9">

  <path fill="#fff" d="M0.92 1.23c0.06,0 0.11,0.03 0.11,0.09l0 0.26c0,0.06 -0.05,0.08 -0.11,0.08 -0.05,0 -0.11,-0.02 -0.11,-0.08l0 -0.26c0,-0.06 0.06,-0.09 0.11,-0.09zm0.13 -1.01l-0.5 0.17c-0.05,0.02 -0.09,0.03 -0.09,0.09l0 1.94c0,0.06 0.04,0.07 0.09,0.08l0.5 0.18c0.01,0 0.02,0 0.04,0 0.02,0 0.04,-0.01 0.04,-0.03l0 -2.4c0,-0.04 -0.05,-0.04 -0.08,-0.03zm-0.07 -0.2c0.18,-0.06 0.36,0.04 0.36,0.23l0 2.4c0,0.14 -0.11,0.25 -0.25,0.25 -0.04,0 -0.07,-0.01 -0.11,-0.02l-0.5 -0.17c-0.15,-0.05 -0.24,-0.13 -0.24,-0.29l0 -1.94c0,-0.16 0.09,-0.24 0.24,-0.29l0.5 -0.17zm1.39 1.53l-0.77 0c-0.06,0 -0.1,-0.05 -0.1,-0.1 0,-0.06 0.04,-0.1 0.1,-0.1l0.77 0 -0.1 -0.1c-0.04,-0.04 -0.04,-0.1 0,-0.14 0.04,-0.04 0.1,-0.04 0.14,0l0.26 0.27c0.01,0 0.01,0.01 0.02,0.01 0,0.01 0,0.01 0.01,0.02 0,0.01 0,0.03 0,0.04 0,0 0,0.01 0,0.01 0,0.01 0,0.02 0,0.03 -0.01,0.01 -0.02,0.02 -0.03,0.03l-0.26 0.27c-0.02,0.02 -0.05,0.03 -0.07,0.03 -0.03,0 -0.05,-0.01 -0.07,-0.03 -0.04,-0.04 -0.04,-0.1 0,-0.14l0.1 -0.1zm-0.77 -1.13c-0.06,0 -0.11,-0.05 -0.11,-0.11 0,-0.06 0.05,-0.11 0.11,-0.11l0.41 0c0.16,0 0.28,0.13 0.28,0.28l0 0.36c0,0.06 -0.05,0.11 -0.11,0.11 -0.06,0 -0.11,-0.05 -0.11,-0.11l0 -0.36c0,-0.03 -0.02,-0.06 -0.06,-0.06l-0.41 0zm0.59 1.5c0.06,0 0.11,0.04 0.11,0.1l-0.01 0.4c0,0.15 -0.12,0.28 -0.28,0.28l-0.41 0c-0.06,0 -0.11,-0.05 -0.11,-0.11 0,-0.06 0.05,-0.11 0.11,-0.11l0.41 0c0.04,0 0.06,-0.03 0.06,-0.06l0.01 -0.4c0,-0.06 0.05,-0.1 0.11,-0.1z"/>

</svg>
