<svg xmlns="http://www.w3.org/2000/svg" xml:space="preserve" width="40px" height="40px" version="1.1" style="fill-rule:evenodd; clip-rule:evenodd"
viewBox="0 0 6.24 6.24">
   <path fill="#fff" d="M1.35 1.8l-0.35 -0.23 0.04 0.46 0.35 0.22 0.35 0.23 0.35 0.23 0.34 0.23 0.04 0.45 0.05 0.45 0.04 0.46 -0.35 -0.23 -0.35 -0.23 -0.34 -0.23 -0.04 -0.45 0.34 0.23 0.35 0.23 -0.04 -0.46 -0.35 -0.23 -0.35 -0.22 -0.34 -0.23 0.04 0.45 0.04 0.45 0.04 0.45 0.35 0.23 0.35 0.23 0.34 0.23 0.35 0.23 0.35 0.23 -0.04 -0.46 -0.05 -0.45 -0.04 -0.45 -0.04 -0.45 -0.04 -0.45 -0.35 -0.23 -0.35 -0.23 -0.34 -0.23 -0.35 -0.23 0 0zm0.51 -0.35l-0.35 -0.23 -0.44 0.23 0.35 0.23 0.35 0.23 0.35 0.23 0.35 0.23 0.35 0.23 0.43 -0.23 0.43 -0.23 0.44 -0.23 0.39 -0.21 0.47 -0.25 -0.55 -0.36 -0.15 -0.1 -0.17 -0.11 -0.17 -0.12 -0.35 -0.23 -0.35 -0.23 -0.44 0.23 -0.43 0.23 -0.43 0.23 0.35 0.23 0.35 0.23 0.35 0.23 0.43 -0.23 -0.35 -0.23 -0.35 -0.23 0.43 -0.23 0.35 0.23 0.35 0.23 0.35 0.23 -0.43 0.23 -0.43 0.23 -0.44 0.23 -0.35 -0.23 -0.35 -0.23 -0.34 -0.23 0 0zm3.03 0.25l-0.27 0.14 -0.02 0.01 -0.4 0.22 -0.43 0.22 -0.43 0.23 -0.43 0.22 0.04 0.46 0.43 -0.23 0.43 -0.23 0.43 -0.22 0 0 0.4 -0.22 0.15 1.35 -0.06 0.03 0.51 0.2 -0.54 0.29 -0.29 0.15 -0.07 0.04 -0.36 0.19 -0.43 0.23 -0.43 0.22 -0.04 -0.45 -0.04 -0.45 -0.04 -0.45 0.42 -0.23 0.43 -0.22 0.43 -0.23 0.04 0.45 -0.43 0.23 -0.42 0.22 0.04 0.45 0.43 -0.22 0.42 -0.23 0.08 -0.04 0 0 0.29 -0.15 0.51 0.2 -0.23 -2.24 -0.12 0.06zm-0.56 1.82l-2.59 -1.04 2.59 1.04z"/>
   <path fill="#fff" d="M3.54 5.2l0 0.14c0,0.01 0.01,0.01 0.02,0.01l0.24 0 0.03 0 0.03 0c0.06,0 0.1,0.05 0.1,0.1l0 0.02c-0.14,0 -0.28,0 -0.42,0 -0.01,0 -0.02,0.01 -0.02,0.02l0 0.07 0 0 0 0 0 0 0 0 0 0.01 0 0 0 0 0 0 0 0 0 0 0 0 0 0.01 0 0 0 0 0 0 0 0 0 0 0 0 0 0 0 0.12c0,0.13 0.1,0.24 0.23,0.24l0.08 0 0.07 0c0.06,0 0.11,-0.02 0.15,-0.05 0.04,0.03 0.09,0.05 0.14,0.05l0.01 0 0 -0.18 -0.01 0c-0.03,0 -0.06,-0.02 -0.06,-0.06l0 -0.01 0 -0.13 0 -0.11c0,-0.15 -0.12,-0.27 -0.27,-0.27l-0.03 0 -0.02 0 0 0 -0.25 0c-0.01,0 -0.02,0.01 -0.02,0.02l0 0zm-2.12 0l0 0.14c0,0.01 0.01,0.01 0.02,0.01l0.24 0 0.03 0 0.03 0c0.06,0 0.1,0.05 0.1,0.1l0 0.02c-0.14,0 -0.28,0 -0.42,0 -0.01,0 -0.02,0.01 -0.02,0.02l0 0.07 0 0 0 0 0 0 0 0 0 0.01 0 0 0 0 0 0 0 0 0 0 0 0 0 0.01 0 0 0 0 0 0 0 0 0 0 0 0 0 0 0 0.12c0,0.13 0.1,0.24 0.23,0.24l0.08 0 0.07 0c0.06,0 0.11,-0.02 0.15,-0.05 0.04,0.03 0.09,0.05 0.14,0.05l0.01 0 0 -0.18 -0.01 0c-0.03,0 -0.05,-0.02 -0.05,-0.06l0 -0.01 0 -0.13 0 -0.11c0,-0.15 -0.13,-0.27 -0.28,-0.27l-0.03 0 -0.02 0 0 0 -0.25 0c-0.01,0 -0.02,0.01 -0.02,0.02l0 0zm0.29 0.56l-0.08 0c-0.03,0 -0.05,-0.02 -0.05,-0.06l0 -0.04c0,-0.01 0,-0.01 0.01,-0.01l0.23 0c0.01,0 0.02,0 0.02,0.01l0 0.04c0,0.04 -0.03,0.06 -0.06,0.06l-0.07 0 0 0zm-0.41 -0.29l0 0.31 0 0.04 0 0.1c0,0.01 -0.01,0.02 -0.02,0.02l-0.25 0 -0.06 0 -0.06 0c-0.12,0 -0.23,-0.11 -0.23,-0.24l0 -0.16 0 0 0 -0.01 0 -0.01 0 0 0 -0.01 0 0 0 -0.01 0 0 0 -0.01 0 0 0 0 0 -0.3 0 0c0,-0.01 0.01,-0.01 0.02,-0.01 0.19,0 0.39,0 0.58,0 0.01,0 0.02,0 0.02,0.01 0,0.12 0,0.07 0,0.19 0,0.01 -0.01,0.02 -0.02,0.02 -0.05,0 -0.1,0 -0.14,0 -0.01,0 -0.02,-0.01 -0.02,-0.02 0,-0.06 0,0.05 0,-0.01 0,-0.01 -0.01,-0.02 -0.02,-0.02l-0.23 0c-0.01,0 -0.01,0.01 -0.01,0.02l0 0.12 0 0.07 0 0.14c0,0.04 0.02,0.06 0.05,0.06l0.06 0 0.06 0 0.09 0 0 -0.06 0 -0.04c0,-0.01 -0.01,-0.01 -0.02,-0.01l-0.19 0 0 -0.18 0.19 0 0.2 0zm1.99 -0.29l0.14 0c0.01,0 0.02,0.01 0.02,0.02l0 0.72c0,0.01 -0.01,0.02 -0.02,0.02l-0.14 0c-0.01,0 -0.02,-0.01 -0.02,-0.02l0 -0.22 0 -0.04c0,-0.01 0,-0.01 -0.01,-0.01l-0.23 0c-0.01,0 -0.02,0 -0.02,0.01l0 0.04 0 0.22c0,0.01 -0.01,0.02 -0.02,0.02l-0.14 0c-0.01,0 -0.02,-0.01 -0.02,-0.02l0 -0.72c0,-0.01 0.01,-0.02 0.02,-0.02l0.14 0c0.01,0 0.02,0.01 0.02,0.02l0 0.21 0 0.04c0,0.01 0.01,0.02 0.02,0.02l0.23 0c0.01,0 0.01,-0.01 0.01,-0.02l0 -0.04 0 -0.21c0,-0.01 0.01,-0.02 0.02,-0.02zm2.27 0.74c0,0.01 -0.01,0.02 -0.02,0.02 -0.12,0 -0.24,0 -0.36,0 -0.13,0 -0.23,-0.11 -0.23,-0.24 0,-0.16 0,-0.33 0,-0.5 0,-0.01 0,-0.02 0.01,-0.02l0.15 0c0,0 0.01,0.01 0.01,0.02 0,0.17 0,0.33 0,0.5 0,0.04 0.03,0.06 0.06,0.06 0.07,0 0.14,0 0.21,0 0,-0.19 0,-0.38 0,-0.56 0,-0.01 0,-0.02 0.01,-0.02l0.14 0c0.01,0 0.02,0.01 0.02,0.02 0,0.24 0,0.48 0,0.72l0 0zm-0.88 -0.71l0 -0.01c0,-0.01 0.01,-0.02 0.02,-0.02l0.14 0c0.01,0 0.02,0.01 0.02,0.02l0 0.01c0,0.16 -0.1,0.31 -0.23,0.38 0.03,0.11 0.12,0.18 0.24,0.18l0 0.17c-0.19,0 -0.35,-0.13 -0.4,-0.3 -0.01,0.01 -0.02,0.01 -0.03,0.01l0 0.29 -0.18 0 0 -0.76 0.18 0 0 0.29c0.13,-0.01 0.24,-0.12 0.24,-0.26zm-2.53 -0.02c0,-0.01 0.01,-0.01 0.02,-0.01 0.19,0 0.38,0 0.58,0 0.01,0 0.01,0 0.01,0.01 0,0.12 0,0.23 0,0.35 0,0.01 0,0.02 -0.01,0.02 -0.05,0 -0.1,0 -0.15,0 0,0 -0.01,-0.01 -0.01,-0.02 0,-0.06 0,-0.11 0,-0.17 0,-0.01 -0.01,-0.02 -0.02,-0.02l-0.23 0c-0.01,0 -0.02,0.01 -0.02,0.02l0 0.12 0 0.07 0 0.14c0,0.04 0.03,0.06 0.06,0.06l0.06 0 0.06 0 0.25 0c0.01,0 0.01,0.01 0.01,0.02l0 0.14c0,0.01 0,0.02 -0.01,0.02l-0.25 0 -0.06 0 -0.06 0c-0.13,0 -0.23,-0.11 -0.23,-0.24l0 -0.16 0 0 0 -0.01 0 -0.01 0 0 0 -0.01 0 0 0 -0.01 0 0 0 -0.01 0 0 0 0 0 -0.3 0 0zm1.68 0.57l-0.08 0c-0.03,0 -0.06,-0.02 -0.06,-0.06l0 -0.04c0,-0.01 0.01,-0.01 0.02,-0.01l0.23 0c0.01,0 0.02,0 0.02,0.01l0 0.04c0,0.04 -0.03,0.06 -0.06,0.06l-0.07 0 0 0z"/>

</svg>
