
<svg xmlns="http://www.w3.org/2000/svg" xml:space="preserve" width="24px" height="24px" version="1.1" style=" fill-rule:evenodd; clip-rule:evenodd"
viewBox="0 0 2.49 2.7"
>

  <path fill="#fff" d="M0.17 1.33l0.17 -0.06 0.03 0.02c0.11,0.07 0.24,0.11 0.37,0.11 0.36,0 0.66,-0.3 0.66,-0.66 0,-0.37 -0.3,-0.67 -0.66,-0.67 -0.37,0 -0.67,0.3 -0.67,0.67 0,0.14 0.04,0.27 0.13,0.39l0.02 0.02 -0.05 0.18zm0.99 0.37c0.01,-0.04 -0.03,-0.08 -0.08,-0.06l-0.52 0.2c-0.05,0.02 -0.05,0.08 0,0.11l0.11 0.05 0.05 0.19c0.01,0.01 0.01,0.02 0.02,0.02 0.01,0 0.03,0 0.03,-0.01l0.09 -0.08 0.11 0.09c0.04,0.02 0.09,0 0.1,-0.04l0.09 -0.47zm-0.58 0.19l0.52 -0.2 -0.09 0.47 -0.14 -0.1c-0.01,-0.01 -0.03,-0.01 -0.04,0l-0.03 0.03 0.01 -0.05 0.21 -0.22c0.01,-0.01 0.01,-0.02 0,-0.03 -0.01,-0.02 -0.02,-0.02 -0.04,-0.01l-0.29 0.17 -0.11 -0.06zm0.15 0.1l0.02 0.06 0 -0.03c0,-0.01 0.01,-0.01 0.01,-0.02l0.06 -0.06 -0.09 0.05zm-0.03 -0.99l0.05 0 0 -0.29 0.1 0 0 -0.05 -0.1 0 0 -0.1c0,-0.02 0,-0.04 0.01,-0.06 0.01,-0.03 0.04,-0.05 0.08,-0.05l0.01 0 0 -0.02c-0.02,0 -0.03,0 -0.05,0 -0.07,0 -0.1,0.05 -0.1,0.12l0 0.11 -0.09 0 0 0.05 0.09 0 0 0.29zm-0.05 -0.24l-0.09 0 0 -0.15 0.09 0 0 -0.06c0,-0.1 0.05,-0.17 0.15,-0.17 0.02,0 0.04,0 0.06,0 0.01,0 0.04,0 0.04,0.02l0 0.1 -0.06 0c-0.04,0 -0.03,0.03 -0.03,0.06l0 0.05 0.1 0 -0.02 0.15 -0.08 0 0 0.3 -0.16 0 0 -0.3zm1.2 0.63c0.1,0 0.18,-0.08 0.18,-0.18 0,-0.1 -0.08,-0.18 -0.18,-0.18 -0.1,0 -0.18,0.08 -0.18,0.18 0,0.1 0.08,0.18 0.18,0.18zm0 -0.06c0.07,0 0.12,-0.06 0.12,-0.12 0,-0.07 -0.05,-0.12 -0.12,-0.12 -0.07,0 -0.12,0.05 -0.12,0.12 0,0.06 0.05,0.12 0.12,0.12zm0.18 -0.33c-0.02,0 -0.03,0.01 -0.03,0.03 0,0.02 0.01,0.03 0.03,0.03 0.01,0 0.03,-0.01 0.03,-0.03 0,-0.02 -0.02,-0.03 -0.03,-0.03zm-0.49 -0.02c-0.02,0.04 -0.02,0.09 -0.02,0.19l0 0.08c0,0.1 0,0.15 0.02,0.19 0.02,0.03 0.05,0.06 0.08,0.07 0.04,0.02 0.09,0.02 0.19,0.02l0.08 0c0.1,0 0.15,0 0.19,-0.02 0.03,-0.01 0.06,-0.04 0.08,-0.07 0.02,-0.04 0.02,-0.09 0.02,-0.19l0 -0.08c0,-0.1 0,-0.15 -0.02,-0.19 -0.02,-0.03 -0.05,-0.06 -0.08,-0.08 -0.04,-0.02 -0.09,-0.02 -0.19,-0.02l-0.08 0c-0.1,0 -0.15,0 -0.19,0.02 -0.03,0.02 -0.06,0.05 -0.08,0.08zm0.35 -0.04l-0.08 0c-0.05,0 -0.09,0 -0.11,0 -0.03,0.01 -0.04,0.01 -0.05,0.01 -0.02,0.02 -0.04,0.03 -0.05,0.06 -0.01,0.01 -0.01,0.02 -0.01,0.04 -0.01,0.03 -0.01,0.07 -0.01,0.12l0 0.08c0,0.05 0,0.08 0.01,0.11 0,0.03 0,0.04 0.01,0.05 0.01,0.02 0.03,0.04 0.05,0.05 0.01,0.01 0.02,0.01 0.05,0.01 0.02,0 0.06,0 0.11,0l0.08 0c0.05,0 0.09,0 0.11,0 0.03,0 0.04,0 0.05,-0.01 0.02,-0.01 0.04,-0.03 0.05,-0.05 0.01,-0.01 0.01,-0.02 0.01,-0.05 0.01,-0.03 0.01,-0.06 0.01,-0.11l0 -0.08c0,-0.05 0,-0.09 -0.01,-0.12 0,-0.02 0,-0.03 -0.01,-0.04 -0.01,-0.03 -0.03,-0.04 -0.05,-0.06 -0.01,0 -0.02,0 -0.05,-0.01 -0.02,0 -0.06,0 -0.11,0zm0.44 0.82l-0.04 -0.17 0.02 -0.02c0.07,-0.1 0.11,-0.22 0.12,-0.34 0.02,-0.34 -0.25,-0.64 -0.6,-0.65 -0.13,-0.01 -0.26,0.03 -0.36,0.09 0,0.02 0,0.04 0,0.07 0,0.23 -0.11,0.44 -0.28,0.58 0.05,0.27 0.29,0.49 0.58,0.51 0.13,0 0.26,-0.03 0.38,-0.1l0.02 -0.02 0.16 0.05zm-0.87 -1.16c0.11,-0.06 0.24,-0.1 0.38,-0.09 0.38,0.02 0.67,0.34 0.65,0.73 0,0.14 -0.05,0.26 -0.13,0.37l0.06 0.22c0,0.02 -0.01,0.03 -0.03,0.02l-0.21 -0.07c-0.12,0.08 -0.26,0.12 -0.41,0.11 -0.05,0 -0.1,-0.01 -0.15,-0.02 0,0.03 0.01,0.07 0.01,0.1 0,0.41 -0.33,0.73 -0.74,0.73 -0.15,0 -0.28,-0.04 -0.4,-0.12l-0.23 0.07c-0.02,0.01 -0.04,0 -0.03,-0.02l0.07 -0.23c-0.09,-0.12 -0.14,-0.27 -0.14,-0.43 0,-0.23 0.1,-0.43 0.27,-0.57 -0.04,-0.01 -0.07,-0.03 -0.1,-0.05l-0.23 0.07c-0.02,0 -0.03,-0.01 -0.03,-0.03l0.07 -0.22c-0.09,-0.12 -0.14,-0.27 -0.14,-0.43 0,-0.41 0.33,-0.74 0.74,-0.74 0.36,0 0.66,0.26 0.72,0.6zm0.09 1.24c-0.21,-0.08 -0.37,-0.26 -0.42,-0.48 -0.12,0.07 -0.25,0.11 -0.39,0.11 -0.09,0 -0.17,-0.01 -0.24,-0.04 -0.17,0.12 -0.27,0.32 -0.27,0.54 0,0.14 0.04,0.28 0.12,0.39l0.02 0.03 -0.05 0.17 0.18 -0.05 0.03 0.02c0.11,0.07 0.23,0.11 0.36,0.11 0.37,0 0.67,-0.3 0.67,-0.67 0,-0.04 -0.01,-0.09 -0.01,-0.13z"/>

</svg>
