
<svg xmlns="http://www.w3.org/2000/svg" xml:space="preserve" width="24px" height="24px" version="1.1" style="fill-rule:evenodd; clip-rule:evenodd"
viewBox="0 0 12.8 12.8">
  <path fill="#fff" d="M8.06 7.02l1.42 1.42c0.31,-0.12 0.67,-0.05 0.91,0.2l2.16 2.15c0.34,0.34 0.34,0.89 0,1.23l-0.53 0.53c-0.34,0.34 -0.89,0.34 -1.23,0l-2.15 -2.16c-0.26,-0.26 -0.32,-0.65 -0.18,-0.97l-1.39 -1.4c-0.74,0.54 -1.65,0.86 -2.63,0.86 -2.45,0 -4.44,-1.99 -4.44,-4.44 0,-2.45 1.99,-4.44 4.44,-4.44 2.46,0 4.44,1.99 4.44,4.44 0,0.96 -0.3,1.85 -0.82,2.58zm-3.62 -5.61c1.68,0 3.04,1.36 3.04,3.03 0,1.68 -1.36,3.03 -3.04,3.03 -1.67,0 -3.03,-1.35 -3.03,-3.03 0,-1.67 1.36,-3.03 3.03,-3.03zm-1.76 1.27c0.69,-0.69 1.69,-0.89 2.55,-0.6 0.08,0.03 0.13,0.1 0.16,0.18 0.03,0.15 -0.06,0.31 -0.21,0.34 -0.04,0.02 -0.09,0.02 -0.13,0.01 -0.67,-0.23 -1.44,-0.07 -1.98,0.46 -0.47,0.48 -0.64,1.13 -0.53,1.74 0.01,0.08 -0.02,0.17 -0.09,0.23 -0.11,0.1 -0.29,0.1 -0.39,-0.02 -0.03,-0.03 -0.05,-0.07 -0.06,-0.1 -0.15,-0.79 0.07,-1.63 0.68,-2.24z"/>
</svg>
