<svg xmlns="http://www.w3.org/2000/svg" xml:space="preserve" width="24px" height="24px" version="1.1" style="fill-rule:evenodd; clip-rule:evenodd"
viewBox="0 0 30.21 27.58"
>

  <path fill="#fff" d="M30.15 3.29c0.44,-2.12 -1.65,-3.88 -3.66,-3.1l-24.74 9.56c-2.25,0.87 -2.35,4.02 -0.16,5.03l5.39 2.49 2.56 8.97c0.13,0.47 0.5,0.83 0.97,0.95 0.47,0.12 0.97,-0.01 1.31,-0.36l3.95 -3.95 5.53 4.15c1.61,1.2 3.92,0.33 4.32,-1.64l4.53 -22.1zm-27.42 9.01l24.74 -9.56 -4.53 22.1 -6.48 -4.86c-0.54,-0.41 -1.31,-0.35 -1.79,0.13l-1.69 1.69 0.51 -2.79 9.95 -9.95c0.48,-0.48 0.54,-1.25 0.12,-1.8 -0.42,-0.54 -1.17,-0.7 -1.77,-0.36l-13.75 7.86 -5.32 -2.45zm6.99 4.65l0.83 2.9 0.32 -1.75c0.05,-0.27 0.18,-0.53 0.38,-0.72l3.04 -3.04 -4.56 2.61z"/>

</svg>
