
<svg xmlns="http://www.w3.org/2000/svg" xml:space="preserve" width="24px" height="24px" version="1.1"
viewBox="0 0 29.82 24.15"
>
  <path fill="#fff" d="M1.03 8.95c0.91,0.77 1.46,1.91 1.46,3.13 0,1.22 -0.54,2.36 -1.46,3.13l0 3.81c0,0.33 0.28,0.61 0.61,0.61l3.78 0 0 -1.43c0,-0.28 0.23,-0.51 0.51,-0.51 0.28,0 0.52,0.23 0.52,0.51l0 1.43 5.24 0 3.28 0 12.12 0 0.98 0 0.11 0c0.33,0 0.61,-0.28 0.61,-0.61l0 -3.81c-0.91,-0.77 -1.46,-1.91 -1.46,-3.13 0,-1.22 0.54,-2.36 1.46,-3.13l0 -3.81c0,-0.33 -0.28,-0.61 -0.61,-0.61l-9.75 0 -3.28 0 -8.7 0 0 1.43c0,0.28 -0.23,0.51 -0.52,0.51 -0.28,0 -0.51,-0.23 -0.51,-0.51l0 -1.43 -2.4 0 -0.98 0 -0.41 0c-0.33,0 -0.61,0.28 -0.61,0.61l0 3.81zm4.91 -1.65c0.28,0 0.52,0.23 0.52,0.51l0 1.61c0,0.28 -0.23,0.51 -0.52,0.51 -0.28,0 -0.51,-0.23 -0.51,-0.51l0 -1.61c0,-0.28 0.23,-0.51 0.51,-0.51zm0 3.46c0.28,0 0.52,0.23 0.52,0.52l0 1.61c0,0.28 -0.23,0.51 -0.52,0.51 -0.28,0 -0.51,-0.23 -0.51,-0.51l0 -1.61c0,-0.28 0.23,-0.52 0.51,-0.52zm0 3.46c0.28,0 0.52,0.23 0.52,0.52l0 1.61c0,0.28 -0.23,0.51 -0.52,0.51 -0.28,0 -0.51,-0.23 -0.51,-0.51l0 -1.61c0,-0.28 0.23,-0.52 0.51,-0.52zm-3.73 -10.72l0.35 -2.33c0.13,-0.87 0.91,-1.36 1.72,-1.1l10.89 3.43 13.02 0c0.9,0 1.64,0.74 1.64,1.64l0 4.33c-0.87,0.54 -1.46,1.5 -1.46,2.6 0,1.1 0.58,2.07 1.46,2.6l0 4.33c0,0.9 -0.74,1.64 -1.64,1.64l-0.26 0 -0.35 2.33c-0.13,0.87 -0.91,1.36 -1.72,1.1l-10.89 -3.43 -13.32 0c-0.9,0 -1.64,-0.74 -1.64,-1.64l0 -4.33c0.87,-0.54 1.46,-1.5 1.46,-2.6 0,-1.1 -0.58,-2.07 -1.46,-2.6l0 -4.33c0,-0.9 0.74,-1.64 1.64,-1.64l0.56 0zm9.68 0l-7.75 -2.44c-0.3,-0.1 -0.59,0.09 -0.64,0.41l-0.31 2.03 8.7 0zm6.35 17.15l7.75 2.44c0.3,0.1 0.59,-0.09 0.64,-0.41l0.31 -2.03 -8.7 0zm1.43 -12.13l0 0c0.22,0.18 0.24,0.51 0.06,0.73l-5.39 6.33c-0.18,0.22 -0.51,0.24 -0.73,0.06l0 0c-0.22,-0.18 -0.24,-0.51 -0.06,-0.73l5.39 -6.33c0.18,-0.22 0.51,-0.24 0.73,-0.06zm-5.49 -0.18c0.52,0.45 0.59,1.23 0.14,1.76 -0.45,0.52 -1.23,0.59 -1.76,0.14 -0.52,-0.45 -0.59,-1.23 -0.14,-1.76 0.45,-0.52 1.23,-0.59 1.76,-0.14zm0.67 -0.78c0.96,0.82 1.07,2.25 0.26,3.21 -0.82,0.96 -2.25,1.07 -3.21,0.26 -0.96,-0.82 -1.07,-2.25 -0.26,-3.21 0.82,-0.96 2.25,-1.07 3.21,-0.26zm5.87 6.35c0.52,0.45 0.59,1.23 0.14,1.76 -0.45,0.52 -1.23,0.59 -1.76,0.14 -0.52,-0.45 -0.59,-1.23 -0.14,-1.76 0.45,-0.52 1.23,-0.59 1.76,-0.14zm0.67 -0.78c0.96,0.82 1.07,2.25 0.26,3.21 -0.82,0.96 -2.25,1.07 -3.21,0.26 -0.96,-0.82 -1.07,-2.25 -0.26,-3.21 0.82,-0.96 2.25,-1.07 3.21,-0.26z"/>

</svg>
