
<svg xmlns="http://www.w3.org/2000/svg" xml:space="preserve" width="400px" height="200px" version="1.1" style="fill-rule:evenodd; clip-rule:evenodd"
viewBox="0 0 32.73 16.36"
>

  <path fill="#fff" d="M1.34 0l30.05 0c0.73,0 1.34,0.6 1.34,1.34l0 4.91c-1.07,0 -1.94,0.86 -1.94,1.93 0,1.07 0.87,1.94 1.94,1.94l0 4.9c0,0.74 -0.61,1.34 -1.34,1.34l-30.05 0c-0.74,0 -1.34,-0.6 -1.34,-1.34l0 -4.9c1.07,0 1.93,-0.87 1.93,-1.94 0,-1.07 -0.86,-1.93 -1.93,-1.93l0 -4.91c0,-0.74 0.6,-1.34 1.34,-1.34z"/>
</svg>
