<svg xmlns="http://www.w3.org/2000/svg" xml:space="preserve" width="24px" height="24px" version="1.1" style="fill-rule:evenodd; clip-rule:evenodd"
viewBox="0 0 0.56 0.56">

  <path fill="#000" d="M0.5 0.28c0,0.17 -0.19,0.27 -0.33,0.19 -0.02,-0.01 -0.03,-0.01 -0.04,0.01 -0.01,0.01 -0.01,0.03 0.01,0.04 0.18,0.11 0.41,-0.02 0.42,-0.23 0,-0.02 -0.01,-0.04 -0.03,-0.04 -0.02,0 -0.03,0.01 -0.03,0.03zm-0.42 0.15c-0.01,0.01 -0.03,0.01 -0.04,-0.01 -0.11,-0.18 0.02,-0.42 0.24,-0.42 0.02,0 0.03,0.01 0.03,0.03 0,0.02 -0.01,0.03 -0.03,0.03 -0.17,0 -0.27,0.18 -0.19,0.33 0.01,0.02 0.01,0.03 -0.01,0.04zm0.41 -0.32l-0.19 0.19c-0.01,0.01 -0.03,0.01 -0.04,0 -0.01,-0.01 -0.01,-0.03 0,-0.04l0.19 -0.19c-0.02,-0.01 -0.03,-0.01 -0.05,-0.01 -0.02,0 -0.03,-0.01 -0.03,-0.03 0,-0.02 0.01,-0.03 0.03,-0.03l0.13 0c0.02,0 0.03,0.01 0.03,0.03l0 0.13c0,0.02 -0.01,0.03 -0.03,0.03 -0.02,0 -0.03,-0.01 -0.03,-0.03 0,-0.02 0,-0.03 -0.01,-0.05z"/>

</svg>
