<svg xmlns="http://www.w3.org/2000/svg" xml:space="preserve" width="25px" height="23px" version="1.1" style="fill-rule:evenodd; clip-rule:evenodd"
viewBox="0 0 34.63 32.63"
>

  <path fill="#fff" d="M26.09 8.77c0,4.84 -3.93,8.77 -8.77,8.77 -4.85,0 -8.77,-3.93 -8.77,-8.77 0,-4.84 3.92,-8.77 8.77,-8.77 4.84,0 8.77,3.93 8.77,8.77zm-14.57 10.85c-6.18,-0.17 -11.34,4.69 -11.52,10.87 -0.03,1.15 0.87,2.1 2.02,2.14 1.14,0.03 2.1,-0.87 2.14,-2.02 0.11,-3.88 3.35,-6.94 7.24,-6.83l11.78 0c3.95,0 7.18,2.8 7.3,6.83 0.08,2.73 4.23,2.61 4.15,-0.12 -0.18,-6.14 -5.29,-11.02 -11.46,-10.87l-11.65 0zm10.68 -10.85c0,2.69 -2.19,4.88 -4.88,4.88 -2.7,0 -4.88,-2.19 -4.88,-4.88 0,-2.7 2.18,-4.88 4.88,-4.88 2.69,0 4.88,2.18 4.88,4.88z"/>
</svg>
