
<svg xmlns="http://www.w3.org/2000/svg" xml:space="preserve" width="350px" height="115px" version="1.1" style="fill-rule:evenodd; clip-rule:evenodd"
viewBox="0 0 97.94 32.1">

  <path fill="currentColor" d="M5.45 0l29.27 0c1.4,0 2.54,1.14 2.54,2.54l0 0.66c0,1.76 1.44,3.2 3.2,3.2l17.02 0c1.76,0 3.2,-1.44 3.2,-3.2l0 -0.66c0,-1.4 1.14,-2.54 2.54,-2.54l29.27 0c3,0 5.45,2.45 5.45,5.45l0 21.2c0,3 -2.45,5.45 -5.45,5.45l-87.04 0c-3,0 -5.45,-2.45 -5.45,-5.45l0 -21.2c0,-3 2.45,-5.45 5.45,-5.45z"/>

</svg>
