<svg xmlns="http://www.w3.org/2000/svg" xml:space="preserve" width="24px" height="24px" version="1.1" style="fill-rule:evenodd; clip-rule:evenodd"
viewBox="0 0 16.34 16.34"
>

  <path fill="#fff" d="M15.39 0.37l0.58 0.58c0.5,0.49 0.5,1.3 0,1.8l-5.42 5.42 5.42 5.43c0.5,0.49 0.5,1.3 0,1.79l-0.58 0.58c-0.49,0.5 -1.3,0.5 -1.79,0l-5.43 -5.42 -5.42 5.42c-0.5,0.5 -1.31,0.5 -1.8,0l-0.58 -0.58c-0.49,-0.49 -0.49,-1.3 0,-1.79l5.43 -5.43 -5.43 -5.42c-0.49,-0.5 -0.49,-1.31 0,-1.8l0.58 -0.58c0.49,-0.49 1.3,-0.49 1.8,0l5.42 5.43 5.43 -5.43c0.49,-0.49 1.3,-0.49 1.79,0z"/>

</svg>
