
<svg xmlns="http://www.w3.org/2000/svg" xml:space="preserve" width="24px" height="24px" version="1.1" style="fill-rule:evenodd; clip-rule:evenodd"
viewBox="0 0 18.88 14.16"
>

   <path fill="#fff" d="M7.47 3.25c-0.24,-0.14 -0.54,-0.14 -0.79,0 -0.24,0.14 -0.39,0.4 -0.39,0.68l0 6.29c0,0.28 0.15,0.54 0.39,0.68 0.24,0.14 0.54,0.14 0.79,0l5.51 -3.15c0.25,-0.14 0.4,-0.4 0.4,-0.68 0,-0.28 -0.15,-0.54 -0.4,-0.68l-5.51 -3.15zm3.53 3.83l-3.13 1.79 0 -3.58 3.13 1.79z"/>
   <path fill="#fff" d="M-0 7.08c0,-2.95 0,-4.42 0.75,-5.46 0.24,-0.33 0.54,-0.63 0.87,-0.87 1.03,-0.75 2.51,-0.75 5.46,-0.75l4.72 0c2.95,0 4.42,0 5.46,0.75 0.33,0.24 0.63,0.54 0.87,0.87 0.75,1.03 0.75,2.51 0.75,5.46 0,2.95 0,4.42 -0.75,5.46 -0.24,0.33 -0.54,0.63 -0.87,0.87 -1.03,0.75 -2.51,0.75 -5.46,0.75l-4.72 0c-2.95,0 -4.42,0 -5.46,-0.75 -0.33,-0.24 -0.63,-0.54 -0.87,-0.87 -0.75,-1.03 -0.75,-2.51 -0.75,-5.46zm7.08 -5.51l4.72 0c1.51,0 2.52,0 3.28,0.08 0.73,0.08 1.05,0.22 1.26,0.37 0.2,0.15 0.38,0.32 0.52,0.52 0.15,0.2 0.29,0.52 0.37,1.26 0.08,0.76 0.08,1.77 0.08,3.28 0,1.51 -0,2.52 -0.08,3.28 -0.08,0.73 -0.22,1.05 -0.37,1.26 -0.15,0.2 -0.32,0.38 -0.52,0.52 -0.2,0.15 -0.52,0.29 -1.26,0.37 -0.76,0.08 -1.77,0.08 -3.28,0.08l-4.72 0c-1.51,0 -2.52,-0 -3.28,-0.08 -0.73,-0.08 -1.05,-0.22 -1.26,-0.37 -0.2,-0.15 -0.38,-0.32 -0.52,-0.52 -0.15,-0.2 -0.29,-0.52 -0.37,-1.26 -0.08,-0.76 -0.08,-1.77 -0.08,-3.28 0,-1.51 0,-2.52 0.08,-3.28 0.08,-0.73 0.22,-1.05 0.37,-1.26 0.15,-0.2 0.32,-0.38 0.52,-0.52 0.2,-0.15 0.52,-0.29 1.26,-0.37 0.76,-0.08 1.77,-0.08 3.28,-0.08z"/>

</svg>
