<?xml version="1.0" encoding="UTF-8"?>
<!DOCTYPE svg PUBLIC "-//W3C//DTD SVG 1.1//EN" "http://www.w3.org/Graphics/SVG/1.1/DTD/svg11.dtd">
<!-- Creator: CorelDRAW -->
<svg xmlns="http://www.w3.org/2000/svg" xml:space="preserve" width="155px" height="50px" version="1.1" style="shape-rendering:geometricPrecision; text-rendering:geometricPrecision; image-rendering:optimizeQuality; fill-rule:evenodd; clip-rule:evenodd"
viewBox="0 0 43.85 14.15"
 xmlns:xlink="http://www.w3.org/1999/xlink"
 xmlns:xodm="http://www.corel.com/coreldraw/odm/2003">
 <defs>
  <style type="text/css">
   <![CDATA[
    .fil0 {fill:white}
    .fil1 {fill:#1756C2;fill-rule:nonzero}
    .fil3 {fill:#D60F27;fill-rule:nonzero}
    .fil2 {fill:#EFCF00;fill-rule:nonzero}
   ]]>
  </style>
 </defs>
 <g id="Layer_x0020_1">
  <metadata id="CorelCorpID_0Corel-Layer"/>
  <rect class="fil0" width="43.85" height="14.15"/>
  <g id="_2280304695424">
   <path id="path6131" class="fil1" d="M9.13 0.49c-0.58,0 -0.91,0.44 -0.91,1.08l0 0.41 0 4.05 0 0.42c0,0.63 0.33,1.08 0.91,1.08 0.57,0 0.92,-0.45 0.92,-1.08l0 -0.42 0 -4.05 0 -0.41c0,-0.64 -0.35,-1.08 -0.92,-1.08z" inkscape:connector-curvature="0"/>
   <g inkscape:connector-curvature="0">
    <path id="path6133" class="fil1" d="M13.43 2.42l-0.43 0 0 -0.27c0,-0.3 0.17,-0.43 0.63,-0.37 0.5,0.04 0.61,-0.27 0.61,-0.52 0,-0.19 -0.06,-0.29 -0.21,-0.47 -0.32,-0.31 -1.13,-0.3 -1.13,-0.3 0,0 -0.73,-0.04 -1.23,0.36 -0.49,0.38 -0.45,1.08 -0.45,1.08l0 0.49 -0.08 0c-0.32,0 -0.67,0.2 -0.67,0.62 0,0.43 0.39,0.62 0.71,0.62l0.04 0 0 2.92c0,0.5 0.31,0.95 0.92,0.95 0.61,0 0.86,-0.44 0.86,-0.93l0 -2.94 0.43 0c0.23,0 0.71,-0.11 0.71,-0.59 0,-0.5 -0.38,-0.65 -0.71,-0.65l0 0zm0 0l0 0 0 0z"/>
   </g>
   <g inkscape:connector-curvature="0">
    <path id="path6135" class="fil1" d="M18.59 2.26c-0.29,0 -0.53,0.13 -0.68,0.33 -0.29,-0.19 -0.66,-0.33 -1.1,-0.33 -1.87,0 -2.7,1.4 -2.7,2.76 0,1.45 1.01,2.57 2.7,2.57 0.4,0 0.78,-0.14 1.09,-0.34 0.16,0.21 0.39,0.34 0.69,0.34 0.59,0 0.92,-0.45 0.92,-1.08l0 -3.17c0,-0.62 -0.33,-1.08 -0.92,-1.08l0 0zm-2.66 2.69l0 0c0,-1.16 0.56,-1.36 0.93,-1.36 0.02,0 0.04,0 0.05,0 0.43,0.03 0.77,0.32 0.77,1.41 0,1.07 -0.37,1.28 -0.75,1.3 -0.02,0 -0.03,0 -0.06,0 -0.43,0 -0.94,-0.2 -0.94,-1.35l0 0zm0 0l0 0 0 0z"/>
   </g>
   <path id="path6137" class="fil1" d="M7.51 6.14c-0.1,-0.28 -1.64,-4.68 -1.72,-4.89 -0.08,-0.21 -0.16,-0.36 -0.34,-0.49 -0.31,-0.23 -0.97,-0.22 -0.97,-0.22 0,0 -0.65,-0.01 -0.97,0.22 -0.18,0.13 -0.26,0.28 -0.34,0.49 -0.08,0.21 -1.62,4.61 -1.73,4.89 -0.08,0.28 -0.16,0.62 0,0.9 0.18,0.26 0.47,0.49 0.85,0.49 0.38,0 0.72,-0.17 0.87,-0.63 0.14,-0.48 0.22,-0.71 0.22,-0.71l1.1 0 1.1 0c0,0 0.07,0.23 0.22,0.71 0.14,0.46 0.49,0.63 0.86,0.63 0.39,0 0.69,-0.23 0.85,-0.49 0.17,-0.28 0.1,-0.62 0,-0.9l0 0zm-3.72 -1.47l0 0 0.69 -2.23 0.68 2.23 -1.37 0z" inkscape:connector-curvature="0"/>
   <path id="path6139" class="fil2" d="M40.1 12.82l-38.75 0 0 0.84 38.75 0c1.19,0 2.19,-0.87 2.37,-2.01 -0.53,0.72 -1.4,1.17 -2.37,1.17z" inkscape:connector-curvature="0"/>
   <path id="path6141" class="fil3" d="M42.5 9.85l0 -0.67 -38.75 0c-1.32,0 -2.4,1.08 -2.4,2.41l0 0.67 38.75 0c1.33,0 2.4,-1.09 2.4,-2.41z" inkscape:connector-curvature="0"/>
   <g inkscape:connector-curvature="0">
    <path id="path6143" class="fil3" d="M27.43 2.2c-0.98,0 -1.94,1.32 -2.28,1.83 0.02,-0.12 0.04,-0.3 0.1,-0.5 0.07,-0.33 0.13,-0.81 -0.1,-1.09 -0.13,-0.16 -0.33,-0.24 -0.59,-0.24 -0.91,0 -1.8,1.16 -2.19,1.73 0.05,-0.17 0.1,-0.37 0.14,-0.49 0.06,-0.28 0.17,-0.72 -0.01,-0.97 -0.12,-0.16 -0.3,-0.23 -0.56,-0.23 -0.43,0 -0.9,0.2 -0.92,0.2l-0.1 0.05 0.09 0.05c0,0 0.13,0.13 0.03,0.82 -0.17,1.22 -0.57,2.67 -0.73,3.24 -0.08,0.3 -0.07,0.54 0.05,0.7 0.12,0.16 0.34,0.25 0.63,0.25 0.39,0 0.74,-0.13 0.76,-0.15l0.06 -0.01 -0.05 -0.06c0,-0.01 -0.2,-0.31 0.07,-0.9 0.91,-2.02 1.64,-2.82 1.85,-2.96 0.04,-0.02 0.07,-0.05 0.11,-0.05 0.02,0 0.03,0.02 0.03,0.03 0.02,0.01 0.03,0.06 0.02,0.1 -0.07,0.7 -0.37,1.88 -0.56,2.66 -0.04,0.18 -0.08,0.32 -0.11,0.45 -0.07,0.3 -0.04,0.53 0.07,0.69 0.11,0.12 0.3,0.2 0.56,0.2 0.4,0 0.76,-0.15 0.78,-0.15l0.07 -0.03 -0.05 -0.05c0,-0.02 -0.2,-0.28 0.08,-0.9 0.67,-1.56 1.57,-2.77 1.81,-2.95 0.08,-0.05 0.12,-0.06 0.14,-0.06 0.01,0 0.01,0 0.03,0.02 0.02,0.02 0.03,0.09 0.02,0.17 -0.01,0.03 -0.03,0.12 -0.05,0.27 -0.14,0.54 -0.38,1.65 -0.51,2.42 -0.07,0.46 -0.04,0.81 0.13,1 0.14,0.16 0.36,0.26 0.62,0.26 0.46,0 0.89,-0.29 0.91,-0.3l0.07 -0.05 -0.07 -0.04c0,0 -0.32,-0.31 -0.16,-1.21 0.11,-0.61 0.26,-1.31 0.37,-1.82 0.05,-0.25 0.09,-0.46 0.11,-0.58l0.01 -0.04c0.06,-0.28 0.15,-0.79 -0.09,-1.08 -0.13,-0.17 -0.32,-0.23 -0.59,-0.23l0 0zm0 0l0 0 0 0z"/>
   </g>
   <g inkscape:connector-curvature="0">
    <path id="path6145" class="fil3" d="M33.16 2.26c-0.28,0 -0.51,0.07 -0.66,0.22 -0.12,-0.07 -0.5,-0.28 -1.01,-0.28 -0.29,0 -0.72,0.06 -1.19,0.36 -0.54,0.33 -0.98,0.86 -1.35,1.57 -0.82,1.61 -0.43,2.79 -0.22,3.08 0.18,0.25 0.43,0.36 0.79,0.36 0.51,0 1.19,-0.2 2.23,-1.83 -0.03,0.23 -0.07,0.55 -0.07,0.83 0,0.88 0.63,0.98 0.88,0.98 0.67,0 0.9,-0.31 0.91,-0.32l0.02 -0.03 -0.02 -0.04c-0.01,-0.01 -0.32,-0.32 -0.12,-1.97 0.2,-1.57 0.74,-2.65 0.74,-2.66l0.03 -0.05 -0.05 -0.03c-0.02,0 -0.47,-0.19 -0.91,-0.19l0 0zm-2.89 4.1l0 0c-0.13,0 -0.2,-0.23 -0.2,-0.47 0,-0.27 0.13,-1.79 0.77,-2.57 0.14,-0.15 0.31,-0.24 0.48,-0.24 0.42,0 0.8,0.44 0.9,0.55 -0.5,1.02 -1.2,2.07 -1.7,2.58 -0.1,0.11 -0.18,0.15 -0.25,0.15l0 0zm0 0l0 0 0 0z"/>
   </g>
   <g inkscape:connector-curvature="0">
    <path id="path6147" class="fil3" d="M38.27 2.2c-0.72,0 -1.59,1.2 -1.95,1.75 0.06,-0.24 0.15,-0.59 0.22,-0.92 0.04,-0.24 0.01,-0.43 -0.08,-0.56 -0.13,-0.14 -0.33,-0.21 -0.62,-0.21 -0.41,0 -0.9,0.18 -0.92,0.18l-0.07 0.03 0.06 0.06c0,0.01 0.14,0.19 0.05,0.86 -0.11,0.72 -0.57,2.52 -0.76,3.25 -0.09,0.3 -0.07,0.51 0.04,0.66 0.16,0.23 0.48,0.25 0.7,0.25 0.37,0 0.75,-0.13 0.76,-0.15l0.07 -0.01 -0.04 -0.06c0,-0.01 -0.18,-0.28 0.03,-0.82 0.55,-1.39 1.16,-2.21 1.53,-2.48 0.08,-0.06 0.17,-0.1 0.25,-0.1 0.2,0 0.33,0.23 0.33,0.23l0.03 0.05 0.05 -0.04c0.19,-0.19 0.53,-0.6 0.66,-0.97 0.08,-0.22 0.2,-0.61 0.03,-0.83 -0.07,-0.12 -0.2,-0.17 -0.37,-0.17l0 0zm0 0l0 0 0 0z"/>
   </g>
   <path id="path6149" class="fil3" d="M42.43 2.86c-0.2,0.07 -0.7,0.11 -1.36,0.11 -0.08,0 -0.14,0 -0.18,0 0.03,-0.17 0.15,-0.66 0.28,-1.12 0.08,-0.28 0.07,-0.51 -0.04,-0.65 -0.12,-0.15 -0.31,-0.21 -0.6,-0.21 -0.4,0 -0.98,0.18 -1.01,0.19l-0.08 0.03 0.07 0.07c0.22,0.22 -0.02,1.33 -0.12,1.73 -0.01,0.03 -0.58,2.21 -0.58,3.25 0,0.88 0.48,1.31 1.4,1.31 0.43,0 1.05,-0.11 1.47,-0.48 0.18,-0.16 0.26,-0.38 0.22,-0.62 -0.03,-0.17 -0.12,-0.31 -0.12,-0.32l-0.03 -0.06 -0.05 0.05c-0.01,0 -0.2,0.19 -0.57,0.31 -0.15,0.05 -0.26,0.07 -0.37,0.07 -0.12,0 -0.23,-0.05 -0.32,-0.13 -0.22,-0.21 -0.08,-0.99 -0.03,-1.24 0.07,-0.4 0.24,-1.14 0.28,-1.32 0.07,0 0.21,0 0.38,0 0.16,0 0.29,0 0.41,0 0.79,0.01 1.02,-0.6 1.02,-0.92l0 -0.09 -0.07 0.04z" inkscape:connector-curvature="0"/>
  </g>
 </g>
</svg>
