<svg width="24" height="24" viewBox="0 0 24 24" fill="none" xmlns="http://www.w3.org/2000/svg">
<path fill-rule="evenodd" clip-rule="evenodd" d="M11.9999 1C9.3766 1 7.24995 3.12665 7.24995 5.75V6.18575C6.8693 6.26088 6.51746 6.36816 6.17956 6.52306C5.17413 6.98397 4.32296 7.72509 3.72811 8.65756C3.36807 9.22195 3.15443 9.8533 2.98661 10.6235C2.82218 11.378 2.69153 12.3188 2.52531 13.5156L2.5161 13.5819C2.30219 15.122 2.13498 16.3259 2.08419 17.2957C2.03262 18.2803 2.095 19.1008 2.3912 19.8541C2.87532 21.0853 3.76921 22.112 4.92213 22.7609C5.62751 23.1579 6.43165 23.3325 7.41401 23.4169C8.38153 23.5 9.59703 23.5 11.1519 23.5H12.848C14.4029 23.5 15.6184 23.5 16.5859 23.4169C17.5683 23.3325 18.3724 23.1579 19.0778 22.7609C20.2307 22.112 21.1246 21.0853 21.6087 19.8541C21.9049 19.1008 21.9673 18.2803 21.9157 17.2957C21.8649 16.3259 21.6977 15.1219 21.4838 13.5818L21.4746 13.5156C21.3084 12.3188 21.1777 11.378 21.0133 10.6235C20.8455 9.8533 20.6318 9.22195 20.2718 8.65756C19.6769 7.72509 18.8258 6.98397 17.8203 6.52306C17.4824 6.36816 17.1306 6.26088 16.7499 6.18575V5.75C16.7499 3.12665 14.6233 1 11.9999 1ZM7.99995 11.5C7.58574 11.5 7.24995 11.1642 7.24995 10.75V7.72563C7.08707 7.77076 6.94106 7.82407 6.80465 7.88661C6.0615 8.22728 5.43238 8.77507 4.99271 9.46428C4.76575 9.82006 4.60097 10.2602 4.45221 10.9428C4.30146 11.6347 4.17819 12.5185 4.00678 13.7526C3.78688 15.3359 3.62916 16.4762 3.58213 17.3741C3.5355 18.2646 3.60384 18.839 3.78716 19.3052C4.14499 20.2153 4.80569 20.9741 5.65785 21.4537C6.09443 21.6994 6.65393 21.8461 7.54237 21.9224C8.43819 21.9994 9.58936 22 11.1879 22H12.812C14.4105 22 15.5617 21.9994 16.4575 21.9224C17.346 21.8461 17.9055 21.6994 18.3421 21.4537C19.1942 20.9741 19.8549 20.2153 20.2127 19.3052C20.3961 18.839 20.4644 18.2646 20.4178 17.3741C20.3707 16.4762 20.213 15.3359 19.9931 13.7526C19.8217 12.5185 19.6984 11.6347 19.5477 10.9428C19.3989 10.2602 19.2342 9.82006 19.0072 9.46428C18.5675 8.77507 17.9384 8.22729 17.1953 7.88661C17.0588 7.82407 16.9128 7.77076 16.7499 7.72563V10.75C16.7499 11.1642 16.4142 11.5 15.9999 11.5C15.5857 11.5 15.2499 11.1642 15.2499 10.75V7.52999C14.6161 7.50051 13.8338 7.5 12.812 7.5H11.1879C10.1661 7.5 9.3838 7.50051 8.74995 7.52999V10.75C8.74995 11.1642 8.41416 11.5 7.99995 11.5ZM12.8573 6C13.7972 5.99999 14.5821 5.99999 15.2499 6.02865V5.75C15.2499 3.95507 13.7949 2.5 11.9999 2.5C10.205 2.5 8.74995 3.95507 8.74995 5.75V6.02865C9.41783 5.99999 10.2027 5.99999 11.1426 6H12.8573Z" fill="#2D264B"/>
</svg>
