<svg width="24" height="24" viewBox="0 0 24 24" fill="none" xmlns="http://www.w3.org/2000/svg">
<path fill-rule="evenodd" clip-rule="evenodd" d="M11.9999 0.25C8.91177 0.25 6.3922 2.68452 6.25577 5.73903C6.23027 5.75012 6.20487 5.76146 6.17956 5.77306C5.17413 6.23397 4.32296 6.97509 3.72811 7.90756C3.57281 8.15101 3.44418 8.40771 3.33444 8.68458C2.9611 9.62653 2.7885 10.8698 2.53734 12.6789L2.5161 12.8319C2.30219 14.372 2.13498 15.5759 2.08419 16.5457C2.03262 17.5303 2.095 18.3508 2.3912 19.1041C2.87532 20.3353 3.76921 21.362 4.92213 22.0109C5.62751 22.4079 6.43165 22.5825 7.41401 22.6669C8.38153 22.75 9.59703 22.75 11.1519 22.75H12.848C14.4029 22.75 15.6184 22.75 16.5859 22.6669C17.5683 22.5825 18.3724 22.4079 19.0778 22.0109C20.2307 21.362 21.1246 20.3353 21.6087 19.1041C21.9049 18.3508 21.9673 17.5303 21.9157 16.5457C21.8649 15.5759 21.6977 14.3719 21.4838 12.8318L21.4594 12.6563C21.1935 10.7402 21.0153 9.4568 20.5818 8.48569C20.4913 8.28298 20.389 8.09131 20.2718 7.90756C19.6769 6.97509 18.8258 6.23397 17.8203 5.77306C17.795 5.76146 17.7696 5.75012 17.7441 5.73903C17.6077 2.68452 15.0881 0.25 11.9999 0.25ZM11.0462 5.24999C9.69288 5.24987 8.65217 5.24978 7.79918 5.35109C8.11159 3.31188 9.87337 1.75 11.9999 1.75C14.1265 1.75 15.8883 3.31188 16.2007 5.35109C15.3477 5.24978 14.307 5.24987 12.9537 5.24999H11.0462ZM7.20923 6.98719C7.99972 6.75748 9.06872 6.75 11.1879 6.75H12.812C14.9312 6.75 16.0002 6.75748 16.7907 6.98719C16.936 7.02942 17.0692 7.07882 17.1953 7.13661C17.9174 7.46767 18.5319 7.99432 18.9695 8.65629L18.4193 9.20647C16.7377 10.8881 15.5287 12.0949 14.4859 12.8905C13.4604 13.673 12.6842 13.9868 11.8786 13.9868C11.073 13.9868 10.2969 13.673 9.27136 12.8905C8.22855 12.0949 7.01953 10.8881 5.33787 9.20647L4.93696 8.80556C4.9551 8.77452 4.97367 8.74412 4.99271 8.71428C5.43238 8.02507 6.0615 7.47728 6.80465 7.13661C6.9307 7.07882 7.06387 7.02943 7.20923 6.98719ZM19.5492 10.1979C19.6936 10.8655 19.8189 11.7481 19.9931 13.0026C20.213 14.5859 20.3707 15.7262 20.4178 16.6241C20.4644 17.5146 20.3961 18.089 20.2127 18.5552C19.8549 19.4653 19.1942 20.2241 18.3421 20.7037C17.9055 20.9494 17.346 21.0961 16.4575 21.1724C15.5617 21.2494 14.4105 21.25 12.812 21.25H11.1879C9.58936 21.25 8.43819 21.2494 7.54237 21.1724C6.65393 21.0961 6.09443 20.9494 5.65785 20.7037C4.80569 20.2241 4.14499 19.4653 3.78716 18.5552C3.60384 18.089 3.5355 17.5146 3.58213 16.6241C3.62916 15.7262 3.78688 14.5859 4.00678 13.0026C4.16381 11.872 4.28079 11.0427 4.409 10.3989C5.99785 11.9877 7.25041 13.2353 8.36149 14.0831C9.52042 14.9673 10.6132 15.4868 11.8786 15.4868C13.1441 15.4868 14.2368 14.9673 15.3957 14.0831C16.528 13.2192 17.8072 11.94 19.4394 10.3077L19.5492 10.1979Z" fill="#2D264B"/>
</svg>
