<?xml version="1.0" encoding="UTF-8"?>
<!DOCTYPE svg PUBLIC "-//W3C//DTD SVG 1.1//EN" "http://www.w3.org/Graphics/SVG/1.1/DTD/svg11.dtd">
<!-- Creator: CorelDRAW -->
<svg xmlns="http://www.w3.org/2000/svg" xml:space="preserve" width="100px" height="50px" version="1.1" style="shape-rendering:geometricPrecision; text-rendering:geometricPrecision; image-rendering:optimizeQuality; fill-rule:evenodd; clip-rule:evenodd"
viewBox="0 0 67.66 33.83"
 xmlns:xlink="http://www.w3.org/1999/xlink"
 xmlns:xodm="http://www.corel.com/coreldraw/odm/2003">
 <defs>
  <style type="text/css">
   <![CDATA[
    .fil0 {fill:#005FAF}
    .fil1 {fill:white;fill-rule:nonzero}
   ]]>
  </style>
 </defs>
 <g id="Layer_x0020_1">
  <metadata id="CorelCorpID_0Corel-Layer"/>
  <rect class="fil0" width="67.66" height="33.83"/>
  <g id="_2279823723728">
   <path class="fil1" d="M35.72 16.58c2.78,-1.26 3.19,-5.38 -0.77,-5.38l-4.59 0 -1.69 3.32 0.8 0 -2.03 7.95 5.32 0c3.88,0.03 5.62,-4.54 2.96,-5.89zm-2.96 2.99l-1.33 0 0.5 -1.79 1.26 0c1.5,0.3 0.56,1.86 -0.43,1.79l0 0zm0.8 -3.82l-1.13 0 0.33 -1.56 1.26 0c1.22,0.3 0.17,1.63 -0.46,1.56l0 0z"/>
   <path class="fil1" d="M46.6 15.44l1.75 -3.07 -2.36 -1.23 -0.31 0.38c-1.27,-0.67 -7.93,0.26 -8.34,6.82 0.25,5.51 6.42,4.52 7.02,4.17l1.7 -3.51c-1.66,1.09 -5.06,1.62 -5.21,-1.67 0.3,-2.71 3.5,-3.72 5.75,-1.89l0 0zm8.69 -4.24l-5.35 0 -1.7 3.22 0.87 0 -4.03 8.05 3.9 0 0.81 -1.94 2.39 0 0.06 1.94 3.6 0 -0.55 -11.27 0 0zm-4.42 6.71l1.31 -3.13 0.06 3.13 -1.37 0z"/>
   <g>
    <path class="fil1" d="M21.86 21.93l0.21 -0.06 -0.23 -0.32 0.02 0.38zm-3.41 -0.06l-0.04 0.29c0.1,-0.01 0.23,0.07 0.28,-0.13 0,-0.15 -0.12,-0.16 -0.24,-0.16zm1.66 0c-0.02,-0.08 -0.09,-0.14 -0.25,-0.08l0.06 0.29c0.13,-0.03 0.2,-0.11 0.19,-0.21zm-3.75 -0.24l-0.06 0.26c0.1,0 0.22,0.09 0.29,-0.07 0.01,-0.09 0.01,-0.19 -0.23,-0.19zm3.61 0.66l0.04 0.3c0.11,0 0.21,-0.07 0.18,-0.21 -0.02,-0.13 -0.14,-0.11 -0.22,-0.09z"/>
    <path class="fil1" d="M24.33 11.35c-3.55,-1.81 -7.8,-1.76 -11.18,-0.08 -1.75,3.07 -1.8,7.37 0,11.18 3.73,1.88 7.85,1.76 11.2,0.08 1.58,-3.24 1.84,-7.12 -0.02,-11.18zm-6 9.17l-0.21 0.01c-0.05,-0.59 -0.19,-1.08 -0.49,-1.45 -1.37,-1.72 -4.17,-0.42 -3.45,-3.34 0.38,-1.49 4.64,-2.37 4.15,4.78l0 0zm-4.14 -2.88c0.3,0.61 2.17,0.71 2.82,1.18 1.03,0.73 0.88,1.71 0.88,1.71l-0.24 0c-0.48,-1.47 -1.82,-0.31 -2.9,-0.7 -0.67,-0.24 -1.17,-1.29 -0.56,-2.19l0 0zm3.41 4.78l0.1 -0.79 0.18 0.01 -0.08 0.88c-0.08,0.39 -0.66,0.33 -0.73,-0.04l0.09 -0.91 0.22 0.04 -0.1 0.76c0.01,0.25 0.27,0.24 0.32,0.05l0 0zm-0.97 0.22l-0.2 -0.05c0.02,-0.17 0.22,-0.52 -0.18,-0.52l-0.11 0.46 -0.23 -0.04 0.25 -1.09c0.59,0.06 0.64,0.23 0.65,0.4 -0.02,0.14 -0.06,0.23 -0.18,0.26 0.14,0.12 0.01,0.39 0,0.58l0 0zm-1.31 -1.22c-0.05,0.08 -0.17,0.34 -0.18,0.55 -0.02,0.22 0.19,0.18 0.24,0.15 0.05,-0.02 0.08,-0.2 0.08,-0.2l-0.15 -0.05 0.05 -0.15 0.34 0.11 -0.16 0.57 -0.14 -0.04 0.01 -0.09c-0.17,0.08 -0.48,0.02 -0.51,-0.17 -0.04,-0.16 0.07,-0.63 0.25,-0.85 0.17,-0.22 0.59,-0.01 0.6,0.12 0.01,0.13 -0.04,0.28 -0.04,0.28l-0.16 -0.03c0,0 0.01,-0.05 0.02,-0.12 0.02,-0.08 -0.19,-0.16 -0.25,-0.08l0 0zm3.07 0.92l-0.04 0.48 -0.17 -0.01 0.06 -1.14c0.42,0 0.66,0.06 0.65,0.36 -0.02,0.4 -0.35,0.31 -0.5,0.31zm0.42 -1.81l-0.28 0c-0.03,-1 0.16,-2.81 -0.36,-4.15 -0.4,-1.02 -1.4,-1.47 -1.62,-2.29 -0.35,-1.3 0.25,-2.7 2.26,-2.81 1.74,0.18 2.27,1.53 1.97,2.78 -0.51,1.25 -1.02,1.07 -1.65,2.31 -0.52,1.34 -0.32,3.09 -0.32,4.16l0 0zm3.11 1.83l-0.2 0.07 -0.06 -1.15 0.23 -0.06 0.56 0.95 -0.15 0.1 -0.19 -0.27 -0.21 0.08 0.02 0.28 0 0zm-2.27 -1.83l-0.23 0c0.19,-2.56 3.39,-2 3.69,-2.89 0.5,0.88 0.32,1.62 -0.21,2 -1.31,0.94 -2.57,-0.7 -3.25,0.89l0 0zm1.19 1.28l0.1 0.53c0.06,0.13 0.1,0.1 0.2,0.09 0.11,-0.08 0.09,-0.16 0.07,-0.26l0.19 -0.03c0.05,0.39 -0.13,0.43 -0.27,0.45 -0.29,0.02 -0.35,-0.03 -0.43,-0.41 -0.04,-0.33 -0.12,-0.67 0.15,-0.74 0.45,-0.06 0.42,0.14 0.46,0.28l-0.19 0.03c-0.03,-0.12 -0.08,-0.17 -0.18,-0.16 -0.09,0.04 -0.12,0.11 -0.1,0.22l0 0zm-0.41 0.55c0.01,0.17 -0.05,0.28 -0.16,0.32l-0.45 0.09 -0.18 -1.1c0.09,-0.02 0.55,-0.19 0.66,0.12 0.06,0.18 0,0.25 -0.07,0.33 0.13,0.04 0.17,0.14 0.2,0.24l0 0zm-1.17 -5.55c1.01,-2.86 3.34,-2.36 3.85,-1.07 0.71,2.58 -1.56,1.88 -3.02,2.93 -0.55,0.48 -0.84,1.03 -0.85,1.87l-0.25 0c-0.01,-1.68 -0.04,-2.87 0.27,-3.73l0 0z"/>
   </g>
  </g>
 </g>
</svg>
