<?xml version="1.0" encoding="UTF-8"?>
<!DOCTYPE svg PUBLIC "-//W3C//DTD SVG 1.1//EN" "http://www.w3.org/Graphics/SVG/1.1/DTD/svg11.dtd">
<!-- Creator: CorelDRAW -->
<svg xmlns="http://www.w3.org/2000/svg" xml:space="preserve" width="100px" height="50px" version="1.1" style="shape-rendering:geometricPrecision; text-rendering:geometricPrecision; image-rendering:optimizeQuality; fill-rule:evenodd; clip-rule:evenodd"
viewBox="0 0 67.66 33.83"
 xmlns:xlink="http://www.w3.org/1999/xlink"
 xmlns:xodm="http://www.corel.com/coreldraw/odm/2003">
 <defs>
  <style type="text/css">
   <![CDATA[
    .fil0 {fill:#006577}
    .fil2 {fill:#FC5204}
    .fil1 {fill:white}
   ]]>
  </style>
 </defs>
 <g id="Layer_x0020_1">
  <metadata id="CorelCorpID_0Corel-Layer"/>
  <rect class="fil0" width="67.66" height="33.83"/>
  <g id="_2280284567600">
   <path class="fil1" d="M39.54 9.47c-0.07,-0.01 -0.08,0.01 -0.17,0.01 -0.06,0 -0.14,-0.05 -0.14,0.04 0,0.05 0.04,0.05 0.09,0.08 0.15,0.11 0.27,0.24 0.4,0.38 0.03,0.04 0.03,0.05 0.07,0.09l0.27 0.51c0.03,0.06 0.05,0.18 0.07,0.24 0.02,0.09 0.04,0.18 0.04,0.28l0 11.06c0,0.17 -0.06,0.31 -0.13,0.45 -0.16,0.32 -0.45,0.57 -0.75,0.77 -0.1,0.07 -0.16,0.14 0.04,0.14 0.41,-0.01 3.4,0.02 3.5,0 0.04,-0.01 0.07,-0.02 0.05,-0.06 -0.01,-0.05 -0.1,-0.1 -0.13,-0.12 -0.15,-0.12 -0.27,-0.25 -0.4,-0.39l-0.2 -0.25c-0.1,-0.11 -0.17,-0.26 -0.23,-0.4 -0.03,-0.07 -0.03,-0.17 -0.03,-0.26l0 -8.71c0,-0.07 0.01,-0.1 0.03,-0.14 0.09,0.05 0.14,0.14 0.19,0.22l0.68 0.89c0.05,0.06 0.1,0.12 0.15,0.19 0.05,0.06 0.08,0.11 0.13,0.17 0.03,0.04 0.05,0.06 0.08,0.1 0.03,0.04 0.04,0.06 0.07,0.09 0.24,0.3 0.46,0.62 0.7,0.93l1.28 1.68c0.03,0.03 0.04,0.05 0.07,0.09l0.14 0.18c0.02,0.03 0,0 0.02,0.02l0.76 1c0.18,0.25 0.38,0.49 0.56,0.74l0.22 0.29c0.03,0.05 0.02,0.04 0.06,0.09l1.26 1.68c0.09,0.11 0.15,0.23 0.24,0.33l0.57 0.67 1.32 1.13c0.05,0.03 0.06,0.04 0.11,0.07l0.92 0.54c0.06,0.03 0.14,0.1 0.21,0.06 0.06,-0.11 0.02,-3.5 0.02,-3.95l0 -9.39c0,-0.07 -0.01,-0.16 0.01,-0.23l0.1 -0.29c0.12,-0.21 0.16,-0.32 0.34,-0.51 0.34,-0.36 0.3,-0.25 0.53,-0.45 -0.1,-0.02 -0.13,-0.04 -0.27,-0.03l-0.12 0c-0.15,0.01 -0.24,0 -0.38,0 -0.05,0 -0.08,0.01 -0.11,0.01l-0.52 -0.01c-0.06,0 -0.08,0.01 -0.12,0.01 -0.04,0 -0.05,-0.01 -0.12,-0.01l-1.1 0c-0.09,0 -0.12,0.02 -0.18,0.01 -0.08,0 -0.01,-0.01 -0.09,0l-0.72 -0.01c-0.06,0 -0.06,0.02 -0.12,0.03 0.02,0.02 0,0.01 0.03,0.03 0.02,0.01 0.01,0 0.04,0.01 0.18,0.11 0.36,0.26 0.52,0.41l0.28 0.3c0.07,0.1 0.16,0.22 0.19,0.33 0.01,0.04 0.01,0.04 0.02,0.07 0.02,0.03 0.02,0.02 0.03,0.05 0.05,0.11 0.06,0.35 0.06,0.47l0 8.51c0,0.04 -0.02,0.05 -0.06,0.05 -0.04,0 -0.1,-0.11 -0.14,-0.15l-0.03 -0.04c-0.14,-0.17 -0.31,-0.44 -0.45,-0.62l-0.49 -0.66c-0.28,-0.34 -0.52,-0.73 -0.8,-1.07l-1.16 -1.57c-0.14,-0.17 -0.29,-0.42 -0.43,-0.58l-2.93 -3.95c-0.02,-0.03 -0.04,-0.05 -0.06,-0.08l-0.12 -0.16c-0.17,-0.21 -0.32,-0.46 -0.49,-0.66l-0.36 -0.5c-0.16,-0.22 -0.15,-0.22 -0.34,-0.24l-2.39 0c-0.09,0 -0.13,-0.01 -0.19,-0.01zm19.92 0.06c-0.04,-0.02 -0.03,-0.03 -0.07,-0.03l-4.32 0c-0.06,0 -0.08,0.02 -0.1,0.05 0.06,0.02 0.15,0.09 0.21,0.12 0.15,0.1 0.41,0.35 0.54,0.49l0.11 0.13c0.05,0.06 0.08,0.12 0.12,0.19 0.08,0.16 0.15,0.29 0.15,0.48l0 11.31c0,0.1 -0.04,0.11 -0.07,0.21 -0.08,0.28 -0.41,0.56 -0.62,0.75l-0.08 0.07c-0.01,0 -0.01,0.01 -0.01,0.01 -0.09,0.06 -0.03,0.04 -0.14,0.11 -0.05,0.02 -0.04,0 -0.06,0.06 0.06,0.08 0.06,0.04 0.14,0.04l3.93 0c0.09,0 0.08,0.01 0.16,0.01l0.04 -0.06 -0.55 -0.56c-0.04,-0.04 -0.03,-0.04 -0.06,-0.09 -0.03,-0.06 -0.03,-0.04 -0.06,-0.1 -0.07,-0.13 -0.05,-0.06 -0.11,-0.2 -0.09,-0.23 -0.13,-0.35 -0.13,-0.6l0 -10.33c0,-0.23 0.01,-0.23 0.02,-0.37 0.01,-0.41 -0.07,-0.22 0.07,-0.66 0.05,-0.14 0.22,-0.43 0.33,-0.54l0.27 -0.27c0,0 0.01,0 0.01,-0.01 0.12,-0.11 0.24,-0.16 0.28,-0.21zm-29.87 7.03c0.04,-0.02 0.08,-0.03 0.14,-0.03l2.44 0c0.13,0 0.23,0 0.36,0.02 0.05,0 0.1,0.02 0.15,0.03 0.18,0.05 0.04,-0.01 0.31,0.08 0.06,0.02 0.1,0.02 0.16,0.04 0.04,0.01 0.08,0.03 0.13,0.05l0.83 0.48c0.23,0.18 0.46,0.43 0.63,0.67 0.15,0.22 0.3,0.52 0.36,0.78 0.01,0.06 0.03,0.07 0.04,0.12 0.03,0.08 0.04,0.23 0.06,0.33 0.05,0.26 0.03,0.41 -0.02,0.66 -0.03,0.16 0,0.15 -0.06,0.28 -0.02,0.06 -0.02,0.09 -0.04,0.15l-0.32 0.57c-0.03,0.04 -0.05,0.06 -0.08,0.1l-0.35 0.36c-0.16,0.14 -0.34,0.25 -0.52,0.36l-0.3 0.15c-0.24,0.12 -0.35,0.13 -0.45,0.18 -0.09,0.04 -0.18,0.03 -0.28,0.07 -0.13,0.05 -0.45,0.06 -0.63,0.06l-2.42 0c-0.2,0 -0.14,-0.09 -0.14,-0.53l0 -4.98zm0.05 -1.41c-0.07,0 -0.05,-0.12 -0.05,-0.21l0 -1.77c0,-0.33 0.02,-1.48 0,-1.78l0 -0.2c0,-0.06 -0.01,0.03 0,-0.06 0,-0.01 0,-0.05 0,-0.06 0,-0.05 0,-0.11 0,-0.16 0.02,-0.01 0.06,-0.02 0.09,-0.02 0.38,0 1.68,-0.03 1.96,0.04 0.07,0.01 0.18,0.02 0.25,0.03 0.13,0.01 0.13,0.04 0.22,0.05 0.26,0.04 0.1,0.03 0.33,0.09l0.3 0.12c0.39,0.2 0.48,0.28 0.75,0.56l0.2 0.3 0.12 0.3c0.06,0.15 0.06,0.3 0.06,0.49l0 0.26c0,0.09 -0.01,0.16 -0.02,0.26 0,0.1 -0.15,0.54 -0.2,0.64l-0.35 0.48c-0.11,0.12 -0.17,0.16 -0.31,0.25 -0.06,0.03 -0.11,0.08 -0.17,0.1l-0.19 0.09c-0.31,0.1 -0.11,0.07 -0.55,0.15 -0.06,0.01 -0.05,0.02 -0.11,0.03 -0.25,0.04 -1.95,0.02 -2.33,0.02zm6.56 -1.98c0.07,-0.24 0.04,-0.66 0.04,-0.92 0,-0.08 -0.02,-0.11 -0.04,-0.17 -0.04,-0.11 -0.04,-0.19 -0.08,-0.32 -0.02,-0.06 -0.02,-0.09 -0.05,-0.14l-0.12 -0.28c-0.09,-0.21 -0.26,-0.44 -0.4,-0.61 -0.04,-0.04 -0.05,-0.06 -0.09,-0.11l-0.24 -0.22c-0.01,-0.01 -0.01,-0.01 -0.01,-0.01l-0.16 -0.14c0,0 -0.01,-0.01 -0.01,-0.01 -0.03,-0.02 -0.03,-0.02 -0.06,-0.04 -0.3,-0.24 -0.91,-0.57 -1.28,-0.62 -0.06,0 -0.11,-0.02 -0.17,-0.04 -0.13,-0.04 -0.39,-0.04 -0.55,-0.04l-6.4 0c-0.17,0 -0.28,-0.04 -0.34,0.05 0.09,0.02 0.15,0.1 0.22,0.16l0.13 0.11c0.01,0.01 0.02,0.01 0.02,0.02 0.09,0.07 0.17,0.14 0.23,0.24l0.14 0.22c0.06,0.08 0.11,0.15 0.14,0.25 0.05,0.17 0.03,0 0.08,0.28 0.01,0.06 0.03,0.11 0.04,0.15 0.03,0.19 0,0.24 0.01,0.34 0.04,0.32 0.01,1.86 0.01,2.3 0,0.32 -0.02,0.59 -0.02,0.89l0.02 1.25c0,0.14 -0.02,0.21 -0.02,0.35 0.01,0.26 0.02,0.46 0.02,0.71 0,0.26 -0.01,0.47 -0.02,0.73 0,0.13 0.02,0.22 0.02,0.37l0 1.51c0,0.32 -0.02,0.59 -0.02,0.89 0,0.37 0.07,1.42 -0.01,1.75 -0.03,0.1 -0.03,0.21 -0.08,0.28l-0.11 0.25c-0.07,0.14 -0.2,0.29 -0.32,0.4 -0.03,0.02 -0.01,0.01 -0.04,0.04 -0.02,0.02 -0.03,0.02 -0.04,0.04l-0.28 0.25c-0.02,0.01 -0.03,0.02 -0.05,0.03 -0.06,0.04 -0.13,0.06 -0.16,0.11 0.04,0.02 0.03,0.03 0.1,0.03 0.32,0.02 0.66,-0.04 0.97,0.01 0.3,0.04 0.76,0.01 1.1,0.01l4.66 0c0.12,0 0.43,-0.03 0.51,-0.05 0.09,-0.03 0.12,-0.05 0.23,-0.06 0.11,0 0.2,-0.05 0.31,-0.08l0.3 -0.1c0.08,-0.03 0.13,-0.04 0.21,-0.07 0.05,-0.02 0.05,-0.02 0.1,-0.04 0.07,-0.02 0.03,-0.01 0.08,-0.04 0.1,-0.05 0.36,-0.15 0.56,-0.27 0.05,-0.03 0.05,-0.02 0.1,-0.05 0.14,-0.06 0.35,-0.21 0.49,-0.31l0.2 -0.14c0.01,-0.01 0.01,-0.02 0.03,-0.03l0.32 -0.28c0,0 0.01,-0.01 0.01,-0.01 0.22,-0.21 0.41,-0.44 0.59,-0.68l0.1 -0.17c0.09,-0.19 0.23,-0.36 0.28,-0.56l0.14 -0.41 0.07 -0.46 0.02 -0.71c0,-0.32 -0.02,-0.32 -0.07,-0.58 -0.01,-0.05 -0.02,-0.13 -0.03,-0.17l-0.06 -0.18c-0.01,-0.08 -0.03,-0.08 -0.05,-0.15 -0.12,-0.35 -0.3,-0.67 -0.52,-0.96 -0.02,-0.02 -0.03,-0.03 -0.05,-0.06l-0.09 -0.11c-0.02,-0.03 -0.03,-0.03 -0.05,-0.06 -0.02,-0.02 -0.03,-0.03 -0.05,-0.05 0,-0.01 -0.01,-0.01 -0.01,-0.01 0,-0.01 0,-0.01 -0.01,-0.01 0,0 0,-0.01 -0.01,-0.01 0,0 -0.02,-0.02 -0.02,-0.03l-0.04 -0.04c-0.01,0 -0.01,-0.01 -0.01,-0.01 -0.01,0 -0.01,0 -0.01,-0.01 -0.2,-0.19 -0.41,-0.37 -0.64,-0.52 -0.47,-0.31 -0.7,-0.42 -1.19,-0.6 -0.09,-0.04 -0.15,-0.07 -0.24,-0.08 0.02,-0.07 0.01,-0.04 0.07,-0.07l0.27 -0.11c0.05,-0.03 0.05,-0.02 0.1,-0.04 0.17,-0.09 0.38,-0.25 0.52,-0.39l0.5 -0.68c0.06,-0.11 0.14,-0.35 0.17,-0.47 0.02,-0.1 0.05,-0.11 0.06,-0.21 0.01,-0.09 0.01,-0.14 0.03,-0.22z"/>
   <path class="fil2" d="M15.3 17.81c0,-0.05 -0.01,-0.09 -0.04,-0.12l-0.01 -0.02c-0.14,-0.16 -0.25,-0.33 -0.38,-0.5l-0.01 -0.02c-0.1,-0.13 -0.24,-0.34 -0.35,-0.47 -0.07,-0.08 -0.12,-0.18 -0.18,-0.27l-0.21 -0.31c-0.02,-0.06 -0.04,-0.07 -0.07,-0.12l-0.4 -0.68c-0.03,-0.03 -0.01,-0.01 -0.03,-0.05l-0.22 -0.41c-0.08,-0.14 -0.25,-0.47 -0.29,-0.6 -0.03,-0.07 -0.03,-0.05 -0.06,-0.13 -0.01,-0.04 0,-0.04 -0.02,-0.07l-0.13 -0.32c-0.02,-0.06 0.01,-0.02 -0.02,-0.08 -0.05,-0.09 -0.04,-0.11 -0.07,-0.19 -0.03,-0.06 -0.04,-0.03 -0.05,-0.12 -0.03,-0.17 -0.05,-0.05 -0.09,-0.29 -0.01,-0.07 -0.04,-0.11 -0.07,-0.27 -0.01,-0.06 -0.03,-0.07 -0.05,-0.13 -0.02,-0.06 -0.01,-0.09 -0.03,-0.16 -0.01,-0.05 -0.03,-0.09 -0.04,-0.13 -0.02,-0.11 -0.01,-0.2 -0.05,-0.3 -0.05,-0.16 -0.04,-0.45 -0.08,-0.65 -0.05,-0.21 -0.03,-0.43 -0.03,-0.65 0,-0.24 0.07,-0.38 0.07,-0.64 0,-0.06 0.11,-0.5 0.14,-0.58 -0.03,-0.01 -0.03,-0.01 -0.08,-0.02l-4.23 0.01 0 2.38c0,0.05 0.02,0.07 0.05,0.11l0.8 1.01c0.08,0.12 0.18,0.23 0.27,0.33l0.09 0.12c0.14,0.17 0.26,0.37 0.41,0.53 0,0 0.01,0 0.01,0.01l0.06 0.08c0.02,0.02 0.02,0.02 0.04,0.04 0.11,0.15 0.24,0.29 0.35,0.44l0.32 0.41c0,0 0.01,0 0.01,0l0.2 0.25c0.02,0.03 0.03,0.03 0.05,0.06l0.21 0.27c0.04,0.05 0.05,0.06 0.09,0.11 0.06,0.08 0.12,0.13 0.18,0.22l0.06 0.09c0,0.01 0.01,0.01 0.01,0.01l0.01 0.02c0.03,0.03 0.01,0.01 0.03,0.03l0.33 0.4c0.02,0.02 0.03,0.03 0.05,0.06l0.39 0.49c0.03,0.04 0.01,0.02 0.04,0.06l0.06 0.07c0,0 0,0.01 0,0.01l1.31 1.6c0.06,0.07 0.11,0.2 0.22,0.2l1.24 -0.99c0.05,-0.04 0.13,-0.11 0.19,-0.13zm-2.27 3.03c-0.08,0.01 -0.17,0.1 -0.23,0.15 -0.12,0.08 -0.31,0.26 -0.41,0.33 -0.14,0.08 -0.25,0.19 -0.37,0.29l-0.29 0.23c-0.01,0.01 -0.01,0.01 -0.02,0.02l-0.41 0.33c-0.02,0.01 -0.01,0 -0.03,0.02l-0.41 0.33c-0.1,0.1 -0.22,0.16 -0.32,0.26l-0.62 0.5c-0.06,0.06 -0.16,0.11 -0.21,0.17 0.03,0.02 0.03,0.03 0.07,0.03l0.32 -0.01c0.09,-0.01 0.12,0.01 0.2,0.01l0.39 -0.02c0.07,0 0.02,0.02 0.08,0.02l0.23 -0.02c0.07,0 -0.01,0.02 0.1,0.01 0.2,-0.02 0.47,-0.01 0.67,0.01 0.08,0 0.01,-0.02 0.1,-0.02 0.05,0 0.02,0.02 0.11,0.01 0.08,0 0.05,0.01 0.11,0l1.52 -0.01c0.06,0 0,0.02 0.1,0.01 0.06,0 0.05,0 0.09,0 0.06,0.01 0.15,0 0.2,0 0.14,-0.02 0.28,0.01 0.44,0.01l0.21 -0.01c0.08,-0.01 0.07,0.01 0.16,0.01 0.04,0 0.03,-0.02 0.1,-0.02 0,-0.07 -0.04,-0.21 -0.07,-0.27 -0.01,-0.04 -0.03,-0.04 -0.05,-0.09l-0.06 -0.08c-0.03,-0.04 -0.03,-0.05 -0.05,-0.09 -0.02,-0.03 -0.04,-0.05 -0.06,-0.08l-0.36 -0.44c0,0 -0.01,0 -0.01,-0.01l-0.13 -0.16c-0.04,-0.04 -0.03,-0.02 -0.06,-0.08l-0.44 -0.54c-0.09,-0.09 -0.15,-0.21 -0.24,-0.32l-0.15 -0.19c-0.06,-0.08 -0.17,-0.19 -0.2,-0.29zm-4.4 -5.44c-0.04,-0.05 -0.09,-0.09 -0.13,-0.15l-0.19 -0.24c-0.04,-0.05 -0.04,-0.02 -0.06,-0.08 -0.08,0.06 -0.04,0.09 -0.03,0.19 0,0.08 0,0.18 0,0.26l0 7.6c0,0.08 -0.04,0.47 0.02,0.49 0.02,0.01 0.01,0 0.03,-0.02l0.23 -0.2c0.06,-0.05 0.1,-0.07 0.15,-0.12l0.31 -0.26c0.02,-0.01 0.01,0 0.03,-0.02l0.26 -0.2c0.02,-0.01 0,0 0.03,-0.02l0.15 -0.13c0,0 0,0 0.01,-0.01 0,0 0,0 0,-0.01l0.96 -0.76c0.07,-0.06 0.03,-0.05 0.14,-0.12l0.07 -0.06c0.02,-0.02 0.04,-0.03 0.07,-0.05l0.14 -0.11c0.06,-0.04 0.02,-0.02 0.07,-0.06l0.25 -0.2c0.02,-0.01 0.01,0 0.03,-0.02l1.08 -0.88c0.06,-0.05 0.12,-0.06 0.14,-0.16l-0.34 -0.41c-0.02,-0.02 -0.04,-0.05 -0.06,-0.08l-0.28 -0.35c0,0 -0.01,-0.01 -0.02,-0.01l-1.37 -1.73c-0.02,-0.02 -0.01,-0.01 -0.04,-0.04l-0.47 -0.59c-0.01,0 -0.01,-0.01 -0.01,-0.01 -0.02,-0.02 -0.02,-0.03 -0.04,-0.05l-0.55 -0.67c-0.06,-0.09 -0.12,-0.15 -0.2,-0.23l-0.33 -0.4c-0.03,-0.05 -0.02,-0.04 -0.05,-0.09zm5.8 4.29c0,0.01 0.01,0.03 0.02,0.05l1.01 1.24c0,0 0,0 0,0.01l0.16 0.17c0.21,0.25 0.55,0.62 0.74,0.86l0.07 0.07c0.04,0.03 0.04,0.02 0.08,0.06l0.74 0.46 0.5 0.14c0.14,0.02 0.43,-0.02 0.54,0 0.1,0.03 -0.02,0.11 -0.06,0.14l-0.71 0.58c0.03,0.02 0.03,0.03 0.07,0.03l4.54 0c0.09,0 0.07,-0.11 0.07,-0.21 0,-0.08 0,-0.2 -0.01,-0.25 -0.03,-0.21 0,-0.56 0.01,-0.79l-0.02 -1.17c0,-0.04 0.02,-0.06 0.02,-0.1l-0.02 -0.24c0,-0.17 0.05,-0.42 -0.01,-0.56 -0.05,0.01 -0.18,0.11 -0.24,0.15l-0.43 0.23c-0.02,0.01 -0.01,0.01 -0.06,0.03 -0.05,0.02 -0.09,0.02 -0.14,0.04 -0.06,0.02 -0.06,0.04 -0.13,0.05 -0.12,0.02 -0.18,0.06 -0.31,0.07 -0.06,0.01 -0.14,0.01 -0.18,0.01 -0.27,0.06 -0.09,0.02 -0.32,0.05 -0.21,0.02 -0.45,0.03 -0.66,-0.03 -0.16,-0.04 -0.35,-0.02 -0.49,-0.06l-0.46 -0.12c-0.07,-0.02 -0.04,-0.03 -0.12,-0.05 -0.23,-0.07 -0.44,-0.18 -0.64,-0.3l-0.99 -0.68c-0.07,-0.06 -0.13,-0.1 -0.2,-0.17l-0.19 -0.18c-0.05,-0.04 -0.06,-0.06 -0.1,-0.1l-0.46 -0.49c-0.06,-0.06 -0.1,-0.15 -0.2,-0.1 -0.06,0.03 -0.13,0.12 -0.19,0.17l-0.32 0.25c-0.04,0.03 -0.06,0.05 -0.1,0.08l-0.41 0.32c0,0 0,0.01 -0.01,0.01l-0.39 0.33zm-0.11 -9.44l0 0.41c0,0.09 0.03,0.1 0.03,0.16 0.01,0.07 0.02,0.14 0.02,0.19 0.02,0.16 -0.01,0.23 0.03,0.37 0.02,0.06 0.04,0.11 0.04,0.16 0.03,0.26 0,0.09 0.06,0.35 0.02,0.07 0.01,0.12 0.03,0.18 0.02,0.06 0.04,0.09 0.05,0.15 0.05,0.23 0.06,0.21 0.08,0.31l0.1 0.31c0.03,0.07 0.05,0.16 0.09,0.22 0.02,0.04 0.01,0.03 0.03,0.07l0.11 0.29c0.06,0.08 0.08,0.19 0.13,0.27l0.07 0.14c0.02,0.03 0.05,0.08 0.07,0.12 0.03,0.04 0.05,0.08 0.08,0.13l0.54 0.89c0.04,0.05 0.05,0.06 0.09,0.12l0.15 0.21c0.02,0.02 0.01,0.01 0.03,0.03l0.09 -0.58 0.17 -0.64c0.04,-0.06 0.03,-0.06 0.05,-0.13l0.38 -0.78c0.14,-0.23 0.54,-0.75 0.75,-0.92l0.24 -0.23c0,0 0.01,-0.01 0.01,-0.01l1.04 -0.66c0.05,-0.03 0.05,-0.04 0.1,-0.06l0.37 -0.14c0.08,-0.02 0.18,-0.02 0.27,-0.05 0.11,-0.05 0.59,-0.1 0.73,-0.1 0.03,-0.01 0.08,0 0.15,0 0.1,0 0.22,-0.01 0.32,0.01 0.11,0.02 0.18,0.04 0.3,0.04 0.15,0.01 0.17,0.05 0.27,0.07 0.05,0.01 0.08,0.01 0.13,0.02 0.09,0.01 0.07,0.03 0.13,0.05 0.04,0.01 0.08,0.01 0.13,0.02 0.07,0.02 0.04,0.03 0.12,0.05 0.16,0.04 0.18,0.07 0.27,0.09 0.07,-0.13 0.01,-0.1 0.01,-0.23 0,-0.15 0.03,-0.3 0.01,-0.42l0 -0.33c0.01,-0.11 -0.01,-0.15 0.01,-0.3l0 -0.24c0,-0.09 0.04,-0.34 -0.07,-0.34l-7.63 0c-0.16,0 -0.15,0.42 -0.16,0.52 -0.01,0.07 -0.02,0.12 -0.02,0.21zm7.87 8.58c0.04,-0.23 0.01,-3.19 0.01,-3.75l-0.01 -0.38c0,-0.06 0.01,-0.08 0.01,-0.14 0,-0.55 0.06,-0.52 -0.17,-0.81 -0.07,-0.09 -0.13,-0.19 -0.22,-0.26l-0.14 -0.13c-0.1,-0.1 -0.58,-0.47 -0.71,-0.52 -0.08,-0.03 -0.02,0 -0.08,-0.04 -0.14,-0.09 -0.29,-0.12 -0.43,-0.19 -0.07,-0.03 -0.01,-0.02 -0.09,-0.03 -0.19,-0.03 -0.34,-0.09 -0.52,-0.09 -0.16,0 -0.36,-0.03 -0.5,0.02l-0.07 0.04c-0.04,0.02 -0.05,0.01 -0.1,0.01 -0.1,0 -0.09,0 -0.17,0.04l-0.22 0.09c-0.03,0.01 -0.05,0.02 -0.08,0.03 -0.12,0.04 -0.22,0.12 -0.33,0.18l-0.54 0.42c-0.04,0.04 -0.06,0.07 -0.1,0.11l-0.14 0.17c-0.02,0.02 -0.03,0.04 -0.04,0.06 -0.1,0.15 -0.16,0.26 -0.22,0.43l-0.12 0.3c-0.02,0.07 -0.01,0.11 -0.03,0.18 -0.01,0.09 -0.04,0.06 -0.04,0.16 0,0.07 0,0.15 0,0.21 -0.01,0.07 -0.03,0.1 -0.02,0.19 0.01,0.07 0.01,0.11 0.02,0.2 0,0.09 0.02,0.07 0.04,0.16 0.02,0.07 0,0.13 0.02,0.2 0.01,0.09 0.04,0.08 0.06,0.14 0.01,0.07 0,0.12 0.03,0.18l0.12 0.3c0.03,0.09 0.03,0.07 0.06,0.14l0.07 0.16c0.03,0.07 0.04,0.08 0.07,0.14 0.02,0.04 0.01,0.03 0.04,0.07l0.74 1.06c0,0.01 0.01,0.01 0.01,0.01 0.01,0.02 0.01,0.02 0.02,0.03l0.25 0.27c0.11,0.12 0.22,0.24 0.34,0.34l0.25 0.24 0.7 0.45c0.06,0.02 0.05,0.04 0.13,0.07l0.45 0.18c0.08,0.03 0.1,0.02 0.18,0.03 0.07,0.01 0.09,0.04 0.16,0.05 0.15,0.03 0.7,0.05 0.84,-0.01 0.11,-0.05 0.19,-0.03 0.29,-0.08 0.05,-0.03 0.1,-0.04 0.17,-0.05l0.01 -0.58z"/>
  </g>
 </g>
</svg>
