<?xml version="1.0" encoding="UTF-8"?>
<!DOCTYPE svg PUBLIC "-//W3C//DTD SVG 1.1//EN" "http://www.w3.org/Graphics/SVG/1.1/DTD/svg11.dtd">
<!-- Creator: CorelDRAW -->
<svg xmlns="http://www.w3.org/2000/svg" xml:space="preserve" width="100px" height="50px" version="1.1" style="shape-rendering:geometricPrecision; text-rendering:geometricPrecision; image-rendering:optimizeQuality; fill-rule:evenodd; clip-rule:evenodd"
viewBox="0 0 67.66 33.83"
 xmlns:xlink="http://www.w3.org/1999/xlink"
 xmlns:xodm="http://www.corel.com/coreldraw/odm/2003">
 <defs>
  <style type="text/css">
   <![CDATA[
    .fil0 {fill:#00529C}
    .fil1 {fill:white;fill-rule:nonzero}
   ]]>
  </style>
 </defs>
 <g id="Layer_x0020_1">
  <metadata id="CorelCorpID_0Corel-Layer"/>
  <rect class="fil0" width="67.66" height="33.83"/>
  <g inkscape:connector-curvature="0">
   <path id="path210" class="fil1" d="M17.99 10.71l-8.61 0c-1.05,0 -1.89,0.87 -1.89,1.94l0 0.02 0 8.51c0,1.06 0.83,1.92 1.86,1.94l8.63 0c1.05,0 1.9,-0.87 1.9,-1.94l0 -8.53c0,-1.07 -0.85,-1.94 -1.89,-1.94l0 0zm-7.59 11.41l-0.47 0.01c-0.57,0 -1.03,-0.47 -1.03,-1.05l0 -0.08 0 -7.87 0 -0.43c0.02,-0.55 0.45,-1 1,-1l0.96 0c0.86,0 1.57,0.75 1.57,1.64 0,0.44 -0.18,0.83 -0.46,1.12l-2.43 2.48 2.28 2.32c0.3,0.31 0.47,0.7 0.47,1.14 0,0.95 -0.84,1.72 -1.89,1.72l0 0zm7.02 -0.01l-4.26 0c0,0 0.5,-1.06 0.5,-1.72 0,-0.8 -0.27,-1.52 -0.69,-1.99l-1.46 -1.49 1.49 -1.53c0.44,-0.42 0.73,-1.16 0.73,-2 0,-0.66 -0.18,-1.25 -0.48,-1.68l1.04 0c0.86,0 1.56,0.75 1.56,1.64 0,0.44 -0.17,0.83 -0.45,1.12l-2.39 2.45 4.97 5.06c-0.16,0.1 -0.36,0.14 -0.56,0.14l0 0zm11.49 -8.28l2.01 0 2.38 6.17 -1.8 0 -0.46 -1.32 -2.32 0 -0.49 1.32 -1.67 0 2.35 -6.17zm-7.17 0l2.84 0c1.15,0 2.01,0.5 2.01,1.56 0,0.78 -0.4,1.21 -1.09,1.44l0 0.02c0.82,0.17 1.25,0.61 1.25,1.36 0,1.48 -1.3,1.79 -2.41,1.79l-2.6 0 0 -6.17zm1.65 2.44l0.46 0c0.54,0 1.09,-0.14 1.09,-0.66 0,-0.56 -0.53,-0.62 -1.08,-0.62l-0.47 0 0 1.28zm0 2.56l0.48 0c0.6,0 1.23,-0.09 1.23,-0.72 0,-0.67 -0.64,-0.73 -1.21,-0.73l-0.5 0 0 1.45 0 0zm29.46 -5l2.94 0c1.1,0 1.99,0.49 1.99,1.55 0,0.82 -0.39,1.37 -1.18,1.56l0 0.02c0.53,0.14 0.56,0.61 0.87,1.36l0.6 1.68 -1.71 0 -0.36 -1.12c-0.33,-1.06 -0.55,-1.32 -1.16,-1.32l-0.34 0 0 2.44 -1.65 0 0 -6.17zm1.65 2.56l0.43 0c0.53,0 1.21,-0.02 1.21,-0.72 0,-0.57 -0.58,-0.68 -1.21,-0.68l-0.43 0 0 1.4zm-7.02 -2.56l2.84 0c1.15,0 2.01,0.5 2.01,1.56 0,0.78 -0.4,1.21 -1.09,1.44l0 0.02c0.83,0.17 1.25,0.61 1.25,1.36 0,1.48 -1.3,1.79 -2.41,1.79l-2.6 0 0 -6.17zm1.65 2.44l0.46 0c0.54,0 1.1,-0.14 1.1,-0.66 0,-0.56 -0.53,-0.62 -1.08,-0.62l-0.48 0 0 1.28zm0 2.56l0.49 0c0.6,0 1.22,-0.09 1.22,-0.72 0,-0.67 -0.64,-0.73 -1.21,-0.73l-0.5 0 0 1.45zm-30.67 1.7l-3.56 -3.62 1.7 -1.72c0.34,-0.43 0.56,-1.08 0.56,-1.81 0,-0.67 -0.18,-1.27 -0.48,-1.7l0.75 0.02c0.57,0 1.03,0.47 1.03,1.04l0 7.79zm40.07 -6.7l1.64 0 0 6.17 -1.64 0 0 -6.17zm-18.76 0l1.64 0 0 2.52 0.02 0 1.86 -2.52 1.98 0 -2.28 2.87 2.45 3.3 -2.09 0 -1.92 -2.81 -0.02 0 0 2.81 -1.64 0 0 -6.17zm-6.24 0l2.1 0 2.08 4.19 0.02 0 -0.03 -4.19 1.51 0 0 6.17 -2.05 0 -2.15 -4.22 -0.02 0 0.05 4.22 -1.51 0 0 -6.17zm-3.62 1.27l-0.01 0 -0.8 2.41 1.55 0 -0.74 -2.41 0 0z"/>
  </g>
 </g>
</svg>
