<?xml version="1.0" encoding="UTF-8"?>
<!DOCTYPE svg PUBLIC "-//W3C//DTD SVG 1.1//EN" "http://www.w3.org/Graphics/SVG/1.1/DTD/svg11.dtd">
<!-- Creator: CorelDRAW -->
<svg xmlns="http://www.w3.org/2000/svg" xml:space="preserve" width="400px" height="200px" version="1.1" style="shape-rendering:geometricPrecision; text-rendering:geometricPrecision; image-rendering:optimizeQuality; fill-rule:evenodd; clip-rule:evenodd"
viewBox="0 0 77.33 38.66"
 xmlns:xlink="http://www.w3.org/1999/xlink"
 xmlns:xodm="http://www.corel.com/coreldraw/odm/2003">
 <defs>
  <style type="text/css">
   <![CDATA[
    .fil0 {fill:#00529C}
    .fil1 {fill:white}
   ]]>
  </style>
 </defs>
 <g id="Layer_x0020_1">
  <metadata id="CorelCorpID_0Corel-Layer"/>
  <rect class="fil0" width="77.33" height="38.66"/>
  <g id="_2280252970592">
   <path class="fil1" d="M11.65 19.35c0.12,0.17 1.53,1.57 1.7,1.74l0.83 0.87c1.02,1 0.5,2.76 -1.09,3.1 -0.21,0.05 -0.57,0.05 -0.8,0.07 -0.22,0.02 -0.58,-0.06 -0.72,-0.14 -0.38,-0.22 -0.62,-0.56 -0.62,-1.14l0 -9.03c0,-0.85 0.48,-1.29 1.31,-1.29 1.06,0 1.76,-0.07 2.37,0.95 0.2,0.33 0.2,0.63 0.2,1.01 0,0.5 -0.29,0.93 -0.55,1.18l-2.63 2.68zm7.97 -5.82c0.52,0 0.95,-0.03 1.31,0.14 0.29,0.13 0.59,0.48 0.62,0.86 0.03,0.38 0,2.37 0,2.92 0,1.95 0,3.9 0,5.85 -0.16,-0.11 -1.68,-1.7 -1.97,-1.98 -0.29,-0.3 -0.72,-0.68 -0.97,-0.99 -0.21,-0.28 -0.83,-0.79 -0.98,-1.01l1.58 -1.6c0.31,-0.31 0.47,-0.48 0.66,-0.92 0.31,-0.76 0.35,-1.65 0.12,-2.45 -0.11,-0.35 -0.22,-0.53 -0.37,-0.82zm-3.82 0c0.89,0 1.46,-0.08 2.03,0.28 0.23,0.15 0.44,0.36 0.57,0.59 0.18,0.31 0.26,0.61 0.26,1.03 0,0.87 -0.79,1.48 -1.41,2.09l-1.74 1.8c0.09,0.13 0.21,0.22 0.33,0.34l0.33 0.37c0.37,0.38 1.3,1.25 1.55,1.57 0.06,0.07 0.11,0.12 0.17,0.18l1.74 1.77c0.25,0.25 1.26,1.21 1.37,1.42 -0.2,0.05 -0.26,0.13 -0.54,0.13l-4.76 0c0.53,-1.1 0.75,-2.31 0.21,-3.45 -0.44,-0.9 -1.37,-1.5 -1.78,-2.05 -0.09,-0.11 -0.19,-0.18 -0.26,-0.28l1.52 -1.57c0.76,-0.77 0.92,-1.45 0.92,-2.55 0,-0.68 -0.23,-1.14 -0.51,-1.67zm-6.43 0.97l0 9.73c0,0.55 0.32,1.08 0.6,1.36 0.3,0.3 0.78,0.64 1.36,0.64l9.87 0c0.98,0 1.96,-1 1.96,-2.13l0 -9.54c0,-1.12 -0.95,-2.12 -1.99,-2.12l-9.84 0c-0.52,0 -1.03,0.3 -1.36,0.63 -0.3,0.3 -0.6,0.83 -0.6,1.43z"/>
   <path class="fil1" d="M38.33 22.79l1.6 0c0.16,0 0.11,-0.37 0.1,-0.48 -0.04,-0.33 -0.06,-3.8 -0.06,-4.18 0.1,0.07 0.52,0.98 0.61,1.15 0.1,0.21 0.2,0.38 0.31,0.59l1.2 2.37c0.07,0.14 0.26,0.55 0.35,0.55l2.12 0c0.08,0 0.1,-0.03 0.1,-0.1l0 -6.72c0,-0.07 -0.02,-0.09 -0.1,-0.09 -1.88,0 -1.61,-0.14 -1.61,0.48l0.04 1.77c0,0.79 0,1.58 0,2.38l-2.33 -4.63 -2.33 0 0 6.91z"/>
   <path class="fil1" d="M27.21 21.47l-0.16 0 0 -1.61c0.91,0 1.89,-0.12 1.89,0.87 0,0.72 -0.99,0.74 -1.73,0.74zm0.35 -2.86l-0.51 0 0 -1.42 0.41 0c0.63,0 1.28,0.05 1.31,0.66 0.02,0.59 -0.6,0.76 -1.21,0.76zm-2.35 4.18l2.38 0c1.42,0 2.43,-0.14 2.98,-1.04 0.32,-0.54 0.39,-1.65 -0.37,-2.18 -0.15,-0.11 -0.51,-0.28 -0.74,-0.29l0 -0.06c0.29,-0.07 0.64,-0.31 0.81,-0.51 0.54,-0.62 0.5,-1.98 -0.47,-2.5 -0.52,-0.28 -1.05,-0.33 -1.82,-0.33l-2.77 0 0 6.91z"/>
   <path class="fil1" d="M55.87 21.47l-0.19 0 0 -1.61c0.78,0 1.9,-0.11 1.9,0.84 0,0.16 -0.08,0.35 -0.17,0.44 -0.31,0.33 -1.06,0.33 -1.54,0.33zm0.33 -2.86l-0.52 0 0 -1.42c0.38,0 0.95,-0.01 1.26,0.1 0.37,0.12 0.44,0.29 0.44,0.64 0,0.52 -0.65,0.68 -1.18,0.68zm-2.35 4.18l2.41 0c1.08,0 2.24,-0.08 2.84,-0.89 0.41,-0.56 0.47,-1.74 -0.13,-2.21 -0.15,-0.13 -0.21,-0.18 -0.41,-0.27 -0.24,-0.11 -0.43,-0.1 -0.5,-0.2 0.25,-0.02 0.72,-0.35 0.85,-0.53 0.54,-0.72 0.47,-1.91 -0.44,-2.45 -0.48,-0.29 -1.07,-0.36 -1.82,-0.36l-2.8 0 0 6.91z"/>
   <path class="fil1" d="M62.4 18.74l-0.74 0 0 -1.55 0.22 0c0.74,0 1.58,0.05 1.58,0.78 0,0.57 -0.49,0.77 -1.06,0.77zm-2.61 -2.77l0 6.72c0,0.07 0.03,0.1 0.1,0.1l1.67 0c0.08,0 0.1,-0.03 0.1,-0.1l0 -2.64c0.99,0 1.12,0.07 1.52,1.09 0.11,0.28 0.18,0.57 0.27,0.85 0.08,0.23 0.21,0.8 0.33,0.8l1.83 0c0,-0.24 -0.87,-2.48 -0.99,-2.77 -0.06,-0.16 -0.13,-0.3 -0.24,-0.41 -0.2,-0.21 -0.29,-0.14 -0.38,-0.26 0.66,-0.06 1.29,-0.75 1.29,-1.54 0,-0.43 0.01,-0.73 -0.27,-1.12 -0.15,-0.21 -0.31,-0.35 -0.54,-0.48 -0.5,-0.27 -1.02,-0.33 -1.76,-0.33l-2.83 0c-0.07,0 -0.1,0.02 -0.1,0.09z"/>
   <path class="fil1" d="M45.27 22.79l1.83 0 0 -3.12c0.09,0.06 1.75,2.52 1.88,2.72 0.09,0.14 0.18,0.26 0.27,0.4l2.32 0c-0.03,-0.14 -0.22,-0.35 -0.31,-0.47l-2.39 -3.23 1.26 -1.6c0.07,-0.09 1.21,-1.48 1.24,-1.61 -0.58,0 -1.17,0 -1.76,0 -0.49,0 -0.4,-0.05 -0.61,0.25 -0.12,0.18 -0.27,0.34 -0.39,0.52l-0.75 1.02c-0.13,0.17 -0.23,0.32 -0.36,0.5 -0.08,0.1 -0.32,0.45 -0.4,0.5l0 -2.79 -1.83 0 0 6.91z"/>
   <path class="fil1" d="M34.28 17.32c0.02,0.04 0,-0.01 0.03,0.07 0.02,0.04 0.02,0.03 0.03,0.06 0.02,0.07 0.03,0.11 0.05,0.17 0.04,0.13 0.07,0.24 0.11,0.35l0.4 1.33c0.07,0.24 0.16,0.47 0.21,0.69l-1.7 0 0.87 -2.67zm-3.7 5.47l1.87 0c0.02,-0.1 0.09,-0.27 0.12,-0.36l0.42 -1.12 2.57 0 0.52 1.48 1.99 0c-0.01,-0.13 -0.09,-0.31 -0.14,-0.44l-2.5 -6.47 -2.25 0 -1.96 5.17c-0.1,0.28 -0.21,0.56 -0.33,0.86 -0.06,0.15 -0.1,0.27 -0.15,0.42 -0.05,0.13 -0.15,0.3 -0.16,0.46z"/>
   <polygon class="fil1" points="66.13,22.79 67.96,22.79 67.96,15.88 66.13,15.88 "/>
  </g>
 </g>
</svg>
