<svg width="24" height="24" viewBox="0 0 24 24" fill="none" xmlns="http://www.w3.org/2000/svg">
<path d="M9.99993 13.2502C9.58572 13.2502 9.24993 13.586 9.24993 14.0002C9.24993 14.4144 9.58572 14.7502 9.99993 14.7502H15.9999C16.4141 14.7502 16.7499 14.4144 16.7499 14.0002C16.7499 13.586 16.4141 13.2502 15.9999 13.2502H9.99993Z" fill="#2D264B"/>
<path fill-rule="evenodd" clip-rule="evenodd" d="M1.72754 1.81828C1.62708 1.41643 1.21988 1.17211 0.818032 1.27257C0.416185 1.37303 0.171865 1.78023 0.272326 2.18208L1.32407 6.38905L2.30288 10.4731C2.71907 12.2096 3.04667 13.5765 3.43542 14.6384C3.83418 15.7277 4.32319 16.5733 5.10776 17.2218C5.17547 17.2777 5.24445 17.3321 5.31465 17.3849C6.12811 17.9968 7.06442 18.2752 8.21662 18.4091C9.33985 18.5397 10.7454 18.5397 12.5312 18.5396H13.1246C14.6696 18.5397 15.8859 18.5397 16.8657 18.4406C17.8693 18.3391 18.6951 18.1285 19.4382 17.6632C19.7907 17.4425 20.1182 17.1842 20.415 16.8929C21.0406 16.2787 21.4379 15.5247 21.7705 14.5724C22.0952 13.6427 22.3787 12.4599 22.7388 10.9575L22.7597 10.8702C22.9768 9.96427 23.1558 9.2176 23.225 8.61272C23.2967 7.98492 23.2674 7.38716 22.9541 6.84137C22.82 6.60794 22.6524 6.39545 22.4567 6.2107C21.999 5.77874 21.4245 5.61094 20.7972 5.53441C20.1929 5.46066 19.4251 5.46068 18.4935 5.4607L2.63815 5.4607L1.72754 1.81828ZM3.75047 10.0771L3.00356 6.9607H18.4448C19.4373 6.9607 20.1129 6.96203 20.6156 7.02336C21.1059 7.08319 21.3069 7.18812 21.4272 7.30161C21.5161 7.38559 21.5923 7.48217 21.6532 7.58828C21.7356 7.73168 21.7908 7.95163 21.7347 8.44237C21.6772 8.9455 21.521 9.60275 21.2897 10.5679C20.9179 12.119 20.6512 13.228 20.3544 14.0778C20.0626 14.9134 19.7633 15.4306 19.3642 15.8225C19.1448 16.0378 18.9027 16.2287 18.6422 16.3918C18.1681 16.6887 17.5953 16.8591 16.7148 16.9482C15.8192 17.0388 14.6786 17.0396 13.0836 17.0396H12.5789C10.735 17.0396 9.41645 17.0385 8.38978 16.9192C7.38209 16.802 6.73783 16.5784 6.21629 16.1862C6.16441 16.1471 6.11342 16.1069 6.06337 16.0656C5.56035 15.6498 5.19275 15.0754 4.84399 14.1228C4.48868 13.1522 4.18021 11.8702 3.75047 10.0771Z" fill="#2D264B"/>
<path d="M10.4736 20.9475C10.4736 21.5289 10.0023 22.0002 9.42098 22.0002C8.83963 22.0002 8.36835 21.5289 8.36835 20.9475C8.36835 20.3662 8.83963 19.8949 9.42098 19.8949C10.0023 19.8949 10.4736 20.3662 10.4736 20.9475Z" fill="#2D264B"/>
<path d="M16.7894 20.9475C16.7894 21.5289 16.3181 22.0002 15.7368 22.0002C15.1554 22.0002 14.6841 21.5289 14.6841 20.9475C14.6841 20.3662 15.1554 19.8949 15.7368 19.8949C16.3181 19.8949 16.7894 20.3662 16.7894 20.9475Z" fill="#2D264B"/>
</svg>
