<?xml version="1.0" encoding="UTF-8"?>
<!DOCTYPE svg PUBLIC "-//W3C//DTD SVG 1.1//EN" "http://www.w3.org/Graphics/SVG/1.1/DTD/svg11.dtd">
<!-- Creator: CorelDRAW -->
<svg xmlns="http://www.w3.org/2000/svg" xml:space="preserve" width="100px" height="50px" version="1.1" style="shape-rendering:geometricPrecision; text-rendering:geometricPrecision; image-rendering:optimizeQuality; fill-rule:evenodd; clip-rule:evenodd"
viewBox="0 0 67.66 33.83"
 xmlns:xlink="http://www.w3.org/1999/xlink"
 xmlns:xodm="http://www.corel.com/coreldraw/odm/2003">
 <defs>
  <style type="text/css">
   <![CDATA[
    .fil1 {fill:#FEFEFE}
    .fil0 {fill:#008CEB}
   ]]>
  </style>
 </defs>
 <g id="Layer_x0020_1">
  <metadata id="CorelCorpID_0Corel-Layer"/>
  <rect class="fil0" width="67.66" height="33.83"/>
  <path class="fil1" d="M28.01 20.99c1.06,0.08 2.29,-0.74 2.72,-1.21 1.51,-1.63 1.54,-3.99 0.03,-5.7 -0.57,-0.64 -1.9,-1.34 -2.74,-1.24l-3.03 0 0 8.14 3.03 0.01 -0.01 0zm-6.08 -4.08c0,-4.38 -3.56,-7.94 -7.95,-7.94 -4.38,0 -7.94,3.56 -7.94,7.94 0,4.39 3.56,7.95 7.94,7.95 4.39,0 7.95,-3.56 7.95,-7.95zm-3.32 0.04l0 2.23c0,0.15 -0.06,0.18 -0.18,0.11 -0.16,-0.1 -0.33,-0.19 -0.51,-0.26 -0.41,-0.16 -0.84,-0.25 -1.28,-0.25 -0.13,0 -0.26,0.01 -0.39,0.03 -0.62,0.08 -1.23,0.23 -1.81,0.45 -0.58,0.2 -1.15,0.41 -1.75,0.57 -0.45,0.14 -0.91,0.21 -1.38,0.21 -0.05,0 -0.09,-0.01 -0.13,-0.01 -0.57,-0.02 -1.12,-0.19 -1.6,-0.5 -0.12,-0.07 -0.2,-0.2 -0.2,-0.33 0,-0.01 0,-0.01 0,-0.02 0,-1.46 0,-2.93 0,-4.39 0,-0.07 0,-0.16 0.07,-0.19 0.06,-0.04 0.13,0.02 0.18,0.06 0.51,0.34 1.11,0.52 1.72,0.52 0.01,0 0.03,0 0.05,0 0.45,-0.02 0.9,-0.1 1.32,-0.25 0.61,-0.18 1.19,-0.43 1.79,-0.64 0.46,-0.18 0.94,-0.33 1.42,-0.44 0.23,-0.05 0.47,-0.08 0.7,-0.08 0.62,0 1.22,0.18 1.73,0.53 0.16,0.1 0.26,0.27 0.26,0.45 0,0.01 0,0.02 0,0.03 0,0.72 0,1.45 0,2.18l-0.01 -0.01zm26.21 -0.92l-0.02 1.21c0,1.02 -0.05,2.92 0,3.75l1.69 0c0.04,-0.58 -0.06,-4.72 0.05,-4.85 0,-0.8 0.84,-1.55 1.69,-1.55 0,0 0,0 0.01,0 0.43,0 0.85,0.16 1.17,0.47 0.21,0.19 0.54,0.64 0.54,1.09 0.07,0.05 0.01,4.37 0.04,4.85l1.69 0 -0.01 -4.94c0.04,-0.39 -0.19,-0.99 -0.34,-1.29 -0.57,-1.19 -1.77,-1.94 -3.09,-1.94 -1.29,0 -2.48,0.73 -3.06,1.89 -0.15,0.3 -0.39,0.91 -0.36,1.31zm-9.94 4.98l1.72 0c0,-0.37 -0.04,-1.49 0.02,-1.76l3.42 0 0.02 1.76 1.73 0c-0.01,-0.98 0,-1.95 0,-2.91 0,-0.83 0.07,-2.02 -0.15,-2.76 -0.41,-1.49 -1.77,-2.52 -3.31,-2.52 -1.54,0 -2.89,1.02 -3.31,2.49 -0.23,0.76 -0.15,1.91 -0.15,2.76 0,0.97 -0.02,1.96 0,2.93l0.01 0.01zm1.72 -3.52c-0.01,-0.73 -0.08,-1.52 0.26,-2.07 0.3,-0.52 0.87,-0.84 1.47,-0.84 0.61,0 1.17,0.32 1.47,0.84 0.34,0.59 0.26,1.33 0.25,2.07l-3.45 0zm18.09 3.51l1.74 0 0 -1.76 3.43 0 0.01 1.75 1.74 0 0 -2.89c0,-0.88 0.07,-1.97 -0.15,-2.76 -0.41,-1.49 -1.77,-2.52 -3.31,-2.52 -1.54,0 -2.89,1.01 -3.31,2.49 -0.23,0.78 -0.15,1.9 -0.15,2.76 0,0.98 -0.01,1.96 0,2.94l0 -0.01zm1.74 -3.52c-0.01,-0.73 -0.09,-1.51 0.25,-2.07 0.3,-0.52 0.86,-0.84 1.46,-0.84 0.01,0 0.01,0 0.02,0 0.6,0.01 1.16,0.33 1.46,0.85 0.34,0.58 0.26,1.31 0.25,2.06l-3.44 0zm-29.73 1.75l0 -4.64c0.24,-0.01 0.48,-0.02 0.71,-0.02 0.24,0 0.48,0.01 0.72,0.02 0.37,0.05 0.73,0.19 1.04,0.41 1.74,1.19 1.01,4.03 -1.07,4.22 -0.24,0.02 -0.49,0.03 -0.73,0.03 -0.22,0 -0.45,-0.01 -0.67,-0.02l0 0z"/>
 </g>
</svg>
