<svg width="24" height="24" viewBox="0 0 24 24" fill="none" xmlns="http://www.w3.org/2000/svg">
<path d="M15.1872 9.87368C15.48 9.58079 15.48 9.10592 15.1872 8.81302C14.8943 8.52013 14.4194 8.52013 14.1265 8.81302L8.46964 14.4699C8.17675 14.7628 8.17675 15.2376 8.46964 15.5305C8.76253 15.8234 9.23741 15.8234 9.5303 15.5305L15.1872 9.87368Z" fill="#2D264B"/>
<path fill-rule="evenodd" clip-rule="evenodd" d="M15.5643 2.75683C14.5409 -0.829098 9.45899 -0.829098 8.43562 2.75683C8.1088 3.90199 6.93229 4.58125 5.77714 4.2917C2.15995 3.385 -0.381025 7.78611 2.21279 10.4653C3.04112 11.3209 3.04112 12.6795 2.21279 13.5351C-0.381026 16.2143 2.15995 20.6154 5.77714 19.7087C6.93229 19.4192 8.1088 20.0984 8.43562 21.2436C9.45899 24.8295 14.5409 24.8295 15.5643 21.2436C15.8911 20.0984 17.0676 19.4192 18.2228 19.7087C21.84 20.6154 24.381 16.2143 21.7872 13.5351C20.9588 12.6795 20.9588 11.3209 21.7872 10.4653C24.381 7.78611 21.84 3.385 18.2228 4.2917C17.0676 4.58125 15.8911 3.90199 15.5643 2.75683ZM9.87803 3.16847C10.4873 1.03369 13.5127 1.03369 14.1219 3.16847C14.6709 5.09207 16.6471 6.23306 18.5875 5.74668C20.7409 5.20691 22.2536 7.82699 20.7094 9.422C19.3181 10.8592 19.3181 13.1412 20.7094 14.5784C22.2536 16.1734 20.7409 18.7935 18.5875 18.2537C16.6471 17.7674 14.6709 18.9083 14.1219 20.8319C13.5127 22.9667 10.4873 22.9667 9.87803 20.8319C9.32906 18.9083 7.3528 17.7674 5.41243 18.2537C3.25904 18.7935 1.74633 16.1734 3.29049 14.5784C4.68189 13.1412 4.68189 10.8592 3.29049 9.422C1.74633 7.82699 3.25904 5.20691 5.41243 5.74668C7.3528 6.23306 9.32906 5.09207 9.87803 3.16847Z" fill="#2D264B"/>
<path d="M8 9.00024C8 9.55253 8.44772 10.0002 9 10.0002C9.55229 10.0002 10 9.55253 10 9.00024C10 8.44796 9.55229 8.00024 9 8.00024C8.44772 8.00024 8 8.44796 8 9.00024Z" fill="#2D264B"/>
<path d="M14 15.0002C14 15.5525 14.4477 16.0002 15 16.0002C15.5523 16.0002 16 15.5525 16 15.0002C16 14.448 15.5523 14.0002 15 14.0002C14.4477 14.0002 14 14.448 14 15.0002Z" fill="#2D264B"/>
</svg>
