<?xml version="1.0" encoding="UTF-8"?>
<!DOCTYPE svg PUBLIC "-//W3C//DTD SVG 1.1//EN" "http://www.w3.org/Graphics/SVG/1.1/DTD/svg11.dtd">
<!-- Creator: CorelDRAW -->
<svg xmlns="http://www.w3.org/2000/svg" xml:space="preserve" width="50px" height="50px" version="1.1" style="shape-rendering:geometricPrecision; text-rendering:geometricPrecision; image-rendering:optimizeQuality; fill-rule:evenodd; clip-rule:evenodd"
viewBox="0 0 13.15 13.16"
 xmlns:xlink="http://www.w3.org/1999/xlink"
 xmlns:xodm="http://www.corel.com/coreldraw/odm/2003">
 <defs>
  <style type="text/css">
   <![CDATA[
    .fil0 {fill:#E2261D}
    .fil1 {fill:white}
   ]]>
  </style>
 </defs>
 <g id="Layer_x0020_1">
  <metadata id="CorelCorpID_0Corel-Layer"/>
  <g id="_2280286106032">
   <path class="fil0" d="M6.61 0l5.44 0c0.23,0 0.46,0.04 0.66,0.19 0.26,0.17 0.43,0.47 0.43,0.8 0.01,0.61 0.01,1.22 0.01,1.83l0 9.19c0,0.19 0,0.37 -0.09,0.54 -0.15,0.32 -0.44,0.54 -0.78,0.59 -0.09,0.01 -0.19,0.02 -0.28,0.02l-10.7 -0.01c-0.12,0 -0.25,0 -0.37,-0.01 -0.56,-0.05 -0.97,-0.54 -0.93,-1.09 0,-3.66 0.01,-7.3 0,-10.96 0,-0.32 0.09,-0.59 0.33,-0.81 0.18,-0.17 0.4,-0.26 0.64,-0.27 0.16,-0.01 0.33,-0.01 0.49,-0.01l5.15 0z"/>
   <path class="fil1" d="M3.21 1.96l-1.03 0c-0.17,0 -0.21,0.04 -0.22,0.21l0 0.55c0,0.16 0.05,0.2 0.2,0.2l1.28 0.02c0.24,0.01 0.47,0 0.7,0.01 0.31,0 0.58,0.11 0.82,0.29 0.56,0.43 0.6,1.28 0.13,1.78 -0.25,0.28 -0.61,0.44 -1,0.43 -0.63,0.01 -1.27,0 -1.91,0 -0.18,0 -0.22,0.04 -0.22,0.22l0 0.56c0.01,0.16 0.06,0.21 0.22,0.21 0.58,0 1.16,0.01 1.74,0 0.15,0 0.31,-0.01 0.46,-0.03 0.56,-0.05 1.07,-0.32 1.42,-0.77 0.56,-0.64 0.68,-1.55 0.34,-2.33 -0.37,-0.89 -1.1,-1.32 -2.05,-1.36 -0.29,0 -0.59,0.01 -0.88,0.01zm5.67 0c1.27,0 2.31,1 2.31,2.24 0,1.25 -1.04,2.25 -2.32,2.25 -1.28,0 -2.31,-1 -2.31,-2.24 0,-1.24 1.04,-2.25 2.32,-2.25zm0 3.59c0.71,0 1.3,-0.6 1.3,-1.35 0,-0.74 -0.58,-1.34 -1.31,-1.34 -0.71,0 -1.3,0.6 -1.3,1.34 0.01,0.75 0.59,1.35 1.31,1.35zm-5.84 3.02c-0.04,-0.06 -0.03,-0.11 -0.03,-0.17l0 -1.53c-0.01,-0.1 -0.04,-0.14 -0.13,-0.16 -0.04,-0.01 -0.07,-0.01 -0.11,-0.01l-0.59 0c-0.16,0 -0.21,0.05 -0.21,0.21l0 4.07c0,0.15 0.04,0.2 0.19,0.2l0.57 0c0.25,0 0.28,-0.03 0.28,-0.29l0 -0.9c0,-0.1 0.03,-0.19 0.1,-0.27 0.11,-0.1 0.21,-0.21 0.33,-0.32 0.08,-0.07 0.14,-0.07 0.22,0.02 0.07,0.09 0.13,0.18 0.2,0.27l1.03 1.34c0.07,0.09 0.16,0.15 0.28,0.15l0.88 0c0.04,0 0.1,0 0.13,-0.08 -0.02,-0.03 -0.05,-0.09 -0.09,-0.13l-1.23 -1.58 -0.49 -0.65c-0.09,-0.11 -0.08,-0.17 0.01,-0.27 0.02,-0.01 0.03,-0.03 0.04,-0.04l0.89 -0.88 0.68 -0.68c0.04,-0.04 0.1,-0.07 0.08,-0.15 -0.03,0 -0.05,-0.02 -0.07,-0.02 -0.29,0 -0.57,-0.01 -0.86,-0.01 -0.17,0 -0.3,0.07 -0.42,0.19 -0.51,0.53 -1.02,1.05 -1.54,1.58 -0.04,0.04 -0.07,0.1 -0.14,0.11zm3.53 -0.6l0 0.43c0.01,0.29 -0.02,0.58 0.03,0.87 0.18,1.15 1.21,1.98 2.38,1.9 1.23,-0.03 2.21,-1.04 2.2,-2.27 0.01,-0.66 0,-1.3 0,-1.96l0 -0.08c-0.01,-0.1 -0.05,-0.15 -0.15,-0.15 -0.23,-0.01 -0.46,-0.01 -0.7,0 -0.1,0 -0.14,0.05 -0.14,0.15l0 0.15c-0.01,0.65 -0.01,1.31 -0.02,1.97 -0.01,0.28 -0.1,0.56 -0.27,0.78 -0.42,0.56 -1.21,0.67 -1.77,0.26 -0.36,-0.27 -0.56,-0.69 -0.55,-1.14 -0.01,-0.65 0,-1.3 0.01,-1.95 0,-0.19 -0.05,-0.23 -0.23,-0.23l-0.58 0c-0.17,0 -0.21,0.04 -0.21,0.22l0 1.05 0 0z"/>
  </g>
 </g>
</svg>
