<?xml version="1.0" encoding="UTF-8"?>
<!DOCTYPE svg PUBLIC "-//W3C//DTD SVG 1.1//EN" "http://www.w3.org/Graphics/SVG/1.1/DTD/svg11.dtd">
<!-- Creator: CorelDRAW -->
<svg xmlns="http://www.w3.org/2000/svg" xml:space="preserve" width="100px" height="50px" version="1.1" style="shape-rendering:geometricPrecision; text-rendering:geometricPrecision; image-rendering:optimizeQuality; fill-rule:evenodd; clip-rule:evenodd"
viewBox="0 0 67.66 33.83"
 xmlns:xlink="http://www.w3.org/1999/xlink"
 xmlns:xodm="http://www.corel.com/coreldraw/odm/2003">
 <defs>
  <style type="text/css">
   <![CDATA[
    .fil1 {fill:#00AED6}
    .fil0 {fill:white}
    .fil2 {fill:black;fill-rule:nonzero}
   ]]>
  </style>
 </defs>
 <g id="Layer_x0020_1">
  <metadata id="CorelCorpID_0Corel-Layer"/>
  <rect class="fil0" width="67.66" height="33.83"/>
  <g id="_2279817881936">
   <path class="fil1" d="M16.88 16.77c-0.04,-0.56 -0.61,-1 -1.31,-1 -0.02,0 -0.04,0 -0.06,0l-3.55 0c-0.13,0 -0.23,-0.08 -0.23,-0.19 0,0 0,0 0,0 0,-0.1 0.1,-0.19 0.23,-0.19l3.6 0c-0.02,-0.39 -0.35,-0.73 -0.82,-0.83 -0.52,-0.08 -1.05,-0.12 -1.58,-0.12 -0.54,0 -1.07,0.04 -1.59,0.11 -0.6,0.13 -1.04,0.53 -1.13,1.02 -0.08,0.45 -0.12,0.9 -0.12,1.35 0,0.45 0.04,0.91 0.12,1.35 0.13,0.52 0.64,0.93 1.29,1.02 0.65,0.06 1.3,0.1 1.96,0.1 0.65,0 1.31,-0.04 1.96,-0.1 0.58,-0.1 1.02,-0.49 1.09,-0.96 0.11,-0.51 0.16,-1.04 0.14,-1.56l0 0zm-1.17 0.64l0 0.17c0,0 0,0 0,0 0,0.1 -0.1,0.19 -0.23,0.19 -0.13,0 -0.24,-0.09 -0.24,-0.19 0,0 0,0 0,0l0 -0.17c-0.07,-0.05 -0.12,-0.13 -0.12,-0.21 0,-0.16 0.16,-0.29 0.36,-0.29 0,0 0,0 0,0 0,0 0,0 0,0 0.19,0 0.35,0.13 0.35,0.29 0,0.08 -0.04,0.16 -0.12,0.21l0 0zm3.52 -0.5c0,-2.52 -2.52,-4.56 -5.63,-4.56 -3.11,0 -5.63,2.04 -5.63,4.56 0,2.52 2.52,4.57 5.63,4.57 3.11,0 5.63,-2.05 5.63,-4.57z"/>
   <path class="fil2" d="M23.62 19.18c0.45,0.53 1.19,0.84 1.98,0.84 0.04,0 0.08,0 0.12,0 0.98,0 1.7,-0.51 1.7,-1.2l0 -0.37 -0.02 0c-0.54,0.43 -1.27,0.65 -2.02,0.62 -0.03,0 -0.06,0 -0.09,0 -1.15,0 -2.22,-0.49 -2.81,-1.29 -0.31,-0.41 -0.47,-0.89 -0.47,-1.37 0,-0.46 0.15,-0.91 0.44,-1.32 0.58,-0.82 1.66,-1.33 2.84,-1.33 0.01,0 0.02,0 0.03,0 0.06,0 0.12,0 0.18,0 0.7,0 1.38,0.21 1.9,0.6l0.02 0 0 -0.5 1.68 0 0 4.94c0,1.44 -1.41,2.43 -3.38,2.43 -0.07,0 -0.14,0.01 -0.22,0.01 -1.21,0 -2.37,-0.45 -3.13,-1.21l1.25 -0.85zm3.73 -3.07c0,-0.58 -0.8,-1.1 -1.7,-1.1 -1.13,0 -1.89,0.55 -1.89,1.39 -0.03,0.39 0.15,0.78 0.5,1.05 0.31,0.24 0.72,0.38 1.15,0.38 0.06,0 0.11,0 0.17,-0.01 0.98,0 1.77,-0.5 1.77,-1.12l0 -0.59zm6.16 -2.4c2.05,0 3.54,1.18 3.54,2.69 0,1.5 -1.49,2.68 -3.54,2.68 -0.07,0 -0.14,0 -0.21,0 -1.16,0 -2.24,-0.49 -2.84,-1.29 -0.31,-0.42 -0.48,-0.9 -0.48,-1.39 0,-0.5 0.17,-0.98 0.48,-1.4 0.6,-0.8 1.68,-1.29 2.84,-1.29 0.07,0 0.14,0 0.21,0l0 0zm0 1.25c-0.97,0.01 -1.76,0.64 -1.76,1.43 0,0 0,0.01 0,0.01 0.01,0.79 0.8,1.43 1.78,1.43 0.98,0 1.77,-0.64 1.77,-1.43 0,0 0,0 0,-0.01 0,-0.02 0,-0.04 0,-0.06 0,-0.36 -0.18,-0.72 -0.5,-0.97 -0.32,-0.26 -0.75,-0.4 -1.2,-0.4 -0.03,0 -0.06,0 -0.09,0l0 0zm4.44 -1.1l1.68 0 0 0.45 0.02 0c0.52,-0.39 1.19,-0.6 1.89,-0.6 0.05,0 0.09,0 0.13,0 1.8,0.03 3.25,1.22 3.25,2.68 0,1.46 -1.43,2.66 -3.23,2.69 -0.72,0.01 -1.41,-0.18 -1.96,-0.54l-0.03 0 0 2.55 -1.75 0 0 -7.23zm3.45 1.11c-0.92,0 -1.7,0.52 -1.7,1.1l0 0.64c0,0.61 0.76,1.12 1.71,1.12 0.98,0 1.76,-0.64 1.76,-1.43 0,0 0,0 0,0 0,0 0,0 0,0 0,-0.79 -0.79,-1.43 -1.77,-1.43l0 0zm6.89 0.94c1.14,-0.13 1.49,-0.26 1.49,-0.52 0,-0.34 -0.44,-0.54 -1.11,-0.54 -0.04,0 -0.08,0 -0.12,0 -0.69,0 -1.28,0.38 -1.44,0.91l-1.66 -0.27c0.24,-1.04 1.55,-1.78 3.17,-1.78 1.83,0 2.96,0.76 2.96,2l0 3.22 -1.57 0 0 -0.55 -0.02 0c-0.49,0.45 -1.2,0.7 -1.93,0.7 -0.06,0 -0.13,0 -0.19,0 -1.38,0 -2.33,-0.62 -2.33,-1.52 0,-0.94 0.78,-1.43 2.75,-1.65l0 0zm1.63 0.53l-0.02 0c-0.16,0.19 -0.49,0.29 -1.34,0.42 -1.03,0.15 -1.39,0.31 -1.39,0.61 0,0.3 0.3,0.44 0.97,0.44 1,0 1.78,-0.38 1.78,-0.86l0 -0.61 0 0zm4.99 2.22l-2.89 -4.8 1.92 0 1.9 3.31 0.03 0 1.88 -3.31 1.93 0 -4.33 7.23 -1.93 0 1.49 -2.43z"/>
  </g>
 </g>
</svg>
