<?xml version="1.0" encoding="UTF-8"?>
<!DOCTYPE svg PUBLIC "-//W3C//DTD SVG 1.1//EN" "http://www.w3.org/Graphics/SVG/1.1/DTD/svg11.dtd">
<!-- Creator: CorelDRAW -->
<svg xmlns="http://www.w3.org/2000/svg" xml:space="preserve" width="155px" height="50px" version="1.1" style="shape-rendering:geometricPrecision; text-rendering:geometricPrecision; image-rendering:optimizeQuality; fill-rule:evenodd; clip-rule:evenodd"
viewBox="0 0 121.28 39.12"
 xmlns:xlink="http://www.w3.org/1999/xlink"
 xmlns:xodm="http://www.corel.com/coreldraw/odm/2003">
 <defs>
  <style type="text/css">
   <![CDATA[
    .fil5 {fill:none}
    .fil1 {fill:#006AB4;fill-rule:nonzero}
    .fil4 {fill:#C11D2A;fill-rule:nonzero}
    .fil0 {fill:#D61C24;fill-rule:nonzero}
    .fil2 {fill:#FFCF21;fill-rule:nonzero}
    .fil3 {fill:white;fill-rule:nonzero}
   ]]>
  </style>
 </defs>
 <g id="Layer_x0020_1">
  <metadata id="CorelCorpID_0Corel-Layer"/>
  <g id="_2280303967184">
   <g inkscape:connector-curvature="0">
    <path id="path6475" class="fil0" d="M118.1 0l-114.91 0c-1.55,0 -2.82,1.27 -2.82,2.82l0 9.35 120.54 0 0 -9.35c0,-1.55 -1.26,-2.82 -2.81,-2.82l0 0zm0 0l0 0 0 0z"/>
   </g>
   <polygon id="path6477" class="fil1" points="0.37,25.64 120.91,25.64 120.91,13.47 0.37,13.47 " inkscape:connector-curvature="0"/>
   <path id="path6481" class="fil2" d="M0.37 36.3c0,1.55 1.27,2.82 2.82,2.82l114.9 0c1.56,0 2.82,-1.27 2.82,-2.82l0 -9.34 -120.54 0 0 9.34z" inkscape:connector-curvature="0"/>
   <g inkscape:connector-curvature="0">
    <path id="path6485" class="fil3" d="M102.97 8.21l-0.47 -0.16c-8.82,-2.97 -24.47,-6.15 -41.91,-6.15 -17.45,0 -33.09,3.18 -41.92,6.15 -2.73,0.89 -3.79,2.88 -3.86,4.29l-0.01 14.31 0.01 0.12c0.07,1.44 1.13,3.44 3.87,4.33 8.83,2.97 24.47,6.14 41.91,6.14 17.44,0 33.08,-3.18 41.92,-6.15l0.47 -0.16c2.24,-0.89 3.51,-2.56 3.51,-4.6l0 -13.52c0,-2.04 -1.27,-3.72 -3.52,-4.6l0 0zm0 0l0 0 0 0z"/>
   </g>
   <g inkscape:connector-curvature="0">
    <path id="path6489" class="fil0" d="M102.12 10.39c-0.08,-0.03 -0.21,-0.07 -0.36,-0.12 -7.58,-2.55 -23.01,-6.03 -41.17,-6.03 -18.16,0 -33.59,3.48 -41.18,6.03 -1.92,0.62 -2.25,1.85 -2.27,2.22l0 7.08 0 7.08c0.02,0.37 0.35,1.6 2.27,2.23 7.59,2.55 23.02,6.02 41.18,6.02 18.16,0 33.59,-3.47 41.17,-6.02 0.15,-0.05 0.28,-0.1 0.36,-0.13 0.68,-0.26 2.03,-0.93 2.03,-2.42l0 -6.76 0 -6.76c0,-1.49 -1.35,-2.16 -2.03,-2.42l0 0zm-0.37 11.23l0 2.57 0 0.46c0.02,1.02 -0.39,2 -2.07,2.41 -5.44,1.25 -20.91,4.17 -39.03,4.17 -18.13,0 -33.6,-2.92 -39.03,-4.17 -1.69,-0.41 -2.08,-1.72 -2.08,-2.41l0 -0.46 0 -2.57 0 -2.05 0 -2.05 0 -2.57 0 -0.46c0,-0.68 0.39,-2 2.08,-2.41 5.43,-1.25 20.9,-4.16 39.03,-4.16 18.12,0 33.59,2.91 39.03,4.16 1.68,0.41 2.09,1.39 2.07,2.41l0 0.46 0 2.57 0 2.05 0 2.05z"/>
   </g>
   <path id="path6493" class="fil3" d="M99.68 12.08c-5.44,-1.25 -20.91,-4.16 -39.03,-4.16 -18.13,0 -33.6,2.91 -39.04,4.16 -1.68,0.41 -2.07,1.73 -2.07,2.41l0 0.46 0 2.57 0 2.05 0 2.05 0 2.57 0 0.46c0,0.69 0.39,2 2.07,2.41 5.44,1.25 20.91,4.17 39.04,4.17 18.12,0 33.59,-2.92 39.03,-4.17 1.68,-0.41 2.09,-1.39 2.07,-2.41l0 -0.46 0 -2.57 0 -2.05 0 -2.05 0 -2.57 0 -0.46c0.02,-1.02 -0.39,-2 -2.07,-2.41z" inkscape:connector-curvature="0"/>
   <g inkscape:connector-curvature="0">
    <path id="path6497" class="fil1" d="M98.13 23.59c-0.04,0 -0.09,0.01 -0.13,0.02l0 -0.03 -0.14 0.11c-0.4,0.32 -0.79,0.55 -1.17,0.69 -0.03,0.02 -0.05,0.02 -0.08,0.03l-0.02 0.01c-0.04,0.01 -0.07,0.02 -0.1,0.03l-0.02 0.01c-0.03,0 -0.05,0.01 -0.08,0.02l-0.04 0.01c-0.02,0 -0.04,0.01 -0.06,0.01l-0.04 0.01c-0.09,0.01 -0.17,0.02 -0.25,0.02 -0.5,0 -0.59,-0.36 -0.6,-0.42 -0.03,-0.29 0.05,-0.72 0.24,-1.28l0.04 -0.1c0.04,-0.1 0.08,-0.23 0.13,-0.38 0.06,-0.14 0.11,-0.29 0.18,-0.45l0.72 -1.91 0.18 -0.01 0.03 0 0.86 0 0.65 -1.78 -1.09 0 1.51 -3.95 -2.13 0 -1.45 3.95 -1.03 0 -0.68 1.78 1.1 0 -0.06 0.16c-0.01,0.01 -0.67,1.74 -1,2.51 -0.07,0.17 -0.15,0.34 -0.25,0.51 -0.21,0.38 -0.84,1.25 -2.01,1.35 -0.11,0.01 -0.23,0.01 -0.33,0.01 -1.31,0 -1.61,-0.6 -1.71,-0.8l0 -0.01 0.1 -0.06c0.02,-0.02 0.05,-0.03 0.07,-0.04 0.63,-0.36 1.26,-0.73 1.59,-1.06 0.1,-0.08 0.19,-0.16 0.29,-0.25 0.32,-0.31 0.59,-0.66 0.81,-1.04 0.01,-0.02 1.07,-1.66 -0.07,-2.66 0,-0.01 -0.48,-0.4 -1.26,-0.4 -0.4,0 -0.82,0.1 -1.23,0.31 -0.02,0.01 -0.23,0.12 -0.5,0.32l-0.21 0.17c-0.02,0.02 -0.05,0.04 -0.07,0.06 -0.03,0.03 -0.08,0.07 -0.13,0.11l-0.07 0.07c-0.02,0.02 -0.04,0.05 -0.07,0.07l-0.03 0.03c-0.73,0.74 -1.89,2.3 -1.4,4.37l0.01 0.06c-0.78,0.5 -1.14,0.67 -1.64,0.67 -0.08,0 -0.18,-0.01 -0.28,-0.02 -0.16,-0.01 -0.27,-0.07 -0.35,-0.17 -0.18,-0.24 -0.1,-0.66 -0.1,-0.67l0 -0.03c0.01,-0.01 0.01,-0.02 0.01,-0.03 0.01,-0.02 0.64,-1.86 1.25,-2.52l0.02 -0.03 -0.17 -1.21 -0.08 0c-0.07,0.01 -0.15,0.02 -0.24,0.02 -0.49,0 -1.14,-0.1 -1.52,-0.57l-0.06 -0.08 1.21 -1.17 -0.76 -0.03c-0.02,0 -0.52,0 -0.89,-0.31l-0.47 -0.42 -1.23 1.75 0.01 0.03c0.08,0.31 0.04,1.1 -0.6,2.15 -0.8,1.18 -1.53,1.95 -2.22,2.36 -0.33,0.19 -0.57,0.27 -0.76,0.27l-0.04 0c-0.11,0 -0.16,-0.07 -0.19,-0.1 -0.06,-0.08 -0.06,-0.19 0,-0.35l1.91 -5.11 -1.43 0c-0.56,0 -0.75,0.34 -0.78,0.38l-0.07 0.15 -0.1 -0.12c-0.29,-0.31 -0.71,-0.37 -0.99,-0.37l-0.07 0c-0.75,0.05 -1.89,0.42 -3.04,1.85 -0.01,0.01 -0.51,0.51 -0.97,1.46l-0.03 0.05c-0.45,0.77 -0.54,1.55 -0.56,1.63l0 0.07 -1.15 0.55c0,0 -0.04,0.02 -0.1,0.04 -0.06,0.03 -0.1,0.04 -0.14,0.05l-0.02 0.01c-0.04,0.01 -0.08,0.02 -0.13,0.03 -0.18,0.03 -0.29,-0.02 -0.36,-0.13 -0.13,-0.2 -0.03,-0.53 0.01,-0.62l0.94 -2.5c0.34,-0.92 0.37,-1.64 0.1,-2.05 -0.24,-0.35 -0.64,-0.42 -0.83,-0.43l0 -0.01 -0.08 0.01 -0.03 0 -0.04 0.01c-0.01,0 -0.02,0 -0.04,0 -0.94,0.13 -1.95,1.02 -2,1.06l-0.12 0.11 -0.05 -0.17c-0.02,-0.04 -0.33,-1.07 -1.39,-1.07 -0.08,0 -0.18,0.01 -0.27,0.02 -0.01,0.01 -1.1,0.23 -1.86,0.97l-0.22 0.21 0.03 -0.31c0,0 0.03,-0.39 -0.19,-0.64 -0.25,-0.29 -0.76,-0.3 -1.47,-0.03 0,0 -0.79,0.34 -1.25,0.54l-2.16 0.9 0.04 0.08c0.13,0.23 0.24,0.47 0.31,0.71l0.02 0.08 2.28 -0.71 -2.13 5.76 1.47 0 0.84 0.02 1.56 -4.04c0.01,-0.01 0.31,-0.96 0.95,-0.96 0.13,0.01 0.21,0.05 0.26,0.13 0.15,0.23 -0.02,0.76 -0.1,0.94 -0.1,0.26 -1.38,3.67 -1.44,3.82l-0.04 0.11 0.44 0 0.01 -0.02 1.16 0 0.85 0.02 1.55 -4.04c0.01,-0.01 0.31,-0.96 0.96,-0.96 0.11,0.01 0.19,0.05 0.24,0.13 0.16,0.23 -0.01,0.76 -0.09,0.94 -0.03,0.08 -0.16,0.42 -0.43,1.12l-0.12 0.32c-0.11,0.34 -0.23,0.84 -0.17,1.34 0.02,0.2 0.07,0.38 0.14,0.55 0.02,0.05 0.04,0.08 0.07,0.13l0.06 0.1 0 -0.01c0.06,0.07 0.12,0.13 0.2,0.19l0.02 0c0.05,0.02 0.21,0.09 0.42,0.13l0.11 0c0.18,0 0.51,-0.04 1.28,-0.44l2.2 -1.13 0.04 0.13c0.1,0.34 0.57,1.33 1.47,1.46 0.13,0.01 0.25,0.02 0.37,0.02l0.1 0c0.27,0 1.17,-0.04 1.72,-0.62l0.2 -0.2 0.05 0.29c0.01,0.07 0.16,0.53 0.67,0.53l0.04 0.01c0.01,0 0.02,0 0.03,0 0.07,0 0.18,0.02 0.31,-0.01 0.44,-0.04 0.83,-0.22 1.76,-0.74 1.44,-0.8 2.35,-2.01 3.1,-3.08 0.06,-0.09 0.08,-0.13 0.08,-0.13l0.3 -0.42 0.07 -0.08c0.33,-0.42 0.63,-0.63 0.89,-0.63l0.02 0c0.15,0 0.33,0.08 0.34,0.34 0,0.06 0,0.22 -0.18,0.52 -0.02,0.02 -1.14,1.94 -1.02,2.99 0.07,0.61 0.45,0.98 1.14,1.14l0.23 0.05c0.14,0.02 0.37,0.04 0.66,0.04 0.63,0 1.64,-0.11 3.12,-1.09l0.08 -0.07 0.06 0.08c0.7,0.9 1.71,1.08 2.43,1.08l0.19 0 0.07 0 0.02 0c0.01,0 0.06,0.01 0.15,0.01 0.71,0 1.55,-0.28 2.52,-0.81l0.1 -0.05 0.05 0.11c0,0 0,0.01 0.01,0.03 0.19,0.26 0.65,0.71 1.78,0.71 0.41,0 0.81,-0.05 1.19,-0.15l0.07 -0.01 0 0 0.04 -0.01c1.08,-0.23 2.09,-1.27 2.38,-1.58l0.05 -0.04 -0.04 -0.06c-0.01,-0.02 -0.23,-0.33 -0.52,-0.33l-0.01 0zm-7.48 -3.76c0.07,0 0.13,0.03 0.17,0.09 0.08,0.13 0.01,0.33 -0.02,0.42 -0.1,0.27 -0.39,0.65 -0.51,0.78l-0.02 0.03c-0.55,0.62 -0.94,0.93 -1.15,0.93 -0.05,0 -0.09,-0.02 -0.13,-0.04 -0.02,-0.03 -0.04,-0.06 -0.06,-0.1 -0.05,-0.15 0.04,-0.39 0.26,-0.78 0.06,-0.1 0.19,-0.31 0.19,-0.31 0.19,-0.26 0.42,-0.5 0.68,-0.7 0.36,-0.29 0.51,-0.32 0.59,-0.32l0 0zm-16.07 4.14c-0.08,0 -0.15,-0.02 -0.21,-0.06 -0.06,-0.04 -0.15,-0.12 -0.19,-0.3 -0.11,-0.44 0.12,-1.24 0.58,-2.04 0.43,-0.74 1.1,-1.52 1.6,-1.52 0.08,0 0.14,0.01 0.21,0.05 0.21,0.13 0.27,0.45 0.18,0.93 -0.08,0.42 -0.29,0.92 -0.57,1.41 -0.42,0.74 -1.1,1.53 -1.6,1.53l0 0zm0 0l0 0 0 0z"/>
   </g>
   <g inkscape:connector-curvature="0">
    <path id="path6501" class="fil1" d="M49.91 23.77c-0.03,0.01 -0.18,0.06 -0.42,0.06 -0.01,0 -0.03,0 -0.06,0 -0.13,0 -0.23,-0.04 -0.28,-0.13 -0.05,-0.09 -0.04,-0.2 0.02,-0.35l3.41 -9.1 -2.08 0 -1.56 4.19 -0.1 -0.03c0,0 -0.44,-0.14 -1.1,-0.14 -0.96,0 -2.34,0.3 -3.48,1.71 -0.01,0.01 -0.97,1.13 -1.28,2.45 0,0.02 -0.02,0.12 -0.05,0.26l0 0.05c-0.02,0.15 -0.04,0.3 -0.05,0.46l0 0.07 -1.02 0.47c0,0 -0.04,0.01 -0.1,0.03 -0.07,0.04 -0.12,0.05 -0.17,0.06l-0.02 0c-0.03,0.02 -0.07,0.03 -0.11,0.04 -0.18,0.02 -0.29,-0.02 -0.36,-0.13 -0.13,-0.19 -0.04,-0.5 0.01,-0.63l0.95 -2.5c0.03,-0.07 0.71,-1.57 -0.18,-2.24 -0.03,-0.01 -0.18,-0.11 -0.42,-0.15l-0.03 0c-0.11,-0.02 -0.24,-0.02 -0.37,-0.01l-0.04 0c-0.01,0 -0.02,0 -0.03,0.01l-0.04 0.01c-0.92,0.12 -1.89,0.99 -2,1.09l-0.13 0.11 -0.05 -0.17c-0.02,-0.04 -0.34,-1.07 -1.39,-1.07l-0.09 0c-0.01,0 -0.03,0 -0.04,0l-0.12 0.01c-0.1,0.01 -0.32,0.06 -0.77,0.27 -0.18,0.07 -0.33,0.15 -0.48,0.24 -0.47,0.25 -1.14,0.71 -1.98,1.28l-0.51 0.31 -0.24 0.13 3.28 -8.33 -5.85 1.06c-0.16,0.03 -3.73,0.72 -4.48,2.71 -0.06,0.14 -0.59,1.44 0.27,2.7 0,0.02 0.75,1.11 2.21,1.11 0,0.01 0.04,0.01 0.09,0.01 0.32,0 1.4,-0.11 1.93,-1.45l0.04 -0.11 -0.12 0c-0.14,-0.01 -1.37,-0.1 -1.63,-1.15 -0.08,-0.24 -0.23,-1.1 1.04,-1.77 0.06,-0.02 1.43,-0.7 3.54,-1.04l0.19 -0.04 -0.07 0.19 -2.24 5.58c-0.01,0.04 -1.17,3.68 -4.37,4.07 -0.18,0.03 -0.34,0.04 -0.51,0.04l-0.15 0 -0.33 -0.04c-0.31,-0.07 -1.87,-0.53 -2.25,-2.37l-0.03 -0.14 -0.11 0.09c-0.39,0.31 -1.05,0.94 -1.11,1.68 -0.04,0.44 0.15,0.86 0.57,1.26 0.92,0.86 2.01,1.31 3.24,1.31l0 0 0.04 0 0.38 0c0.73,0 2.18,-0.18 3.66,-1.37l0.26 -0.21c0.03,-0.02 0.06,-0.04 0.06,-0.04 0.79,-0.66 2.76,-2.3 3,-2.49 0.4,-0.33 1.2,-0.88 1.69,-0.88 0.14,0 0.25,0.04 0.33,0.13l0.02 0.03c0.09,0.21 0.07,0.48 -0.07,0.83l-1.51 3.97 1.53 0 -0.01 0 0.83 0 1.7 -4.34c0,-0.01 0.3,-0.63 0.79,-0.63 0.04,0 0.09,0 0.13,0.01 0.34,0.2 0.14,0.8 0.05,1.05l-0.59 1.57c0,0 -0.06,0.12 -0.12,0.3 -0.1,0.34 -0.21,1.01 0.23,1.56 0.07,0.08 0.15,0.16 0.24,0.23 0.02,0.03 0.05,0.05 0.09,0.07l0.01 0.01c0.05,0.02 0.21,0.09 0.43,0.13 0.19,0.02 0.37,0 1.23,-0.44l2.22 -1.12 0.04 0.14c0.18,0.86 0.66,1.32 1.46,1.43 0.13,0.02 0.24,0.03 0.37,0.03l0.1 0c0.27,0 1.17,-0.04 1.72,-0.62l0.17 -0.18 0.02 0.26c0,0.02 0.04,0.54 0.69,0.54 0.41,0 1,-0.19 1.57,-0.5l2.93 -1.37 -0.3 -0.78 -1.78 0.65zm-4.39 0.2c-0.08,0 -0.15,-0.02 -0.21,-0.06 -0.06,-0.04 -0.15,-0.12 -0.19,-0.3 -0.11,-0.44 0.12,-1.24 0.58,-2.05 0.43,-0.73 1.11,-1.52 1.6,-1.52 0.08,0 0.15,0.02 0.21,0.06 0.21,0.13 0.27,0.45 0.18,0.93 -0.08,0.42 -0.29,0.93 -0.57,1.41 -0.42,0.74 -1.11,1.53 -1.6,1.53l0 0zm0 0l0 0 0 0z"/>
   </g>
   <g inkscape:connector-curvature="0">
    <path id="path6505" class="fil0" d="M59.25 21.8c0,2.19 -1.72,3.97 -3.83,3.97 -2.11,0 -3.83,-1.78 -3.83,-3.97 0,-2.19 1.72,-3.97 3.83,-3.97 2.11,0 3.83,1.78 3.83,3.97l0 0zm-3.83 -4.56c-2.43,0 -4.4,2.04 -4.4,4.56 0,2.51 1.97,4.56 4.4,4.56 2.43,0 4.41,-2.05 4.41,-4.56 0,-2.52 -1.98,-4.56 -4.41,-4.56z"/>
   </g>
   <g inkscape:connector-curvature="0">
    <path id="path6509" class="fil4" d="M58.21 21.8c0,1.59 -1.25,2.88 -2.79,2.88 -1.53,0 -2.78,-1.29 -2.78,-2.88 0,-1.59 1.25,-2.88 2.78,-2.88 1.54,0 2.79,1.29 2.79,2.88l0 0zm-2.79 -3.48c-1.85,0 -3.36,1.56 -3.36,3.48 0,1.91 1.51,3.48 3.36,3.48 1.86,0 3.36,-1.57 3.36,-3.48 0,-1.92 -1.5,-3.48 -3.36,-3.48z"/>
   </g>
   <g inkscape:connector-curvature="0">
    <path id="path6513" class="fil0" d="M57.19 21.8c0,1.01 -0.79,1.82 -1.77,1.82 -0.97,0 -1.76,-0.81 -1.76,-1.82 0,-1.01 0.79,-1.83 1.76,-1.83 0.98,0 1.77,0.82 1.77,1.83l0 0zm-1.77 -2.42c-1.29,0 -2.33,1.08 -2.33,2.42 0,1.33 1.04,2.42 2.33,2.42 1.3,0 2.34,-1.09 2.34,-2.42 0,-1.34 -1.04,-2.42 -2.34,-2.42z"/>
   </g>
  </g>
  <rect class="fil5" width="121.28" height="39.12"/>
 </g>
</svg>
