<?xml version="1.0" encoding="UTF-8"?>
<!DOCTYPE svg PUBLIC "-//W3C//DTD SVG 1.1//EN" "http://www.w3.org/Graphics/SVG/1.1/DTD/svg11.dtd">
<!-- Creator: CorelDRAW -->
<svg xmlns="http://www.w3.org/2000/svg" xml:space="preserve" width="100px" height="50px" version="1.1" style="shape-rendering:geometricPrecision; text-rendering:geometricPrecision; image-rendering:optimizeQuality; fill-rule:evenodd; clip-rule:evenodd"
viewBox="0 0 67.66 33.83"
 xmlns:xlink="http://www.w3.org/1999/xlink"
 xmlns:xodm="http://www.corel.com/coreldraw/odm/2003">
 <defs>
  <style type="text/css">
   <![CDATA[
    .fil0 {fill:white}
    .fil2 {fill:black;fill-rule:nonzero}
    .fil1 {fill:#FDAF27;fill-rule:nonzero}
   ]]>
  </style>
 </defs>
 <g id="Layer_x0020_1">
  <metadata id="CorelCorpID_0Corel-Layer"/>
  <rect class="fil0" width="67.66" height="33.83"/>
  <g id="_2278790496192">
   <path class="fil1" d="M16.97 8.69c-0.71,-0.15 -1.45,0.19 -1.83,0.84 -0.09,0.15 -0.15,0.32 -0.19,0.49 -0.16,-0.66 -0.68,-1.2 -1.34,-1.33 -0.71,-0.15 -1.45,0.19 -1.83,0.84 -0.08,0.15 -0.15,0.32 -0.19,0.49 -0.16,-0.66 -0.68,-1.2 -1.34,-1.33 -0.71,-0.15 -1.45,0.19 -1.82,0.84 -0.38,0.65 -0.32,1.5 0.14,2.09 0.46,0.58 1.25,0.81 1.93,0.55 0.55,-0.2 0.95,-0.69 1.09,-1.26 0.06,0.26 0.18,0.5 0.34,0.71 0.46,0.58 1.25,0.81 1.93,0.55 0.54,-0.2 0.95,-0.69 1.09,-1.26 0.06,0.26 0.17,0.5 0.34,0.71 0.46,0.58 1.24,0.81 1.93,0.55 0.68,-0.25 1.15,-0.95 1.15,-1.7 -0.01,-0.86 -0.6,-1.62 -1.4,-1.78z"/>
   <path class="fil1" d="M11.42 17.49c0.18,0.79 0.63,1.53 1.42,1.75 0.75,0.22 1.58,-0.13 1.97,-0.84 0.23,-0.42 0.2,-0.9 0.2,-1.37 -0.01,-0.32 -0.01,-0.63 -0.01,-0.95 0,-0.35 0,-0.7 0,-1.05 0.01,-0.44 -0.01,-0.88 0.21,-1.28 0.29,-0.56 0.88,-0.91 1.49,-0.88 0.61,0.02 1.18,0.43 1.42,1.02 0.16,0.39 0.14,0.82 0.14,1.24 0,0.35 0,0.69 0,1.04 0,0.74 0.04,1.52 -0.1,2.26 -0.32,1.7 -1.44,3.18 -2.97,3.86 -1.53,0.68 -3.34,0.5 -4.72,-0.47 -0.68,-0.48 -1.24,-1.14 -1.61,-1.91 -0.36,-0.75 -0.58,-1.7 -0.44,-2.54 0.1,-0.64 0.58,-1.15 1.18,-1.28 0.63,-0.13 1.28,0.17 1.6,0.74 0.12,0.21 0.17,0.43 0.22,0.66z"/>
   <path class="fil2" d="M59.48 17.38c0,2.31 -1.82,4.15 -4.1,4.15 -2.28,0 -4.06,-1.83 -4.06,-4.15 0,-2.33 1.78,-4.14 4.07,-4.14 2.27,0 4.09,1.83 4.09,4.14zm-6.05 0.01c0,1.25 0.83,2.15 1.96,2.15 1.12,0 1.97,-0.91 1.97,-2.15 0,-1.25 -0.85,-2.18 -1.97,-2.18 -1.13,0 -1.96,0.92 -1.96,2.18z"/>
   <path class="fil2" d="M26.68 18.94c0.39,0.23 0.76,0.47 1.22,0.44 0.44,-0.03 0.85,-0.27 1.1,-0.65 0.23,-0.35 0.23,-0.76 0.23,-1.17 0,-0.69 0,-5.42 0,-5.76 0,-0.24 -0.01,-0.47 0.07,-0.7 0.26,-0.68 1.11,-0.89 1.64,-0.42 0.28,0.25 0.36,0.6 0.36,0.97 0,0.74 0.02,5.89 0,6.4 -0.05,0.93 -0.45,1.82 -1.08,2.46 -0.65,0.67 -1.55,1.04 -2.46,1.04 -0.87,0 -1.8,-0.35 -2.37,-1.07 -0.23,-0.29 -0.36,-0.62 -0.27,-1 0.08,-0.36 0.36,-0.65 0.71,-0.74 0.32,-0.07 0.58,0.04 0.85,0.2z"/>
   <path class="fil2" d="M41.05 19.6l0 0c-0.32,-0.2 -0.52,-0.56 -0.52,-0.95l0 -4.33c0,-0.6 -0.47,-1.08 -1.04,-1.08 -0.53,0 -0.96,0.4 -1.03,0.93 -0.52,-0.59 -1.31,-0.93 -2.26,-0.93 -2.14,0 -3.69,1.75 -3.69,4.15 0,2.41 1.55,4.16 3.69,4.16 0.01,0 0.02,0 0.03,0 0.01,0 0.02,0 0.03,0 1.02,0 1.91,-0.4 2.56,-1.09 0.33,0.54 0.86,0.93 1.5,1.05 0.06,0.02 0.12,0.02 0.19,0.02 0,0 0,0 0.01,0 0,0 0.01,0 0.01,0 0.55,0 0.99,-0.46 0.99,-1.04 0.01,-0.38 -0.19,-0.7 -0.47,-0.89zm-4.47 -0.03c-1.15,0 -1.96,-0.91 -1.96,-2.18 0,-1.26 0.83,-2.19 1.96,-2.19 1.14,0 1.92,0.89 1.92,2.19 0,1.3 -0.77,2.18 -1.92,2.18z"/>
   <path class="fil2" d="M50.19 14.33c0,-0.63 -0.43,-1.09 -1.01,-1.09 -0.54,0 -0.97,0.41 -1.01,0.99 -0.53,-0.62 -1.34,-0.99 -2.32,-0.99 -2.14,0 -3.69,1.75 -3.69,4.15 0,2.41 1.55,4.16 3.69,4.16 0.96,0 1.75,-0.35 2.27,-0.96l0 0.25c-0.01,1.3 -0.78,2.17 -1.92,2.17 -0.49,0 -0.93,-0.17 -1.27,-0.47 -0.13,-0.12 -0.24,-0.25 -0.34,-0.4 -0.31,-0.5 -0.96,-0.63 -1.43,-0.3 -0.48,0.33 -0.61,1 -0.29,1.5 0.2,0.31 0.44,0.6 0.71,0.84 0.72,0.65 1.63,0.99 2.62,0.99 2.29,0 3.95,-1.78 3.99,-4.26l0 -0.47c0,0 0,0 0,0l0 -6.11 0 0zm-3.96 5.24c-1.15,0 -1.96,-0.91 -1.96,-2.18 0,-1.26 0.83,-2.19 1.96,-2.19 1.14,0 1.92,0.89 1.92,2.19 0,1.3 -0.77,2.18 -1.92,2.18z"/>
  </g>
 </g>
</svg>
