<?xml version="1.0" encoding="UTF-8"?>
<!DOCTYPE svg PUBLIC "-//W3C//DTD SVG 1.1//EN" "http://www.w3.org/Graphics/SVG/1.1/DTD/svg11.dtd">
<!-- Creator: CorelDRAW -->
<svg xmlns="http://www.w3.org/2000/svg" xml:space="preserve" width="100px" height="50px" version="1.1" style="shape-rendering:geometricPrecision; text-rendering:geometricPrecision; image-rendering:optimizeQuality; fill-rule:evenodd; clip-rule:evenodd"
viewBox="0 0 67.66 33.83"
 xmlns:xlink="http://www.w3.org/1999/xlink"
 xmlns:xodm="http://www.corel.com/coreldraw/odm/2003">
 <defs>
  <style type="text/css">
   <![CDATA[
    .fil0 {fill:#284060}
    .fil1 {fill:#FF9933}
    .fil2 {fill:white}
   ]]>
  </style>
 </defs>
 <g id="Layer_x0020_1">
  <metadata id="CorelCorpID_0Corel-Layer"/>
  <rect class="fil0" width="67.66" height="33.83"/>
  <g id="_2280249995392">
   <path class="fil1" d="M41.02 11.52c-1.89,0 -1.96,-2.02 -3.6,-2.73 -0.91,-0.39 -2.25,-0.15 -3.07,0.33 -1.07,0.62 -2.14,1.21 -3.22,1.84l-2.4 1.38c-0.28,0.16 -0.55,0.32 -0.81,0.46l1.11 1.39c0.8,0.83 1.88,1.11 2.89,0.5 0.28,-0.16 0.53,-0.32 0.8,-0.47 1.51,-0.81 3.67,-2.4 5.26,-2.4 0.78,0 1.1,0 1.78,0.42 1.33,0.83 1.79,2.52 2.78,2.52 0.79,0 1.32,-0.36 2.01,-0.78l3.34 -1.92c1.91,-0.84 3.22,-0.79 4.57,0.73 0.72,0.8 1.43,2.27 3,1.45l1.93 -1.11c0.24,-0.14 2.39,-1.41 2.57,-1.46 -0.05,-0.21 -0.78,-1.11 -1.02,-1.38 -0.41,-0.47 -0.73,-0.97 -1.53,-0.97 -0.71,0 -1.68,0.66 -2.18,0.96 -0.34,0.2 -0.67,0.39 -1.01,0.56 -0.72,0.35 -0.73,0.39 -1.57,0.39 -0.79,0 -1.24,-0.56 -1.61,-1.04 -0.32,-0.4 -0.86,-1.12 -1.27,-1.38 -1.22,-0.8 -2.57,-0.52 -3.75,0.16 -0.54,0.31 -1.04,0.6 -1.59,0.91l-2.4 1.38c-0.25,0.15 -0.64,0.26 -1.01,0.26z"/>
   <path class="fil2" d="M9.22 17.76c-0.03,-0.07 -0.1,-0.82 -0.1,-0.94l-1.42 0c0,1.03 0.05,1.88 0.05,2.9l0 3.73 1.61 0 0 -3.78c0,-1.98 2.41,-2.29 2.41,-0.05l0 3.83c2.01,0 1.67,0.28 1.67,-1.03 0,-0.75 -0.07,-3.08 0.06,-3.48 0.37,-1.16 2.29,-1.34 2.29,0.63l0 3.88 1.67 0 0 -3.98c0,-3.16 -2.92,-3.43 -4.18,-1.82 -0.09,0.13 -0.06,0.16 -0.23,0.21 -0.08,-0.33 -0.4,-0.64 -0.66,-0.83 -0.69,-0.5 -1.65,-0.41 -2.35,-0.03 -0.43,0.24 -0.65,0.63 -0.82,0.76zm37.34 5.69l1.57 0c0.12,0 0.15,-0.03 0.15,-0.15l0 -6.33c0,-0.11 -0.03,-0.15 -0.15,-0.15l-1.57 0 0 6.63zm-7.31 0l1.72 0 0 -6.48c0,-0.11 -0.04,-0.15 -0.15,-0.15l-1.57 0 0 6.63zm2.85 -5.1l0 5.1 1.67 0 0 -2.99c0,-0.66 0.07,-1.22 0.36,-1.6 0.15,-0.2 0.3,-0.34 0.53,-0.45l1.17 -0.11 0 -1.48c-0.85,0 -1.45,0.08 -1.95,0.75 -0.07,0.1 -0.11,0.16 -0.15,0.25l-0.1 0.2c-0.07,0.11 -0.01,0.02 -0.06,0.08 0,-0.48 -0.05,-0.78 -0.05,-1.28l-1.47 0c0,0.57 0.05,0.95 0.05,1.53zm-21.2 4.02c-0.69,0 -1.03,-0.23 -1.03,-0.98 0,-0.49 0.38,-0.82 0.76,-0.95 0.4,-0.14 0.99,-0.23 1.49,-0.23 0,0.73 0.11,1.31 -0.35,1.76 -0.19,0.18 -0.52,0.4 -0.87,0.4zm-2.26 -5.1c0.1,0.21 0.22,0.83 0.34,1.08l0.71 -0.28c0.94,-0.3 2.39,-0.4 2.39,1.06 -1.17,0 -2.85,0.18 -3.53,1.24 -0.81,1.24 -0.28,3.23 1.81,3.23 0.81,0 1.48,-0.45 1.86,-0.89 0.06,0.24 0.1,0.45 0.1,0.74l1.52 0c0,-0.42 -0.05,-0.65 -0.05,-1.08 0,-0.99 0.03,-2.62 -0.05,-3.48 -0.24,-2.38 -2.75,-2.51 -4.52,-1.88 -0.22,0.08 -0.36,0.21 -0.58,0.26zm7.75 0.54l-0.06 -0.98c-1.84,-0.01 -1.46,-0.23 -1.46,0.73 0,0.29 -0.02,0.7 0.01,0.98 0.08,0.71 0.04,4.02 0.04,4.91l1.67 0 0 -3.78c0,-0.86 0.45,-1.54 1.29,-1.6 0.92,-0.06 1.31,0.69 1.31,1.6l0 3.78 1.57 0c0.11,0 0.15,-0.03 0.15,-0.15 0,-0.84 0.05,-3.85 -0.09,-4.57 -0.1,-0.45 -0.18,-0.69 -0.39,-1.04 -0.15,-0.26 -0.46,-0.54 -0.72,-0.7 -1,-0.6 -2.4,-0.26 -3.11,0.59 -0.08,0.1 -0.1,0.15 -0.21,0.23zm6.92 2.55c0,-1.13 0.31,-2.36 1.67,-2.36 0.81,0 1.42,0.71 1.42,1.52l0 1.08c0,2.24 -3.09,2.17 -3.09,-0.24zm3.09 -2.85c-0.23,-0.15 -0.58,-0.83 -1.86,-0.83 -0.43,0 -0.95,0.15 -1.23,0.29 -0.29,0.15 -0.69,0.44 -0.88,0.69 -0.77,1 -0.83,1.63 -0.83,2.89 0,1.48 1.14,3.05 2.79,3.05 1.52,0 2.02,-1.03 2.16,-1.13 0.05,0.2 0.05,0.23 0.05,0.49 0,0.26 0.03,0.3 0.05,0.49l1.47 0c0,-1.15 -0.05,-2.14 -0.05,-3.29l0 -5.99 -1.67 0 0 3.34z"/>
  </g>
 </g>
</svg>
