<svg width="24" height="24" viewBox="0 0 24 24" fill="none" xmlns="http://www.w3.org/2000/svg">
<path fill-rule="evenodd" clip-rule="evenodd" d="M19.5861 8.76099C19.2512 7.00204 18.4033 5.32081 17.0441 3.95982C13.4355 0.346725 7.58449 0.346725 3.97594 3.95982C2.87513 5.06202 1.90296 6.69355 1.4778 8.50489C1.05006 10.3272 1.16865 12.3742 2.32396 14.2356C2.38311 14.3309 2.4197 14.3899 2.44555 14.4341C2.45747 14.4545 2.46374 14.4661 2.46638 14.4711C2.46879 14.4775 2.47027 14.4819 2.47114 14.4847C2.47113 14.488 2.47099 14.4936 2.47044 14.5021C2.46973 14.506 2.46807 14.5147 2.46471 14.5295C2.45617 14.5674 2.44316 14.618 2.42001 14.7074L2.41329 14.7334C2.2806 15.2459 2.17154 15.6672 2.10743 16.0076C2.0429 16.3502 2.00557 16.696 2.07421 17.0337C2.26993 17.9967 3.02175 18.75 3.98471 18.9462C4.32252 19.015 4.66836 18.9776 5.01065 18.9129C5.3507 18.8487 5.77153 18.7395 6.28339 18.6067L6.30935 18.5999C6.39865 18.5768 6.44919 18.5637 6.48697 18.5552C6.50168 18.5518 6.51026 18.5502 6.51423 18.5495C6.52206 18.5489 6.52742 18.5488 6.53076 18.5487C6.53352 18.5496 6.53769 18.5511 6.54352 18.5532C6.54857 18.5559 6.56029 18.5622 6.58084 18.5742C6.62534 18.6002 6.68488 18.6369 6.7807 18.6962C7.40062 19.0798 8.04583 19.3479 8.69944 19.5177C8.94191 19.8554 9.21458 20.1778 9.51729 20.4808C10.4092 21.3739 11.7714 22.1843 13.2888 22.5478C14.8167 22.9137 16.5576 22.8371 18.1328 21.8624C18.2091 21.8151 18.2558 21.7863 18.2902 21.7661C18.3177 21.7727 18.3555 21.7824 18.418 21.7986L18.4433 21.8052C18.8615 21.9137 19.2118 22.0046 19.4963 22.0584C19.7829 22.1125 20.0883 22.1473 20.3921 22.0854C21.2373 21.9132 21.897 21.252 22.0688 20.4071C22.1305 20.1034 22.0958 19.7981 22.0418 19.5112C21.9881 19.2264 21.8974 18.8758 21.7889 18.457L21.7824 18.4318C21.766 18.3684 21.7563 18.3305 21.7497 18.3029C21.7698 18.2687 21.7985 18.2224 21.8458 18.1461C22.8195 16.5774 22.9176 14.8541 22.5591 13.3267C22.2031 11.8103 21.39 10.445 20.4666 9.52044C20.1883 9.24187 19.8939 8.98867 19.5861 8.76099ZM15.9827 5.01982C12.9601 1.99339 8.05988 1.99339 5.03727 5.01982C4.12729 5.93094 3.29755 7.31632 2.93811 8.84766C2.58124 10.368 2.69534 11.9895 3.59843 13.4445C3.60698 13.4583 3.61564 13.4722 3.62437 13.4862C3.71047 13.6244 3.8032 13.7733 3.85696 13.9084C3.95234 14.1482 3.98535 14.3652 3.96564 14.6225C3.95456 14.7671 3.9157 14.9161 3.88157 15.0471C3.87838 15.0593 3.87522 15.0714 3.87214 15.0833C3.73108 15.6282 3.63516 16.0004 3.58152 16.2852C3.52723 16.5735 3.53451 16.6875 3.54415 16.735C3.62018 17.109 3.9119 17.4005 4.28421 17.4764C4.33107 17.4859 4.44454 17.4933 4.73235 17.439C5.01668 17.3853 5.38828 17.2893 5.93255 17.148C5.94447 17.1449 5.95656 17.1418 5.96882 17.1386C6.09944 17.1044 6.24835 17.0655 6.39255 17.0544C6.64959 17.0345 6.86519 17.0671 7.10483 17.1621C7.23968 17.2156 7.38903 17.3083 7.5279 17.3946C7.54204 17.4034 7.55607 17.4121 7.56996 17.4207C7.5973 17.4376 7.62469 17.4542 7.65213 17.4705C6.74789 14.7706 7.36907 11.6714 9.51729 9.52044C11.7436 7.2913 14.9878 6.70388 17.7512 7.75716C17.3749 6.75929 16.7856 5.82365 15.9827 5.01982ZM18.4796 9.81521C16.0525 8.17382 12.7269 8.4295 10.5786 10.5804C8.44805 12.7137 8.17872 16.0073 9.77359 18.4329C10.003 18.7817 10.2712 19.113 10.5786 19.4208C11.275 20.1181 12.391 20.7903 13.6382 21.089C14.8749 21.3852 16.185 21.3036 17.3435 20.5868C17.355 20.5797 17.3668 20.5724 17.3789 20.5649C17.4904 20.4955 17.6244 20.4122 17.7474 20.3634C17.9635 20.2777 18.1612 20.2478 18.393 20.2657C18.5244 20.2759 18.659 20.3112 18.7643 20.3388C18.7748 20.3415 18.785 20.3442 18.7948 20.3467C19.2449 20.4635 19.5458 20.5412 19.7745 20.5844C20.0068 20.6282 20.0797 20.6182 20.0926 20.6156C20.3471 20.5637 20.5468 20.3644 20.5988 20.1083C20.6015 20.0948 20.6115 20.0214 20.5677 19.7888C20.5245 19.5596 20.4469 19.2582 20.3303 18.8077C20.3277 18.7978 20.325 18.7876 20.3223 18.7771C20.2947 18.6716 20.2595 18.5368 20.2494 18.4051C20.2317 18.1731 20.2619 17.9742 20.3479 17.758C20.3969 17.6348 20.4803 17.5012 20.5495 17.3902C20.557 17.3782 20.5643 17.3665 20.5714 17.3551C21.2928 16.1927 21.3864 14.8949 21.0988 13.6695C20.8085 12.4331 20.1378 11.3139 19.4052 10.5804C19.1158 10.2906 18.8056 10.0357 18.4796 9.81521Z" fill="#2D264B"/>
<path d="M13.0001 15C13.0001 15.5523 12.5524 16 12.0001 16C11.4478 16 11.0001 15.5523 11.0001 15C11.0001 14.4477 11.4478 14 12.0001 14C12.5524 14 13.0001 14.4477 13.0001 15Z" fill="#2D264B"/>
<path d="M16.0001 15C16.0001 15.5523 15.5524 16 15.0001 16C14.4478 16 14.0001 15.5523 14.0001 15C14.0001 14.4477 14.4478 14 15.0001 14C15.5524 14 16.0001 14.4477 16.0001 15Z" fill="#2D264B"/>
<path d="M19.0001 15C19.0001 15.5523 18.5524 16 18.0001 16C17.4478 16 17.0001 15.5523 17.0001 15C17.0001 14.4477 17.4478 14 18.0001 14C18.5524 14 19.0001 14.4477 19.0001 15Z" fill="#2D264B"/>
</svg>
