<?xml version="1.0" encoding="UTF-8"?>
<!DOCTYPE svg PUBLIC "-//W3C//DTD SVG 1.1//EN" "http://www.w3.org/Graphics/SVG/1.1/DTD/svg11.dtd">
<!-- Creator: CorelDRAW -->
<svg xmlns="http://www.w3.org/2000/svg" xml:space="preserve" width="100px" height="50px" version="1.1" style="shape-rendering:geometricPrecision; text-rendering:geometricPrecision; image-rendering:optimizeQuality; fill-rule:evenodd; clip-rule:evenodd"
viewBox="0 0 67.66 33.83"
 xmlns:xlink="http://www.w3.org/1999/xlink"
 xmlns:xodm="http://www.corel.com/coreldraw/odm/2003">
 <defs>
  <style type="text/css">
   <![CDATA[
    .fil1 {fill:#FEFEFE}
    .fil0 {fill:#4B2489}
   ]]>
  </style>
 </defs>
 <g id="Layer_x0020_1">
  <metadata id="CorelCorpID_0Corel-Layer"/>
  <rect class="fil0" width="67.66" height="33.83"/>
  <g>
   <path class="fil1" d="M22.77 22.19c-1.49,1.41 -3.47,2.2 -5.53,2.2 -0.03,0 -0.07,0 -0.1,0 -0.04,0 -0.08,0 -0.12,0 -2.06,0 -4.05,-0.79 -5.54,-2.2 -1.45,-1.41 -2.27,-3.35 -2.27,-5.37 0,-2.02 0.82,-3.96 2.27,-5.36 1.49,-1.43 3.48,-2.22 5.54,-2.22 0.04,0 0.09,0 0.13,0 0.03,0 0.07,0 0.1,0 2.06,0 4.04,0.79 5.53,2.2 1.45,1.41 2.27,3.35 2.27,5.37 0,2.02 -0.82,3.96 -2.27,5.36l-0.01 0.02zm-5.62 -10.48c-0.02,0 -0.04,0 -0.05,0 -2.73,0 -4.95,2.21 -4.95,4.94 0,0.06 0.01,0.12 0.01,0.17 0,2.75 2.23,4.98 4.97,4.98 2.75,0 4.98,-2.23 4.98,-4.98 0,-0.05 0,-0.11 0,-0.17 0,-2.73 -2.21,-4.94 -4.94,-4.94 -0.01,0 -0.02,0 -0.02,0l0 0zm24.31 -0.69l-6.09 13.57 -0.34 -0.06c-1.74,-0.32 -2.1,-0.75 -2.91,-2.52l-4.56 -9.93 -1.71 0 0 -2.41 6.48 0 0 2.41 -1.55 0 3.66 8.22 3.56 -8.22 -1.92 0 0 -2.41 5.38 0 0 1.35zm14.71 11.17c-1.54,1.41 -3.55,2.2 -5.64,2.2 -2.09,0 -4.11,-0.79 -5.64,-2.2 -1.45,-1.41 -2.28,-3.35 -2.28,-5.37 0,-2.02 0.83,-3.96 2.28,-5.36 1.53,-1.42 3.55,-2.21 5.64,-2.21 2.09,0 4.1,0.79 5.64,2.21 1.46,1.4 2.28,3.34 2.28,5.36 0,2.02 -0.82,3.96 -2.28,5.37l0 0zm-5.6 -10.48c-0.01,0 -0.03,0 -0.05,0 -2.73,0 -4.95,2.21 -4.95,4.95 0,0.05 0,0.11 0.01,0.17 0,2.74 2.22,4.97 4.97,4.97 2.75,0 4.98,-2.23 4.98,-4.98 0,-0.05 0,-0.11 0,-0.17 0,-2.73 -2.21,-4.94 -4.94,-4.94 0,0 -0.01,0 -0.02,0z"/>
  </g>
 </g>
</svg>
