<?xml version="1.0" encoding="UTF-8"?>
<!DOCTYPE svg PUBLIC "-//W3C//DTD SVG 1.1//EN" "http://www.w3.org/Graphics/SVG/1.1/DTD/svg11.dtd">
<!-- Creator: CorelDRAW -->
<svg xmlns="http://www.w3.org/2000/svg" xml:space="preserve" width="100px" height="50px" version="1.1" style="shape-rendering:geometricPrecision; text-rendering:geometricPrecision; image-rendering:optimizeQuality; fill-rule:evenodd; clip-rule:evenodd"
viewBox="0 0 67.66 33.83"
 xmlns:xlink="http://www.w3.org/1999/xlink"
 xmlns:xodm="http://www.corel.com/coreldraw/odm/2003">
 <defs>
  <style type="text/css">
   <![CDATA[
    .fil0 {fill:#FEFEFE}
    .fil1 {fill:black;fill-rule:nonzero}
   ]]>
  </style>
 </defs>
 <g id="Layer_x0020_1">
  <metadata id="CorelCorpID_0Corel-Layer"/>
  <rect class="fil0" width="67.66" height="33.83"/>
  <path id="path114" class="fil1" d="M24.33 9.88l14.22 0 0 8.53 -5.97 0 5.97 5.46 -5.07 0 -5.85 -5.46 0 5.46 -3.3 0 0 -8.68 10.43 0 0 -2.07 -10.43 0 0 -3.24zm34.72 3.47l0 -3.47 -14.04 0 0 5.2 0 3.5 9.35 0 0 1.73 -9.35 0 0 3.5 14.04 0 0 -8.7 -9.35 0 0 -1.76 9.35 0zm-51.92 0l0 -5.24c0,-0.45 0.35,-0.79 0.81,-0.79l5.33 0c0.03,0 0.03,-0.03 0.03,-0.03l0 -0.8c0,0 0,-0.03 -0.03,-0.03l-6.14 0c-0.49,0 -0.87,0.37 -0.87,0.86l0 6.03c0,0.02 0.03,0.02 0.03,0.02l0.81 0c0,0 0.03,0 0.03,-0.02l0 0zm53.43 6.99l0 5.23c0,0.46 -0.41,0.83 -0.87,0.83l-5.33 0 0 0.85 6.2 0 0.02 0c0.44,0 0.81,-0.37 0.81,-0.83l0 -0.02 0 -6.06 -0.83 0zm-46.62 -5.26c0,1.17 0,2.33 0,3.55 0.29,0 0.6,0 0.89,0 0.81,0 1.83,0 2.64,0 0,0 0,-3.49 0,-3.55 -1.16,0 -2.35,0 -3.53,0l0 0zm2.49 2.47c-0.35,0 -0.76,0 -1.08,0 -0.11,0 -0.23,0 -0.37,0 0,-0.48 0,-0.93 0,-1.42 0.49,0 0.95,0 1.45,0 0,0.03 0,1.42 0,1.42zm-2.49 -7.67c0,0.05 0,3.49 0,3.49 1.59,0 3.61,0 5.35,0 0,2.42 0,5.24 0,5.24 0.81,0 3.25,0 3.56,0l0 -7.88c0,-0.46 -0.37,-0.83 -0.84,-0.85 -1.73,0 -5.85,0 -8.07,0l0 0zm5.35 17.48c0.32,0 2.75,0 3.56,0 0,0 0,-6.91 0,-7.02 -1.15,0 -2.37,0 -3.56,0 0,2.33 0,4.66 0,7.02zm-7.09 -6.88l0 -10.6 -2.72 0c-0.5,0 -0.87,0.37 -0.87,0.82 0,2.5 -0.03,9.87 -0.03,12.31 0,0.46 0.38,0.86 0.84,0.86 1.88,0 7.3,0 8.08,0l0 -3.39 -5.3 0zm27.83 3.39l3.47 0 0 -14.02 -3.47 0 0 14.02z"/>
 </g>
</svg>
