<?xml version="1.0" encoding="UTF-8"?>
<!DOCTYPE svg PUBLIC "-//W3C//DTD SVG 1.1//EN" "http://www.w3.org/Graphics/SVG/1.1/DTD/svg11.dtd">
<!-- Creator: CorelDRAW -->
<svg xmlns="http://www.w3.org/2000/svg" xml:space="preserve" width="100px" height="50px" version="1.1" style="shape-rendering:geometricPrecision; text-rendering:geometricPrecision; image-rendering:optimizeQuality; fill-rule:evenodd; clip-rule:evenodd"
viewBox="0 0 67.66 33.83"
 xmlns:xlink="http://www.w3.org/1999/xlink"
 xmlns:xodm="http://www.corel.com/coreldraw/odm/2003">
 <defs>
  <style type="text/css">
   <![CDATA[
    .fil0 {fill:#EE4E2C}
    .fil1 {fill:white}
   ]]>
  </style>
 </defs>
 <g id="Layer_x0020_1">
  <metadata id="CorelCorpID_0Corel-Layer"/>
  <rect class="fil0" width="67.66" height="33.83"/>
  <path class="fil1" d="M10.89 10.32l16.37 0c1.09,0 1.98,0.89 1.98,1.98l0 11.46c0,1.09 -0.89,1.98 -1.98,1.98l-16.85 0c-1.09,0 -1.98,-0.89 -1.98,-1.98l0 -14.16c0,-0.51 0.42,-0.87 0.93,-0.93l15.11 -1.93c0.51,0 0.93,0.42 0.93,0.93l0 1.61 -15.46 0c0,0.67 0.2,1.04 0.95,1.04zm42.38 18.75l-2.11 0 2.25 -4.26 -3.69 -6.99 2.28 0 2.56 4.83 2.56 -4.83 2.11 0 -5.96 11.25zm-21 -3.33l1.77 0 0 -3.23 2.38 0c2.47,0 4.47,-1.73 4.47,-3.87 0,-2.14 -2,-3.87 -4.47,-3.87l-4.15 0c0,3.66 0,7.31 0,10.97zm1.77 -5l0 -4.2 2.38 0c1.34,0 2.43,0.94 2.43,2.1 0,1.16 -1.09,2.1 -2.43,2.1l-2.38 0zm13.46 -2.85l1.56 0 0 7.78 -1.56 0 0 -0.87c-0.68,0.58 -1.58,0.94 -2.56,0.94 -2.18,0 -3.96,-1.77 -3.96,-3.96 0,-2.19 1.78,-3.96 3.96,-3.96 0.98,0 1.88,0.35 2.56,0.94l0 -0.87zm-2.56 1.6c1.27,0 2.29,1.02 2.29,2.29 0,1.27 -1.02,2.29 -2.29,2.29 -1.26,0 -2.29,-1.02 -2.29,-2.29 0,-1.27 1.03,-2.29 2.29,-2.29zm3.33 -9.87c-0.58,0 -1.11,0.25 -1.47,0.64l0 -0.46c0,-0.41 -0.67,-0.41 -0.67,0l0 5.41c0,0.41 0.67,0.41 0.67,0l0 -2.41c0.36,0.4 0.89,0.64 1.47,0.64 1.09,0 1.97,-0.86 1.97,-1.91 0,-1.05 -0.88,-1.91 -1.97,-1.91zm0 3.13c-0.69,0 -1.26,-0.55 -1.26,-1.22 0,-0.61 0.46,-1.12 1.06,-1.21 0.01,0 0.01,0 0.01,0 0.06,-0.01 0.13,-0.01 0.19,-0.01 0.52,0 0.96,0.29 1.16,0.72 0,0.01 0,0.01 0,0.01 0.07,0.15 0.1,0.31 0.1,0.49 0,0.67 -0.56,1.22 -1.26,1.22zm-4.89 0.69c-1.09,0 -1.97,-0.86 -1.97,-1.91 0,-1.05 0.88,-1.91 1.97,-1.91 1.09,0 1.97,0.86 1.97,1.91 0,1.05 -0.88,1.91 -1.97,1.91zm0 -3.13c-0.69,0 -1.26,0.55 -1.26,1.22 0,0.67 0.57,1.22 1.26,1.22 0.7,0 1.26,-0.55 1.26,-1.22 0,-0.67 -0.56,-1.22 -1.26,-1.22zm15.85 1.18c-0.02,-0.88 -0.49,-1.67 -1.45,-1.85 -0.83,-0.15 -1.79,0.27 -2.15,1.03 -0.36,0.78 -0.21,1.85 0.51,2.39 0.79,0.59 2.01,0.41 2.81,-0.02 0.37,-0.21 0.04,-0.76 -0.34,-0.56 -0.51,0.27 -1.17,0.41 -1.74,0.23 -0.43,-0.14 -0.67,-0.5 -0.73,-0.89l2.76 0c0.17,0 0.33,-0.15 0.33,-0.33l0 0zm-3.07 -0.32c0,-0.02 0.01,-0.05 0.02,-0.07 0.15,-0.53 0.7,-0.83 1.25,-0.85 0.63,-0.01 0.99,0.41 1.1,0.92l-2.37 0zm-1.35 0.33c-0.02,-0.88 -0.48,-1.68 -1.44,-1.85 -0.83,-0.16 -1.8,0.27 -2.15,1.02 -0.37,0.78 -0.21,1.85 0.51,2.4 0.78,0.59 2,0.4 2.8,-0.03 0.37,-0.2 0.04,-0.76 -0.33,-0.56 -0.51,0.28 -1.18,0.42 -1.74,0.23 -0.43,-0.13 -0.67,-0.49 -0.74,-0.89l2.76 0c0.18,0 0.33,-0.15 0.33,-0.32zm-3.07 -0.32c0.01,-0.03 0.02,-0.05 0.02,-0.08 0.16,-0.52 0.7,-0.82 1.25,-0.84 0.63,-0.01 0.99,0.41 1.1,0.92l-2.37 0zm-11.11 -0.31l0 2.24c0,0.43 -0.66,0.43 -0.66,0l0 -2.19c-0.03,-0.43 -0.4,-0.63 -0.41,-0.63 -0.47,-0.21 -1.33,-0.12 -1.84,0.53l0 2.29c0,0.43 -0.66,0.43 -0.66,0l0 -5.74c0,-0.42 0.66,-0.42 0.66,0l0 2.58c0.81,-0.54 1.85,-0.48 2.33,-0.15 0,0 0.59,0.32 0.58,1.07zm-4.66 -3.23c-0.65,-0.72 -2.02,-0.74 -2.8,-0.24 -0.77,0.48 -1.07,1.56 -0.43,2.25 0.8,0.85 2.35,0.55 2.99,1.63 0.45,0.79 -0.26,1.49 -1.07,1.51 -0.62,0.01 -1.39,-0.2 -1.83,-0.65 -0.29,-0.3 -0.76,0.15 -0.46,0.45 0.64,0.67 1.82,0.96 2.74,0.79 0.86,-0.16 1.55,-0.96 1.41,-1.82 -0.18,-1.07 -1.25,-1.58 -2.22,-1.86 -0.7,-0.21 -1.71,-0.67 -1.04,-1.52 0.48,-0.59 1.71,-0.67 2.24,-0.09 0.28,0.31 0.75,-0.15 0.47,-0.45zm-15.9 15.23c-1.38,0.27 -3.15,-0.19 -4.11,-1.22 -0.43,-0.47 0.27,-1.18 0.7,-0.71 0.65,0.7 1.8,1.03 2.75,1.01 1.2,-0.03 2.27,-1.12 1.58,-2.34 -0.94,-1.69 -3.26,-1.22 -4.46,-2.55 -0.97,-1.07 -0.51,-2.75 0.62,-3.5 1.19,-0.78 3.24,-0.75 4.21,0.37 0.41,0.48 -0.29,1.18 -0.7,0.7 -0.79,-0.9 -2.65,-0.78 -3.36,0.15 -1.01,1.32 0.5,2.04 1.56,2.36 1.45,0.44 3.06,1.24 3.32,2.9 0.21,1.34 -0.82,2.59 -2.11,2.83z"/>
 </g>
</svg>
