<svg width="22" height="18" viewBox="0 0 22 18" fill="#fff" xmlns="http://www.w3.org/2000/svg">
<path fill-rule="evenodd" clip-rule="evenodd" d="M16.6848 0C19.6203 0 22 2.39208 22 5.34286C22 6.19835 21.5119 6.97804 20.7447 7.34824L20.246 7.58886C19.0682 8.15714 19.0682 9.84286 20.246 10.4111L20.7447 10.6518C21.5119 11.022 22 11.8016 22 12.6571C22 15.6079 19.6203 18 16.6848 18H5.31524C2.37971 18 0 15.6079 0 12.6571C0 11.8016 0.488073 11.022 1.25533 10.6518L1.75404 10.4111C2.93183 9.84286 2.93183 8.15714 1.75404 7.58886L1.25533 7.34824C0.488073 6.97804 0 6.19835 0 5.34286C0 2.39208 2.37971 0 5.31524 0H16.6848ZM20.4651 5.34286C20.4651 3.24418 18.7726 1.54286 16.6848 1.54286H5.31524C3.22741 1.54286 1.53488 3.24418 1.53488 5.34286C1.53488 5.60499 1.68443 5.84389 1.91953 5.95732L2.41823 6.19794C4.75695 7.32636 4.75695 10.6736 2.41823 11.8021L1.91953 12.0427C1.68443 12.1561 1.53488 12.395 1.53488 12.6571C1.53488 14.7558 3.22741 16.4571 5.31524 16.4571H16.6848C18.7726 16.4571 20.4651 14.7558 20.4651 12.6571C20.4651 12.395 20.3156 12.1561 20.0805 12.0427L19.5818 11.8021C17.2431 10.6736 17.2431 7.32636 19.5818 6.19794L20.0805 5.95732C20.3156 5.84389 20.4651 5.60499 20.4651 5.34286Z" fill="#fff"/>
<path d="M6.76961 1.54286C6.76961 1.54286 7.09322 1.54286 7.51707 1.54286C7.94092 1.54286 8.3045 1.54286 8.3045 1.54286V1.86857C8.3045 2.29462 7.9609 2.64 7.53706 2.64C7.11321 2.64 6.76961 2.29462 6.76961 1.86857V1.54286Z" fill="#fff"/>
<path d="M6.76961 5.16C6.76961 4.73395 7.11321 4.38857 7.53706 4.38857C7.9609 4.38857 8.3045 4.73395 8.3045 5.16V7.35429C8.3045 7.78034 7.9609 8.12572 7.53706 8.12572C7.11321 8.12572 6.76961 7.78034 6.76961 7.35429V5.16Z" fill="#fff"/>
<path d="M6.76961 10.6457C6.76961 10.2197 7.11321 9.87429 7.53706 9.87429C7.9609 9.87429 8.3045 10.2197 8.3045 10.6457V12.84C8.3045 13.266 7.9609 13.6114 7.53706 13.6114C7.11321 13.6114 6.76961 13.266 6.76961 12.84V10.6457Z" fill="#fff"/>
<path d="M6.76961 16.1314C6.76961 15.7054 7.11321 15.36 7.53706 15.36C7.9609 15.36 8.3045 15.7054 8.3045 16.1314V16.4571H7.53706H6.76961V16.1314Z" fill="#fff"/>
<path d="M11.0137 5.9998C11.0137 6.66255 11.4614 7.1998 12.0137 7.1998C12.566 7.1998 13.0137 6.66255 13.0137 5.9998C13.0137 5.33706 12.566 4.7998 12.0137 4.7998C11.4614 4.7998 11.0137 5.33706 11.0137 5.9998Z" fill="#fff"/>
<path d="M15.1458 10.7305C15.1458 11.3933 15.5935 11.9305 16.1458 11.9305C16.6981 11.9305 17.1458 11.3933 17.1458 10.7305C17.1458 10.0678 16.6981 9.53055 16.1458 9.53055C15.5935 9.53055 15.1458 10.0678 15.1458 10.7305Z" fill="#fff"/>
<path d="M16.7803 6.34918C17.0732 5.9977 17.0732 5.42786 16.7803 5.07638C16.4874 4.72491 16.0126 4.72491 15.7197 5.07638L11.2197 10.4036C10.9268 10.7551 10.9268 11.3249 11.2197 11.6764C11.5126 12.0279 11.9874 12.0279 12.2803 11.6764L16.7803 6.34918Z" fill="#fff"/>
</svg>
