<svg width="24" height="24" viewBox="0 0 24 24" fill="none" xmlns="http://www.w3.org/2000/svg">
<path d="M15.6362 12.1137C15.222 12.1137 14.8862 12.4494 14.8862 12.8637C14.8862 13.2779 15.222 13.6137 15.6362 13.6137H18.3635C18.7777 13.6137 19.1135 13.2779 19.1135 12.8637C19.1135 12.4494 18.7777 12.1137 18.3635 12.1137H15.6362Z" fill="#2D264B"/>
<path fill-rule="evenodd" clip-rule="evenodd" d="M19.6473 3.37747C19.7247 3.82143 19.7435 4.34902 19.7487 4.95264C19.8354 4.99789 19.9206 5.04606 20.0042 5.09732C20.7779 5.57144 21.4284 6.22194 21.9025 6.99564C22.4246 7.84749 22.6144 8.83477 22.6928 10.0896C22.7499 11.0025 22.7499 12.1128 22.7499 13.4765V13.5048C22.7499 14.2868 22.7499 14.9834 22.7396 15.6034C22.7076 17.5313 22.5827 18.8944 21.9025 20.0044C21.4284 20.7781 20.7779 21.4286 20.0042 21.9027C19.2654 22.3554 18.4273 22.5572 17.4037 22.6545C16.3996 22.75 15.1426 22.75 13.5393 22.75H10.4605C8.85713 22.75 7.60013 22.75 6.59596 22.6545C5.57241 22.5572 4.73431 22.3554 3.99548 21.9027C3.22179 21.4286 2.57129 20.7781 2.09717 20.0044C1.64442 19.2656 1.44264 18.4274 1.34532 17.4039C1.24984 16.3997 1.24984 15.1427 1.24985 13.5394L1.24993 13.0136C1.23675 12.5195 1.2408 11.967 1.24516 11.3713C1.24746 11.0574 1.24985 10.7314 1.24985 10.3956L1.24985 10.3523C1.24984 8.64004 1.24984 7.29622 1.36067 6.22968C1.47372 5.14188 1.7088 4.25462 2.23898 3.49386C2.5593 3.03422 2.94791 2.62873 3.39123 2.29294C4.12954 1.73371 4.99351 1.4851 6.04713 1.36609C7.07506 1.24999 8.36822 1.24999 10.0063 1.25L15.4744 1.25C16.2729 1.24997 16.9498 1.24994 17.4894 1.32557C18.0657 1.40636 18.5947 1.58607 19.0179 2.02728C19.3852 2.41026 19.5593 2.87228 19.6473 3.37747ZM15.4216 2.75C16.2873 2.75 16.858 2.75173 17.2812 2.81105C17.6795 2.86688 17.8344 2.96039 17.9354 3.06563C18.0287 3.16295 18.1129 3.30988 18.1696 3.63506C18.2075 3.85249 18.2282 4.11824 18.2391 4.45819C17.8264 4.38265 17.381 4.33609 16.8957 4.30615C15.9857 4.25 14.8798 4.25 13.523 4.25H10.4605C8.85711 4.25 7.60014 4.24999 6.59596 4.34547C5.57241 4.44279 4.73431 4.64457 3.99548 5.09732C3.5972 5.34139 3.23157 5.6322 2.90583 5.96249C3.01559 5.23516 3.19534 4.74505 3.46961 4.35149C3.7012 4.01919 3.98061 3.72824 4.29692 3.48865C4.73464 3.15709 5.29749 2.9603 6.21549 2.85661C7.14944 2.75112 8.35792 2.75 10.0529 2.75H15.4216ZM4.77923 6.37628C5.24276 6.09224 5.82419 5.92562 6.73794 5.83874C7.66285 5.7508 8.84861 5.75 10.4999 5.75H13.4999C14.8845 5.75 15.9448 5.75033 16.8034 5.80331C17.6611 5.85624 18.2608 5.95942 18.7336 6.13895C18.9106 6.2062 19.0709 6.28461 19.2205 6.37628C19.7923 6.72672 20.2731 7.20752 20.6236 7.77939C20.8702 8.18183 21.0273 8.671 21.1215 9.38638H15.6362C13.7158 9.38638 12.1589 10.9432 12.1589 12.8637C12.1589 14.7841 13.7158 16.3409 15.6362 16.3409H21.2192C21.1614 17.8013 21.0021 18.603 20.6236 19.2206C20.2731 19.7925 19.7923 20.2733 19.2205 20.6237C18.7569 20.9078 18.1755 21.0744 17.2618 21.1613C16.3369 21.2492 15.1511 21.25 13.4999 21.25H10.4999C8.84861 21.25 7.66285 21.2492 6.73794 21.1613C5.82419 21.0744 5.24276 20.9078 4.77923 20.6237C4.20737 20.2733 3.72657 19.7925 3.37613 19.2206C3.09208 18.7571 2.92546 18.1757 2.83858 17.2619C2.75064 16.337 2.74985 15.1512 2.74985 13.5C2.74985 11.8488 2.75064 10.663 2.83858 9.73809C2.92546 8.82434 3.09208 8.24291 3.37613 7.77939C3.72657 7.20752 4.20737 6.72672 4.77923 6.37628ZM13.6589 12.8637C13.6589 11.7716 14.5442 10.8864 15.6362 10.8864H21.2274C21.2497 11.6103 21.2499 12.4644 21.2499 13.5C21.2499 13.9839 21.2498 14.429 21.2475 14.8409H15.6362C14.5442 14.8409 13.6589 13.9557 13.6589 12.8637Z" fill="#2D264B"/>
</svg>
